<?xml version="1.0" encoding="utf-8" standalone="no"?>
<!DOCTYPE svg PUBLIC "-//W3C//DTD SVG 1.1//EN"
  "http://www.w3.org/Graphics/SVG/1.1/DTD/svg11.dtd">
<!-- Created with matplotlib (https://matplotlib.org/) -->
<svg height="328.7344pt" version="1.1" viewBox="0 0 437.62799 328.7344" width="437.62799pt" xmlns="http://www.w3.org/2000/svg" xmlns:xlink="http://www.w3.org/1999/xlink">
 <metadata>
  <rdf:RDF xmlns:cc="http://creativecommons.org/ns#" xmlns:dc="http://purl.org/dc/elements/1.1/" xmlns:rdf="http://www.w3.org/1999/02/22-rdf-syntax-ns#">
   <cc:Work>
    <dc:type rdf:resource="http://purl.org/dc/dcmitype/StillImage"/>
    <dc:date>2021-12-27T09:54:34.538257</dc:date>
    <dc:format>image/svg+xml</dc:format>
    <dc:creator>
     <cc:Agent>
      <dc:title>Matplotlib v3.3.2, https://matplotlib.org/</dc:title>
     </cc:Agent>
    </dc:creator>
   </cc:Work>
  </rdf:RDF>
 </metadata>
 <defs>
  <style type="text/css">*{stroke-linecap:butt;stroke-linejoin:round;}</style>
 </defs>
 <g id="figure_1">
  <g id="patch_1">
   <path d="M 0 328.7344 
L 437.62799 328.7344 
L 437.62799 -0 
L 0 -0 
z
" style="fill:#ffffff;"/>
  </g>
  <g id="axes_1">
   <g id="patch_2">
    <path clip-path="url(#p47030f0bee)" d="M 254.930718 163.580115 
C 254.596504 162.786349 254.246342 161.999392 253.880444 161.219724 
C 253.514547 160.440056 253.132988 159.667833 252.736 158.903527 
L 289.746593 139.67986 
C 290.401624 140.940965 291.031196 142.215132 291.634927 143.501584 
C 292.238658 144.788037 292.816425 146.086515 293.367878 147.39623 
z
" style="fill:#f8756b;opacity:0.2;stroke:#f8756b;stroke-linejoin:miter;"/>
   </g>
   <g id="patch_3">
    <path clip-path="url(#p47030f0bee)" d="M 195.796625 188.4784 
L 195.796625 188.4784 
L 195.796625 188.4784 
L 195.796625 188.4784 
z
" style="fill:#f8756b;stroke:#000000;stroke-linejoin:miter;"/>
   </g>
   <g id="patch_4">
    <path clip-path="url(#p47030f0bee)" d="M 243.898686 189.846709 
C 244.011868 185.867895 243.630945 181.890366 242.764656 178.005354 
C 241.898366 174.120343 240.553385 170.357781 238.760561 166.803973 
L 299.626137 136.098534 
C 303.958794 144.686905 307.209166 153.779761 309.302699 163.168539 
C 311.396232 172.557317 312.316795 182.16968 312.043274 191.785148 
z
" style="fill:#f8756b;opacity:0.2;stroke:#f8756b;stroke-linejoin:miter;"/>
   </g>
   <g id="patch_5">
    <path clip-path="url(#p47030f0bee)" d="M 195.796625 188.4784 
L 195.796625 188.4784 
L 195.796625 188.4784 
L 195.796625 188.4784 
z
" style="fill:#f8756b;stroke:#000000;stroke-linejoin:miter;"/>
   </g>
   <g id="patch_6">
    <path clip-path="url(#p47030f0bee)" d="M 248.320839 151.627723 
C 247.05214 149.819414 245.690902 148.077829 244.242564 146.409927 
C 242.794227 144.742025 241.260721 143.15003 239.648174 141.640305 
L 268.15168 111.195543 
C 270.812383 113.68659 273.342668 116.313381 275.732425 119.065419 
C 278.122182 121.817457 280.368225 124.691072 282.461578 127.674782 
z
" style="fill:#f8756b;opacity:0.2;stroke:#f8756b;stroke-linejoin:miter;"/>
   </g>
   <g id="patch_7">
    <path clip-path="url(#p47030f0bee)" d="M 195.796625 188.4784 
L 195.796625 188.4784 
L 195.796625 188.4784 
L 195.796625 188.4784 
z
" style="fill:#f8756b;stroke:#000000;stroke-linejoin:miter;"/>
   </g>
   <g id="patch_8">
    <path clip-path="url(#p47030f0bee)" d="M 235.189786 160.840392 
C 234.238261 159.48416 233.217333 158.177971 232.13108 156.927045 
C 231.044826 155.676119 229.894697 154.482123 228.685287 153.349829 
L 275.277557 103.584352 
C 278.200298 106.32073 280.979778 109.20622 283.60489 112.229292 
C 286.230002 115.252364 288.697246 118.408987 290.996763 121.686547 
z
" style="fill:#f8756b;opacity:0.2;stroke:#f8756b;stroke-linejoin:miter;"/>
   </g>
   <g id="patch_9">
    <path clip-path="url(#p47030f0bee)" d="M 195.796625 188.4784 
L 195.796625 188.4784 
L 195.796625 188.4784 
L 195.796625 188.4784 
z
" style="fill:#f8756b;stroke:#000000;stroke-linejoin:miter;"/>
   </g>
   <g id="patch_10">
    <path clip-path="url(#p47030f0bee)" d="M 227.59982 192.691256 
C 228.094117 188.959765 227.927852 185.170231 227.108645 181.496369 
C 226.289439 177.822508 224.830003 174.321328 222.79724 171.153327 
L 302.449056 120.044363 
C 310.478469 132.557967 316.24324 146.387627 319.479106 160.899379 
C 322.714971 175.411131 323.37172 190.37979 321.419246 205.11918 
z
" style="fill:#f8756b;opacity:0.2;stroke:#f8756b;stroke-linejoin:miter;"/>
   </g>
   <g id="patch_11">
    <path clip-path="url(#p47030f0bee)" d="M 195.796625 188.4784 
L 195.796625 188.4784 
L 195.796625 188.4784 
L 195.796625 188.4784 
z
" style="fill:#f8756b;stroke:#000000;stroke-linejoin:miter;"/>
   </g>
   <g id="patch_12">
    <path clip-path="url(#p47030f0bee)" d="M 227.545056 132.721762 
C 225.098437 131.328631 222.562772 130.098047 219.954509 129.037992 
C 217.346245 127.977936 214.671033 127.090706 211.946226 126.382057 
L 222.443467 86.019433 
C 226.939399 87.188705 231.353498 88.652634 235.657133 90.401726 
C 239.960768 92.150818 244.144615 94.181282 248.181536 96.479948 
z
" style="fill:#f8756b;opacity:0.2;stroke:#f8756b;stroke-linejoin:miter;"/>
   </g>
   <g id="patch_13">
    <path clip-path="url(#p47030f0bee)" d="M 195.796625 188.4784 
L 195.796625 188.4784 
L 195.796625 188.4784 
L 195.796625 188.4784 
z
" style="fill:#f8756b;stroke:#000000;stroke-linejoin:miter;"/>
   </g>
   <g id="patch_14">
    <path clip-path="url(#p47030f0bee)" d="M 219.607948 146.660922 
C 217.772984 145.616073 215.871235 144.693135 213.915038 143.898094 
C 211.95884 143.103052 209.952431 142.43763 207.908826 141.906142 
L 225.067778 75.928778 
C 230.00649 77.213205 234.855311 78.821309 239.582789 80.74266 
C 244.310267 82.66401 248.906159 84.894444 253.340656 87.419494 
z
" style="fill:#f8756b;opacity:0.2;stroke:#f8756b;stroke-linejoin:miter;"/>
   </g>
   <g id="patch_15">
    <path clip-path="url(#p47030f0bee)" d="M 195.796625 188.4784 
L 195.796625 188.4784 
L 195.796625 188.4784 
L 195.796625 188.4784 
z
" style="fill:#f8756b;stroke:#000000;stroke-linejoin:miter;"/>
   </g>
   <g id="patch_16">
    <path clip-path="url(#p47030f0bee)" d="M 171.240363 129.201461 
C 170.444679 129.531084 169.655713 129.876694 168.873944 130.238081 
C 168.092175 130.599469 167.317762 130.97656 166.551175 131.369126 
L 147.541632 94.248099 
C 148.8065 93.600364 150.084282 92.978163 151.374201 92.381874 
C 152.66412 91.785585 153.965915 91.215328 155.278793 90.671451 
z
" style="fill:#f8756b;opacity:0.2;stroke:#f8756b;stroke-linejoin:miter;"/>
   </g>
   <g id="patch_17">
    <path clip-path="url(#p47030f0bee)" d="M 195.796625 188.4784 
L 195.796625 188.4784 
L 195.796625 188.4784 
L 195.796625 188.4784 
z
" style="fill:#f8756b;stroke:#000000;stroke-linejoin:miter;"/>
   </g>
   <g id="patch_18">
    <path clip-path="url(#p47030f0bee)" d="M 201.747942 140.726307 
C 197.212342 140.161037 192.619253 140.244842 188.107294 140.975192 
C 183.595334 141.705542 179.210356 143.075014 175.084697 145.042279 
L 145.742799 83.507774 
C 155.713141 78.753551 166.310172 75.443992 177.214074 73.678981 
C 188.117976 71.913969 199.217942 71.711441 210.178973 73.077508 
z
" style="fill:#f8756b;opacity:0.2;stroke:#f8756b;stroke-linejoin:miter;"/>
   </g>
   <g id="patch_19">
    <path clip-path="url(#p47030f0bee)" d="M 195.796625 188.4784 
L 195.796625 188.4784 
L 195.796625 188.4784 
L 195.796625 188.4784 
z
" style="fill:#f8756b;stroke:#000000;stroke-linejoin:miter;"/>
   </g>
   <g id="patch_20">
    <path clip-path="url(#p47030f0bee)" d="M 139.63468 157.452581 
C 139.218216 158.206451 138.816973 158.968631 138.431194 159.738656 
C 138.045416 160.508682 137.675181 161.286396 137.320715 162.071328 
L 99.311374 144.906731 
C 99.896243 143.611594 100.507131 142.328365 101.143664 141.057823 
C 101.780198 139.787281 102.44225 138.529685 103.129416 137.285798 
z
" style="fill:#00bec6;opacity:0.2;stroke:#00bec6;stroke-linejoin:miter;"/>
   </g>
   <g id="patch_21">
    <path clip-path="url(#p47030f0bee)" d="M 195.796625 188.4784 
L 195.796625 188.4784 
L 195.796625 188.4784 
L 195.796625 188.4784 
z
" style="fill:#00bec6;stroke:#000000;stroke-linejoin:miter;"/>
   </g>
   <g id="patch_22">
    <path clip-path="url(#p47030f0bee)" d="M 135.385825 166.861261 
C 135.095654 167.672165 134.821841 168.488829 134.564551 169.310757 
C 134.30726 170.132684 134.066545 170.959709 133.842552 171.791329 
L 93.572405 160.944733 
C 93.941994 159.572561 94.339173 158.207969 94.763702 156.851788 
C 95.188231 155.495607 95.640024 154.148112 96.118805 152.81012 
z
" style="fill:#00bec6;opacity:0.2;stroke:#00bec6;stroke-linejoin:miter;"/>
   </g>
   <g id="patch_23">
    <path clip-path="url(#p47030f0bee)" d="M 195.796625 188.4784 
L 195.796625 188.4784 
L 195.796625 188.4784 
L 195.796625 188.4784 
z
" style="fill:#00bec6;stroke:#000000;stroke-linejoin:miter;"/>
   </g>
   <g id="patch_24">
    <path clip-path="url(#p47030f0bee)" d="M 132.700902 176.829572 
C 132.544538 177.676516 132.405242 178.526522 132.283101 179.379074 
C 132.160959 180.231626 132.055996 181.086551 131.968274 181.94333 
L 90.479846 177.695534 
C 90.624587 176.28185 90.797776 174.871224 90.99931 173.464513 
C 91.200844 172.057802 91.430681 170.655291 91.688682 169.257834 
z
" style="fill:#00bec6;opacity:0.2;stroke:#00bec6;stroke-linejoin:miter;"/>
   </g>
   <g id="patch_25">
    <path clip-path="url(#p47030f0bee)" d="M 195.796625 188.4784 
L 195.796625 188.4784 
L 195.796625 188.4784 
L 195.796625 188.4784 
z
" style="fill:#00bec6;stroke:#000000;stroke-linejoin:miter;"/>
   </g>
   <g id="patch_26">
    <path clip-path="url(#p47030f0bee)" d="M 184.27688 141.75607 
C 176.644308 143.637939 169.587876 147.361741 163.726879 152.600664 
C 157.865882 157.839586 153.376946 164.43575 150.654033 171.810257 
L 86.702028 148.197054 
C 93.2824 130.37533 104.130662 114.4346 118.294738 101.77387 
C 132.458815 89.11314 149.511858 80.113953 167.957242 75.566104 
z
" style="fill:#00bec6;opacity:0.2;stroke:#00bec6;stroke-linejoin:miter;"/>
   </g>
   <g id="patch_27">
    <path clip-path="url(#p47030f0bee)" d="M 195.796625 188.4784 
L 195.796625 188.4784 
L 195.796625 188.4784 
L 195.796625 188.4784 
z
" style="fill:#00bec6;stroke:#000000;stroke-linejoin:miter;"/>
   </g>
   <g id="patch_28">
    <path clip-path="url(#p47030f0bee)" d="M 220.115834 167.555507 
C 216.536929 163.395655 211.949842 160.222818 206.794868 158.341545 
C 201.639895 156.460272 196.087421 155.932744 190.670404 156.809595 
C 185.253387 157.686446 180.150875 159.938694 175.852635 163.350156 
C 171.554395 166.761618 168.202497 171.219536 166.118673 176.296013 
L 78.568715 140.357972 
C 86.799818 120.305887 100.039817 102.697112 117.017865 89.221837 
C 133.995912 75.746561 154.150836 66.85018 175.548052 63.386619 
C 196.945269 59.923057 218.877542 62.006795 239.239687 69.437824 
C 259.601832 76.868852 277.720824 89.401556 291.857501 105.832974 
z
" style="fill:#00bec6;opacity:0.2;stroke:#00bec6;stroke-linejoin:miter;"/>
   </g>
   <g id="patch_29">
    <path clip-path="url(#p47030f0bee)" d="M 195.796625 188.4784 
L 195.796625 188.4784 
L 195.796625 188.4784 
L 195.796625 188.4784 
z
" style="fill:#00bec6;stroke:#000000;stroke-linejoin:miter;"/>
   </g>
   <g id="patch_30">
    <path clip-path="url(#p47030f0bee)" d="M 256.67013 208.756021 
L 256.67013 208.756021 
L 296.237908 221.936475 
L 296.237908 221.936475 
z
" style="fill:#f8756b;opacity:0.2;stroke:#f8756b;stroke-linejoin:miter;"/>
   </g>
   <g id="patch_31">
    <path clip-path="url(#p47030f0bee)" d="M 195.796625 188.4784 
L 195.796625 188.4784 
L 195.796625 188.4784 
L 195.796625 188.4784 
z
" style="fill:#f8756b;stroke:#000000;stroke-linejoin:miter;"/>
   </g>
   <g id="patch_32">
    <path clip-path="url(#p47030f0bee)" d="M 241.451754 203.686616 
L 241.451754 203.686616 
L 306.129852 225.231588 
L 306.129852 225.231588 
z
" style="fill:#f8756b;opacity:0.2;stroke:#f8756b;stroke-linejoin:miter;"/>
   </g>
   <g id="patch_33">
    <path clip-path="url(#p47030f0bee)" d="M 195.796625 188.4784 
L 195.796625 188.4784 
L 195.796625 188.4784 
L 195.796625 188.4784 
z
" style="fill:#f8756b;stroke:#000000;stroke-linejoin:miter;"/>
   </g>
   <g id="patch_34">
    <path clip-path="url(#p47030f0bee)" d="M 218.052434 211.584034 
C 219.292027 210.390034 220.433526 209.098214 221.465875 207.721086 
C 222.498224 206.343959 223.41808 204.885985 224.21653 203.361288 
L 308.055251 247.265808 
C 304.90137 253.288361 301.267943 259.047357 297.190163 264.48701 
C 293.112384 269.926663 288.603462 275.029354 283.707072 279.745654 
z
" style="fill:#f8756b;opacity:0.2;stroke:#f8756b;stroke-linejoin:miter;"/>
   </g>
   <g id="patch_35">
    <path clip-path="url(#p47030f0bee)" d="M 195.796625 188.4784 
L 195.796625 188.4784 
L 195.796625 188.4784 
L 195.796625 188.4784 
z
" style="fill:#f8756b;stroke:#000000;stroke-linejoin:miter;"/>
   </g>
   <g id="patch_36">
    <path clip-path="url(#p47030f0bee)" d="M 195.796625 188.4784 
L 195.796625 188.4784 
L 195.796625 188.4784 
L 195.796625 188.4784 
z
" style="fill:#f8756b;"/>
   </g>
   <g id="patch_37">
    <path clip-path="url(#p47030f0bee)" d="M 195.796625 188.4784 
L 195.796625 188.4784 
L 195.796625 188.4784 
L 195.796625 188.4784 
z
" style="fill:#00bec6;"/>
   </g>
   <g id="matplotlib.axis_1"/>
   <g id="matplotlib.axis_2"/>
   <g id="line2d_1">
    <path clip-path="url(#p47030f0bee)" d="M 243.879134 186.541161 
L 259.906637 185.895414 
" style="fill:none;stroke:#000000;stroke-linecap:square;stroke-width:0.75;"/>
   </g>
   <g id="line2d_2">
    <path clip-path="url(#p47030f0bee)" d="M 227.851631 187.186907 
L 243.879134 186.541161 
" style="fill:none;stroke:#000000;stroke-linecap:square;stroke-width:0.75;"/>
   </g>
   <g id="line2d_3"/>
   <g id="line2d_4">
    <path clip-path="url(#p47030f0bee)" d="M 211.824128 187.832654 
L 227.851631 187.186907 
" style="fill:none;stroke:#000000;stroke-linecap:square;stroke-width:0.75;"/>
   </g>
   <g id="line2d_5"/>
   <g id="line2d_6">
    <path clip-path="url(#p47030f0bee)" d="M 237.222248 163.991703 
L 254.930718 163.580115 
" style="fill:none;stroke:#000000;stroke-linecap:square;stroke-width:0.75;"/>
   </g>
   <g id="line2d_7">
    <path clip-path="url(#p47030f0bee)" d="M 237.222248 163.991703 
L 252.736 158.903527 
" style="fill:none;stroke:#000000;stroke-linecap:square;stroke-width:2.8125;"/>
   </g>
   <g id="line2d_8">
    <path clip-path="url(#p47030f0bee)" d="M 237.222248 163.991703 
L 252.736 158.903527 
" style="fill:none;stroke:#f8756b;stroke-linecap:square;stroke-width:1.875;"/>
   </g>
   <g id="line2d_9">
    <path clip-path="url(#p47030f0bee)" d="M 237.222248 163.991703 
L 250.172168 154.418661 
" style="fill:none;stroke:#000000;stroke-linecap:square;stroke-width:0.75;"/>
   </g>
   <g id="line2d_10">
    <path clip-path="url(#p47030f0bee)" d="M 237.222248 163.991703 
L 247.255842 150.15459 
" style="fill:none;stroke:#000000;stroke-linecap:square;stroke-width:0.75;"/>
   </g>
   <g id="line2d_11">
    <path clip-path="url(#p47030f0bee)" d="M 229.667221 154.295607 
L 240.957419 142.901342 
" style="fill:none;stroke:#000000;stroke-linecap:square;stroke-width:2.8125;"/>
   </g>
   <g id="line2d_12">
    <path clip-path="url(#p47030f0bee)" d="M 229.667221 154.295607 
L 240.957419 142.901342 
" style="fill:none;stroke:#f8756b;stroke-linecap:square;stroke-width:1.875;"/>
   </g>
   <g id="line2d_13">
    <path clip-path="url(#p47030f0bee)" d="M 221.032933 168.671328 
L 233.651087 158.767791 
" style="fill:none;stroke:#000000;stroke-linecap:square;stroke-width:2.8125;"/>
   </g>
   <g id="line2d_14">
    <path clip-path="url(#p47030f0bee)" d="M 221.032933 168.671328 
L 233.651087 158.767791 
" style="fill:none;stroke:#f8756b;stroke-linecap:square;stroke-width:1.875;"/>
   </g>
   <g id="line2d_15">
    <path clip-path="url(#p47030f0bee)" d="M 237.222248 163.991703 
L 236.975314 163.578678 
L 236.724262 163.168143 
L 236.469118 162.760139 
L 236.209906 162.354707 
L 235.946652 161.951887 
L 235.679384 161.55172 
L 235.408128 161.154245 
L 235.13291 160.759503 
L 234.853759 160.367533 
L 234.570702 159.978373 
L 234.283768 159.592064 
L 233.992985 159.208643 
L 233.698383 158.82815 
L 233.39999 158.450621 
L 233.097837 158.076095 
L 232.791954 157.704609 
L 232.482372 157.3362 
L 232.16912 156.970906 
L 231.852232 156.608763 
L 231.531738 156.249806 
L 231.207671 155.894072 
L 230.880063 155.541597 
L 230.548946 155.192415 
L 230.214354 154.846562 
L 229.87632 154.504072 
" style="fill:none;stroke:#f8756b;stroke-linecap:square;stroke-width:2;"/>
   </g>
   <g id="line2d_16">
    <path clip-path="url(#p47030f0bee)" d="M 219.607948 146.660922 
L 227.545056 132.721762 
" style="fill:none;stroke:#000000;stroke-linecap:square;stroke-width:0.75;"/>
   </g>
   <g id="line2d_17">
    <path clip-path="url(#p47030f0bee)" d="M 211.67084 160.600081 
L 219.607948 146.660922 
" style="fill:none;stroke:#000000;stroke-linecap:square;stroke-width:0.75;"/>
   </g>
   <g id="line2d_18"/>
   <g id="line2d_19">
    <path clip-path="url(#p47030f0bee)" d="M 207.908826 141.906142 
L 211.946226 126.382057 
" style="fill:none;stroke:#000000;stroke-linecap:square;stroke-width:2.8125;"/>
   </g>
   <g id="line2d_20">
    <path clip-path="url(#p47030f0bee)" d="M 207.908826 141.906142 
L 211.946226 126.382057 
" style="fill:none;stroke:#f8756b;stroke-linecap:square;stroke-width:1.875;"/>
   </g>
   <g id="line2d_21">
    <path clip-path="url(#p47030f0bee)" d="M 203.871426 157.430228 
L 207.908826 141.906142 
" style="fill:none;stroke:#000000;stroke-linecap:square;stroke-width:0.75;"/>
   </g>
   <g id="line2d_22"/>
   <g id="line2d_23">
    <path clip-path="url(#p47030f0bee)" d="M 195.375555 140.358723 
L 195.235199 124.318831 
" style="fill:none;stroke:#000000;stroke-linecap:square;stroke-width:0.75;"/>
   </g>
   <g id="line2d_24">
    <path clip-path="url(#p47030f0bee)" d="M 195.515912 156.398616 
L 195.375555 140.358723 
" style="fill:none;stroke:#000000;stroke-linecap:square;stroke-width:0.75;"/>
   </g>
   <g id="line2d_25"/>
   <g id="line2d_26">
    <path clip-path="url(#p47030f0bee)" d="M 173.242649 145.969592 
L 176.088739 127.418063 
" style="fill:none;stroke:#000000;stroke-linecap:square;stroke-width:0.75;"/>
   </g>
   <g id="line2d_27">
    <path clip-path="url(#p47030f0bee)" d="M 173.242649 145.969592 
L 171.240363 129.201461 
" style="fill:none;stroke:#000000;stroke-linecap:square;stroke-width:0.75;"/>
   </g>
   <g id="line2d_28">
    <path clip-path="url(#p47030f0bee)" d="M 173.242649 145.969592 
L 166.551175 131.369126 
" style="fill:none;stroke:#000000;stroke-linecap:square;stroke-width:2.8125;"/>
   </g>
   <g id="line2d_29">
    <path clip-path="url(#p47030f0bee)" d="M 173.242649 145.969592 
L 166.551175 131.369126 
" style="fill:none;stroke:#f8756b;stroke-linecap:square;stroke-width:1.875;"/>
   </g>
   <g id="line2d_30">
    <path clip-path="url(#p47030f0bee)" d="M 173.242649 145.969592 
L 162.051572 133.907007 
" style="fill:none;stroke:#000000;stroke-linecap:square;stroke-width:0.75;"/>
   </g>
   <g id="line2d_31">
    <path clip-path="url(#p47030f0bee)" d="M 173.242649 145.969592 
L 157.770725 136.798651 
" style="fill:none;stroke:#000000;stroke-linecap:square;stroke-width:0.75;"/>
   </g>
   <g id="line2d_32">
    <path clip-path="url(#p47030f0bee)" d="M 150.257788 172.925429 
L 148.689331 144.916164 
" style="fill:none;stroke:#000000;stroke-linecap:square;stroke-width:0.75;"/>
   </g>
   <g id="line2d_33">
    <path clip-path="url(#p47030f0bee)" d="M 150.257788 172.925429 
L 145.337473 148.847106 
" style="fill:none;stroke:#000000;stroke-linecap:square;stroke-width:0.75;"/>
   </g>
   <g id="line2d_34">
    <path clip-path="url(#p47030f0bee)" d="M 150.257788 172.925429 
L 142.31272 153.034961 
" style="fill:none;stroke:#000000;stroke-linecap:square;stroke-width:0.75;"/>
   </g>
   <g id="line2d_35">
    <path clip-path="url(#p47030f0bee)" d="M 150.257788 172.925429 
L 139.63468 157.452581 
" style="fill:none;stroke:#000000;stroke-linecap:square;stroke-width:0.75;"/>
   </g>
   <g id="line2d_36">
    <path clip-path="url(#p47030f0bee)" d="M 150.257788 172.925429 
L 137.320715 162.071328 
" style="fill:none;stroke:#000000;stroke-linecap:square;stroke-width:2.8125;"/>
   </g>
   <g id="line2d_37">
    <path clip-path="url(#p47030f0bee)" d="M 150.257788 172.925429 
L 137.320715 162.071328 
" style="fill:none;stroke:#00bec6;stroke-linecap:square;stroke-width:1.875;"/>
   </g>
   <g id="line2d_38">
    <path clip-path="url(#p47030f0bee)" d="M 150.257788 172.925429 
L 135.385825 166.861261 
" style="fill:none;stroke:#000000;stroke-linecap:square;stroke-width:0.75;"/>
   </g>
   <g id="line2d_39">
    <path clip-path="url(#p47030f0bee)" d="M 150.257788 172.925429 
L 133.842552 171.791329 
" style="fill:none;stroke:#000000;stroke-linecap:square;stroke-width:2.8125;"/>
   </g>
   <g id="line2d_40">
    <path clip-path="url(#p47030f0bee)" d="M 150.257788 172.925429 
L 133.842552 171.791329 
" style="fill:none;stroke:#00bec6;stroke-linecap:square;stroke-width:1.875;"/>
   </g>
   <g id="line2d_41">
    <path clip-path="url(#p47030f0bee)" d="M 150.257788 172.925429 
L 132.700902 176.829572 
" style="fill:none;stroke:#000000;stroke-linecap:square;stroke-width:0.75;"/>
   </g>
   <g id="line2d_42">
    <path clip-path="url(#p47030f0bee)" d="M 150.257788 172.925429 
L 131.968274 181.94333 
" style="fill:none;stroke:#000000;stroke-linecap:square;stroke-width:2.8125;"/>
   </g>
   <g id="line2d_43">
    <path clip-path="url(#p47030f0bee)" d="M 150.257788 172.925429 
L 131.968274 181.94333 
" style="fill:none;stroke:#00bec6;stroke-linecap:square;stroke-width:1.875;"/>
   </g>
   <g id="line2d_44">
    <path clip-path="url(#p47030f0bee)" d="M 150.257788 172.925429 
L 131.649419 187.099451 
" style="fill:none;stroke:#000000;stroke-linecap:square;stroke-width:0.75;"/>
   </g>
   <g id="line2d_45">
    <path clip-path="url(#p47030f0bee)" d="M 150.257788 172.925429 
L 131.746404 192.264512 
" style="fill:none;stroke:#000000;stroke-linecap:square;stroke-width:0.75;"/>
   </g>
   <g id="line2d_46">
    <path clip-path="url(#p47030f0bee)" d="M 148.7213 198.458099 
L 133.029525 201.784666 
" style="fill:none;stroke:#000000;stroke-linecap:square;stroke-width:0.75;"/>
   </g>
   <g id="line2d_47">
    <path clip-path="url(#p47030f0bee)" d="M 153.430443 211.299163 
L 137.726708 215.766679 
" style="fill:none;stroke:#000000;stroke-linecap:square;stroke-width:0.75;"/>
   </g>
   <g id="line2d_48">
    <path clip-path="url(#p47030f0bee)" d="M 153.430443 211.299163 
L 140.110249 220.349908 
" style="fill:none;stroke:#000000;stroke-linecap:square;stroke-width:0.75;"/>
   </g>
   <g id="line2d_49">
    <path clip-path="url(#p47030f0bee)" d="M 165.327301 178.437899 
L 150.092639 173.417649 
" style="fill:none;stroke:#000000;stroke-linecap:square;stroke-width:0.75;"/>
   </g>
   <g id="line2d_50">
    <path clip-path="url(#p47030f0bee)" d="M 173.242649 145.969592 
L 170.324697 147.651185 
L 167.531506 149.53275 
L 164.876758 151.605071 
L 162.373455 153.857997 
L 160.033859 156.280494 
L 157.869428 158.860697 
L 155.890766 161.585967 
L 154.107562 164.442956 
L 152.528551 167.41767 
L 151.161467 170.49554 
L 150.013006 173.66149 
L 149.088793 176.900014 
L 148.393355 180.195248 
L 147.930099 183.531053 
L 147.701292 186.89109 
L 147.708057 190.258902 
L 147.950359 193.617993 
L 148.427012 196.95191 
L 149.135682 200.244324 
L 150.072897 203.479109 
L 151.234066 206.64042 
L 152.613503 209.712773 
L 153.26987 210.998518 
L 153.26987 210.998518 
" style="fill:none;stroke:#000000;stroke-linecap:square;stroke-width:2;"/>
   </g>
   <g id="line2d_51">
    <path clip-path="url(#p47030f0bee)" d="M 160.349805 221.023808 
L 148.534199 231.872277 
" style="fill:none;stroke:#000000;stroke-linecap:square;stroke-width:0.75;"/>
   </g>
   <g id="line2d_52">
    <path clip-path="url(#p47030f0bee)" d="M 172.165412 210.175339 
L 160.349805 221.023808 
" style="fill:none;stroke:#000000;stroke-linecap:square;stroke-width:0.75;"/>
   </g>
   <g id="line2d_53"/>
   <g id="line2d_54">
    <path clip-path="url(#p47030f0bee)" d="M 170.037373 229.124944 
L 161.450956 242.673792 
" style="fill:none;stroke:#000000;stroke-linecap:square;stroke-width:0.75;"/>
   </g>
   <g id="line2d_55">
    <path clip-path="url(#p47030f0bee)" d="M 178.623791 215.576096 
L 170.037373 229.124944 
" style="fill:none;stroke:#000000;stroke-linecap:square;stroke-width:0.75;"/>
   </g>
   <g id="line2d_56"/>
   <g id="line2d_57">
    <path clip-path="url(#p47030f0bee)" d="M 189.745932 236.218003 
L 179.214843 250.460736 
" style="fill:none;stroke:#000000;stroke-linecap:square;stroke-width:0.75;"/>
   </g>
   <g id="line2d_58">
    <path clip-path="url(#p47030f0bee)" d="M 189.745932 236.218003 
L 184.255018 251.593824 
" style="fill:none;stroke:#000000;stroke-linecap:square;stroke-width:0.75;"/>
   </g>
   <g id="line2d_59">
    <path clip-path="url(#p47030f0bee)" d="M 189.745932 236.218003 
L 189.370013 252.317762 
" style="fill:none;stroke:#000000;stroke-linecap:square;stroke-width:0.75;"/>
   </g>
   <g id="line2d_60">
    <path clip-path="url(#p47030f0bee)" d="M 189.745932 236.218003 
L 194.526669 252.627856 
" style="fill:none;stroke:#000000;stroke-linecap:square;stroke-width:0.75;"/>
   </g>
   <g id="line2d_61">
    <path clip-path="url(#p47030f0bee)" d="M 213.922612 233.055627 
L 206.672728 251.711903 
" style="fill:none;stroke:#000000;stroke-linecap:square;stroke-width:0.75;"/>
   </g>
   <g id="line2d_62">
    <path clip-path="url(#p47030f0bee)" d="M 213.922612 233.055627 
L 211.724561 250.631971 
" style="fill:none;stroke:#000000;stroke-linecap:square;stroke-width:0.75;"/>
   </g>
   <g id="line2d_63">
    <path clip-path="url(#p47030f0bee)" d="M 213.922612 233.055627 
L 216.673138 249.149123 
" style="fill:none;stroke:#000000;stroke-linecap:square;stroke-width:0.75;"/>
   </g>
   <g id="line2d_64">
    <path clip-path="url(#p47030f0bee)" d="M 213.922612 233.055627 
L 221.486383 247.272973 
" style="fill:none;stroke:#000000;stroke-linecap:square;stroke-width:0.75;"/>
   </g>
   <g id="line2d_65">
    <path clip-path="url(#p47030f0bee)" d="M 213.922612 233.055627 
L 226.133091 245.015683 
" style="fill:none;stroke:#000000;stroke-linecap:square;stroke-width:0.75;"/>
   </g>
   <g id="line2d_66">
    <path clip-path="url(#p47030f0bee)" d="M 213.922612 233.055627 
L 230.583141 242.391884 
" style="fill:none;stroke:#000000;stroke-linecap:square;stroke-width:0.75;"/>
   </g>
   <g id="line2d_67">
    <path clip-path="url(#p47030f0bee)" d="M 202.385756 219.87545 
L 205.680322 235.573974 
" style="fill:none;stroke:#000000;stroke-linecap:square;stroke-width:0.75;"/>
   </g>
   <g id="line2d_68">
    <path clip-path="url(#p47030f0bee)" d="M 189.745932 236.218003 
L 190.223622 236.276122 
L 190.70187 236.329461 
L 191.180628 236.378015 
L 191.659847 236.42178 
L 192.139479 236.46075 
L 192.619478 236.494921 
L 193.099794 236.524292 
L 193.580379 236.548857 
L 194.061187 236.568616 
L 194.542168 236.583565 
L 195.023274 236.593704 
L 195.504458 236.599032 
L 195.985671 236.599548 
L 196.466865 236.595251 
L 196.947992 236.586143 
L 197.429003 236.572224 
L 197.909852 236.553496 
L 198.390489 236.52996 
L 198.870867 236.50162 
L 199.350938 236.468477 
L 199.830653 236.430535 
L 200.309964 236.387797 
L 200.788825 236.340269 
L 201.267186 236.287955 
L 201.745 236.23086 
L 202.222219 236.16899 
L 202.698796 236.10235 
L 203.174682 236.030948 
L 203.649831 235.954791 
L 204.124194 235.873887 
L 204.597725 235.788243 
L 205.070375 235.697868 
L 205.542099 235.602771 
L 206.012847 235.502962 
L 206.482574 235.39845 
L 206.951232 235.289246 
L 207.418775 235.175361 
L 207.885156 235.056807 
L 208.350328 234.933595 
L 208.814245 234.805737 
L 209.276859 234.673247 
L 209.738126 234.536137 
L 210.197999 234.394421 
L 210.656431 234.248114 
L 211.113378 234.09723 
L 211.568793 233.941784 
L 212.02263 233.781792 
L 212.474845 233.61727 
L 212.925393 233.448233 
L 213.374227 233.2747 
L 213.821304 233.096687 
" style="fill:none;stroke:#000000;stroke-linecap:square;stroke-width:2;"/>
   </g>
   <g id="line2d_69">
    <path clip-path="url(#p47030f0bee)" d="M 230.180233 222.145121 
L 241.641436 233.367361 
" style="fill:none;stroke:#000000;stroke-linecap:square;stroke-width:0.75;"/>
   </g>
   <g id="line2d_70">
    <path clip-path="url(#p47030f0bee)" d="M 218.71903 210.92288 
L 230.180233 222.145121 
" style="fill:none;stroke:#000000;stroke-linecap:square;stroke-width:0.75;"/>
   </g>
   <g id="line2d_71"/>
   <g id="line2d_72">
    <path clip-path="url(#p47030f0bee)" d="M 237.754963 212.040625 
L 251.741076 219.894699 
" style="fill:none;stroke:#000000;stroke-linecap:square;stroke-width:0.75;"/>
   </g>
   <g id="line2d_73">
    <path clip-path="url(#p47030f0bee)" d="M 241.451754 203.686616 
L 256.67013 208.756021 
" style="fill:none;stroke:#000000;stroke-linecap:square;stroke-width:2.8125;"/>
   </g>
   <g id="line2d_74">
    <path clip-path="url(#p47030f0bee)" d="M 241.451754 203.686616 
L 256.67013 208.756021 
" style="fill:none;stroke:#f8756b;stroke-linecap:square;stroke-width:1.875;"/>
   </g>
   <g id="line2d_75">
    <path clip-path="url(#p47030f0bee)" d="M 226.195266 198.730911 
L 241.394587 203.857167 
" style="fill:none;stroke:#000000;stroke-linecap:square;stroke-width:0.75;"/>
   </g>
   <g id="line2d_76">
    <path clip-path="url(#p47030f0bee)" d="M 237.754963 212.040625 
L 237.988484 211.61987 
L 238.217785 211.196801 
L 238.442844 210.771461 
L 238.663639 210.343891 
L 238.880147 209.914135 
L 239.092346 209.482235 
L 239.300217 209.048235 
L 239.503736 208.612178 
L 239.702885 208.174107 
L 239.897644 207.734067 
L 240.087992 207.292102 
L 240.273912 206.848255 
L 240.455383 206.402571 
L 240.632389 205.955094 
L 240.804911 205.50587 
L 240.972933 205.054944 
L 241.136437 204.602359 
L 241.295407 204.148163 
L 241.449827 203.692399 
" style="fill:none;stroke:#000000;stroke-linecap:square;stroke-width:2;"/>
   </g>
   <g id="line2d_77">
    <path clip-path="url(#p47030f0bee)" d="M 179.906575 190.670242 
L 164.016526 192.862083 
" style="fill:none;stroke:#000000;stroke-linecap:square;stroke-width:0.75;"/>
   </g>
   <g id="line2d_78">
    <path clip-path="url(#p47030f0bee)" d="M 221.032933 168.671328 
L 219.369344 166.717925 
L 217.55497 164.903714 
L 215.601416 163.240302 
L 213.52118 161.738327 
L 211.327567 160.407397 
L 209.034609 159.256026 
L 206.656973 158.291578 
L 204.209867 157.520223 
L 201.708946 156.946895 
L 199.170206 156.57526 
L 196.609887 156.407697 
L 194.044365 156.445277 
L 191.490052 156.68776 
L 188.963287 157.133594 
L 186.480231 157.779928 
L 184.056769 158.622628 
L 181.708401 159.656302 
L 179.450151 160.87434 
L 177.296461 162.268949 
L 175.26111 163.831209 
L 173.357116 165.551128 
L 171.596658 167.417702 
L 169.990998 169.418994 
L 168.550405 171.5422 
L 167.284095 173.77374 
L 166.200168 176.09934 
L 165.305558 178.504124 
L 164.605986 180.972709 
L 164.105928 183.489305 
L 163.808582 186.037814 
L 163.71585 188.601934 
L 163.828326 191.165264 
L 164.14529 193.711408 
L 164.664715 196.224078 
L 165.383277 198.687202 
L 166.296381 201.085025 
L 167.398186 203.402208 
L 168.681644 205.62393 
L 170.138546 207.735979 
L 171.759571 209.724845 
L 173.534352 211.577806 
L 175.451535 213.28301 
L 177.498858 214.829549 
L 179.663223 216.207531 
L 181.930788 217.408141 
L 184.287046 218.4237 
L 186.716927 219.24771 
L 189.204886 219.874902 
L 191.73501 220.301264 
L 194.291115 220.524068 
L 196.85685 220.541889 
L 199.415803 220.354613 
L 201.951605 219.963438 
L 204.448037 219.370866 
L 206.889129 218.580688 
L 209.259267 217.597958 
L 211.54329 216.428962 
L 213.726588 215.081178 
L 215.795196 213.563227 
L 217.735881 211.884818 
L 219.536229 210.056689 
L 221.184726 208.090532 
L 222.670825 205.998924 
L 223.98502 203.795245 
L 225.118906 201.49359 
L 226.06523 199.108683 
L 226.170018 198.80547 
L 226.170018 198.80547 
" style="fill:none;stroke:#000000;stroke-linecap:square;stroke-width:2;"/>
   </g>
   <g id="line2d_79">
    <defs>
     <path d="M 0 3.59204 
C 0.95262 3.59204 1.866352 3.21356 2.539956 2.539956 
C 3.21356 1.866352 3.59204 0.95262 3.59204 0 
C 3.59204 -0.95262 3.21356 -1.866352 2.539956 -2.539956 
C 1.866352 -3.21356 0.95262 -3.59204 0 -3.59204 
C -0.95262 -3.59204 -1.866352 -3.21356 -2.539956 -2.539956 
C -3.21356 -1.866352 -3.59204 -0.95262 -3.59204 0 
C -3.59204 0.95262 -3.21356 1.866352 -2.539956 2.539956 
C -1.866352 3.21356 -0.95262 3.59204 0 3.59204 
z
" id="mce142332b2" style="stroke:#000000;stroke-width:0.25;"/>
    </defs>
    <g clip-path="url(#p47030f0bee)">
     <use style="fill:#bfbf00;stroke:#000000;stroke-width:0.25;" x="211.724561" xlink:href="#mce142332b2" y="250.631971"/>
    </g>
   </g>
   <g id="line2d_80">
    <defs>
     <path d="M 0 2.697019 
C 0.715258 2.697019 1.401317 2.412844 1.90708 1.90708 
C 2.412844 1.401317 2.697019 0.715258 2.697019 0 
C 2.697019 -0.715258 2.412844 -1.401317 1.90708 -1.90708 
C 1.401317 -2.412844 0.715258 -2.697019 0 -2.697019 
C -0.715258 -2.697019 -1.401317 -2.412844 -1.90708 -1.90708 
C -2.412844 -1.401317 -2.697019 -0.715258 -2.697019 0 
C -2.697019 0.715258 -2.412844 1.401317 -1.90708 1.90708 
C -1.401317 2.412844 -0.715258 2.697019 0 2.697019 
z
" id="m39b79b23af" style="stroke:#000000;stroke-width:0.25;"/>
    </defs>
    <g clip-path="url(#p47030f0bee)">
     <use style="fill:#bfbf00;stroke:#000000;stroke-width:0.25;" x="206.672728" xlink:href="#m39b79b23af" y="251.711903"/>
    </g>
   </g>
   <g id="line2d_81">
    <defs>
     <path d="M 0 2.488682 
C 0.660006 2.488682 1.293069 2.226458 1.759764 1.759764 
C 2.226458 1.293069 2.488682 0.660006 2.488682 0 
C 2.488682 -0.660006 2.226458 -1.293069 1.759764 -1.759764 
C 1.293069 -2.226458 0.660006 -2.488682 0 -2.488682 
C -0.660006 -2.488682 -1.293069 -2.226458 -1.759764 -1.759764 
C -2.226458 -1.293069 -2.488682 -0.660006 -2.488682 0 
C -2.488682 0.660006 -2.226458 1.293069 -1.759764 1.759764 
C -1.293069 2.226458 -0.660006 2.488682 0 2.488682 
z
" id="m08a67d5abc" style="stroke:#000000;stroke-width:0.25;"/>
    </defs>
    <g clip-path="url(#p47030f0bee)">
     <use style="fill:#bfbf00;stroke:#000000;stroke-width:0.25;" x="221.486383" xlink:href="#m08a67d5abc" y="247.272973"/>
    </g>
   </g>
   <g id="line2d_82">
    <defs>
     <path d="M 0 2.331636 
C 0.618357 2.331636 1.211471 2.08596 1.648715 1.648715 
C 2.08596 1.211471 2.331636 0.618357 2.331636 0 
C 2.331636 -0.618357 2.08596 -1.211471 1.648715 -1.648715 
C 1.211471 -2.08596 0.618357 -2.331636 0 -2.331636 
C -0.618357 -2.331636 -1.211471 -2.08596 -1.648715 -1.648715 
C -2.08596 -1.211471 -2.331636 -0.618357 -2.331636 0 
C -2.331636 0.618357 -2.08596 1.211471 -1.648715 1.648715 
C -1.211471 2.08596 -0.618357 2.331636 0 2.331636 
z
" id="m7f22ca4a24" style="stroke:#000000;stroke-width:0.25;"/>
    </defs>
    <g clip-path="url(#p47030f0bee)">
     <use style="fill:#bfbf00;stroke:#000000;stroke-width:0.25;" x="216.673138" xlink:href="#m7f22ca4a24" y="249.149123"/>
    </g>
   </g>
   <g id="line2d_83">
    <defs>
     <path d="M 0 2.152935 
C 0.570965 2.152935 1.118622 1.926088 1.522355 1.522355 
C 1.926088 1.118622 2.152935 0.570965 2.152935 0 
C 2.152935 -0.570965 1.926088 -1.118622 1.522355 -1.522355 
C 1.118622 -1.926088 0.570965 -2.152935 0 -2.152935 
C -0.570965 -2.152935 -1.118622 -1.926088 -1.522355 -1.522355 
C -1.926088 -1.118622 -2.152935 -0.570965 -2.152935 0 
C -2.152935 0.570965 -1.926088 1.118622 -1.522355 1.522355 
C -1.118622 1.926088 -0.570965 2.152935 0 2.152935 
z
" id="mee23c34cb3" style="stroke:#000000;stroke-width:0.25;"/>
    </defs>
    <g clip-path="url(#p47030f0bee)">
     <use style="fill:#bfbf00;stroke:#000000;stroke-width:0.25;" x="230.583141" xlink:href="#mee23c34cb3" y="242.391884"/>
    </g>
   </g>
   <g id="line2d_84">
    <defs>
     <path d="M 0 1.766731 
C 0.468543 1.766731 0.917958 1.580577 1.249268 1.249268 
C 1.580577 0.917958 1.766731 0.468543 1.766731 0 
C 1.766731 -0.468543 1.580577 -0.917958 1.249268 -1.249268 
C 0.917958 -1.580577 0.468543 -1.766731 0 -1.766731 
C -0.468543 -1.766731 -0.917958 -1.580577 -1.249268 -1.249268 
C -1.580577 -0.917958 -1.766731 -0.468543 -1.766731 0 
C -1.766731 0.468543 -1.580577 0.917958 -1.249268 1.249268 
C -0.917958 1.580577 -0.468543 1.766731 0 1.766731 
z
" id="m5bd5204118" style="stroke:#000000;stroke-width:0.25;"/>
    </defs>
    <g clip-path="url(#p47030f0bee)">
     <use style="fill:#bfbf00;stroke:#000000;stroke-width:0.25;" x="226.133091" xlink:href="#m5bd5204118" y="245.015683"/>
    </g>
   </g>
   <g id="line2d_85">
    <defs>
     <path d="M 0 3.596656 
C 0.953844 3.596656 1.86875 3.21769 2.54322 2.54322 
C 3.21769 1.86875 3.596656 0.953844 3.596656 0 
C 3.596656 -0.953844 3.21769 -1.86875 2.54322 -2.54322 
C 1.86875 -3.21769 0.953844 -3.596656 0 -3.596656 
C -0.953844 -3.596656 -1.86875 -3.21769 -2.54322 -2.54322 
C -3.21769 -1.86875 -3.596656 -0.953844 -3.596656 0 
C -3.596656 0.953844 -3.21769 1.86875 -2.54322 2.54322 
C -1.86875 3.21769 -0.953844 3.596656 0 3.596656 
z
" id="m240d084f1c" style="stroke:#000000;stroke-width:0.25;"/>
    </defs>
    <g clip-path="url(#p47030f0bee)">
     <use style="fill:#bfbf00;stroke:#000000;stroke-width:0.25;" x="213.922612" xlink:href="#m240d084f1c" y="233.055627"/>
    </g>
   </g>
   <g id="line2d_86">
    <defs>
     <path d="M 0 2.215409 
C 0.587533 2.215409 1.151082 1.981979 1.566531 1.566531 
C 1.981979 1.151082 2.215409 0.587533 2.215409 0 
C 2.215409 -0.587533 1.981979 -1.151082 1.566531 -1.566531 
C 1.151082 -1.981979 0.587533 -2.215409 0 -2.215409 
C -0.587533 -2.215409 -1.151082 -1.981979 -1.566531 -1.566531 
C -1.981979 -1.151082 -2.215409 -0.587533 -2.215409 0 
C -2.215409 0.587533 -1.981979 1.151082 -1.566531 1.566531 
C -1.151082 1.981979 -0.587533 2.215409 0 2.215409 
z
" id="m67cbadbb02" style="stroke:#000000;stroke-width:0.25;"/>
    </defs>
    <g clip-path="url(#p47030f0bee)">
     <use style="fill:#bfbf00;stroke:#000000;stroke-width:0.25;" x="184.255018" xlink:href="#m67cbadbb02" y="251.593824"/>
    </g>
   </g>
   <g id="line2d_87">
    <defs>
     <path d="M 0 1.82626 
C 0.48433 1.82626 0.948888 1.633833 1.291361 1.291361 
C 1.633833 0.948888 1.82626 0.48433 1.82626 0 
C 1.82626 -0.48433 1.633833 -0.948888 1.291361 -1.291361 
C 0.948888 -1.633833 0.48433 -1.82626 0 -1.82626 
C -0.48433 -1.82626 -0.948888 -1.633833 -1.291361 -1.291361 
C -1.633833 -0.948888 -1.82626 -0.48433 -1.82626 0 
C -1.82626 0.48433 -1.633833 0.948888 -1.291361 1.291361 
C -0.948888 1.633833 -0.48433 1.82626 0 1.82626 
z
" id="mdabad928f1" style="stroke:#000000;stroke-width:0.25;"/>
    </defs>
    <g clip-path="url(#p47030f0bee)">
     <use style="fill:#bfbf00;stroke:#000000;stroke-width:0.25;" x="179.214843" xlink:href="#mdabad928f1" y="250.460736"/>
    </g>
   </g>
   <g id="line2d_88">
    <defs>
     <path d="M 0 1.701031 
C 0.451119 1.701031 0.883822 1.5218 1.202811 1.202811 
C 1.5218 0.883822 1.701031 0.451119 1.701031 0 
C 1.701031 -0.451119 1.5218 -0.883822 1.202811 -1.202811 
C 0.883822 -1.5218 0.451119 -1.701031 0 -1.701031 
C -0.451119 -1.701031 -0.883822 -1.5218 -1.202811 -1.202811 
C -1.5218 -0.883822 -1.701031 -0.451119 -1.701031 0 
C -1.701031 0.451119 -1.5218 0.883822 -1.202811 1.202811 
C -0.883822 1.5218 -0.451119 1.701031 0 1.701031 
z
" id="m052ce4cc2c" style="stroke:#000000;stroke-width:0.25;"/>
    </defs>
    <g clip-path="url(#p47030f0bee)">
     <use style="fill:#bfbf00;stroke:#000000;stroke-width:0.25;" x="189.370013" xlink:href="#m052ce4cc2c" y="252.317762"/>
    </g>
   </g>
   <g id="line2d_89">
    <defs>
     <path d="M 0 1.540218 
C 0.40847 1.540218 0.800266 1.377931 1.089098 1.089098 
C 1.377931 0.800266 1.540218 0.40847 1.540218 0 
C 1.540218 -0.40847 1.377931 -0.800266 1.089098 -1.089098 
C 0.800266 -1.377931 0.40847 -1.540218 0 -1.540218 
C -0.40847 -1.540218 -0.800266 -1.377931 -1.089098 -1.089098 
C -1.377931 -0.800266 -1.540218 -0.40847 -1.540218 0 
C -1.540218 0.40847 -1.377931 0.800266 -1.089098 1.089098 
C -0.800266 1.377931 -0.40847 1.540218 0 1.540218 
z
" id="m2059c4dc96" style="stroke:#000000;stroke-width:0.25;"/>
    </defs>
    <g clip-path="url(#p47030f0bee)">
     <use style="fill:#bfbf00;stroke:#000000;stroke-width:0.25;" x="194.526669" xlink:href="#m2059c4dc96" y="252.627856"/>
    </g>
   </g>
   <g id="line2d_90">
    <defs>
     <path d="M 0 2.270566 
C 0.602161 2.270566 1.179741 2.031325 1.605533 1.605533 
C 2.031325 1.179741 2.270566 0.602161 2.270566 0 
C 2.270566 -0.602161 2.031325 -1.179741 1.605533 -1.605533 
C 1.179741 -2.031325 0.602161 -2.270566 0 -2.270566 
C -0.602161 -2.270566 -1.179741 -2.031325 -1.605533 -1.605533 
C -2.031325 -1.179741 -2.270566 -0.602161 -2.270566 0 
C -2.270566 0.602161 -2.031325 1.179741 -1.605533 1.605533 
C -1.179741 2.031325 -0.602161 2.270566 0 2.270566 
z
" id="me476b7a470" style="stroke:#000000;stroke-width:0.25;"/>
    </defs>
    <g clip-path="url(#p47030f0bee)">
     <use style="fill:#bfbf00;stroke:#000000;stroke-width:0.25;" x="189.745932" xlink:href="#me476b7a470" y="236.218003"/>
    </g>
   </g>
   <g id="line2d_91">
    <defs>
     <path d="M 0 3.596728 
C 0.953863 3.596728 1.868787 3.217754 2.543271 2.543271 
C 3.217754 1.868787 3.596728 0.953863 3.596728 0 
C 3.596728 -0.953863 3.217754 -1.868787 2.543271 -2.543271 
C 1.868787 -3.217754 0.953863 -3.596728 0 -3.596728 
C -0.953863 -3.596728 -1.868787 -3.217754 -2.543271 -2.543271 
C -3.217754 -1.868787 -3.596728 -0.953863 -3.596728 0 
C -3.596728 0.953863 -3.217754 1.868787 -2.543271 2.543271 
C -1.868787 3.217754 -0.953863 3.596728 0 3.596728 
z
" id="mbb0b910984" style="stroke:#000000;stroke-width:0.25;"/>
    </defs>
    <g clip-path="url(#p47030f0bee)">
     <use style="fill:#bfbf00;stroke:#000000;stroke-width:0.25;" x="202.385756" xlink:href="#mbb0b910984" y="219.87545"/>
    </g>
   </g>
   <g id="line2d_92">
    <defs>
     <path d="M 0 3.440594 
C 0.912456 3.440594 1.787663 3.078071 2.432867 2.432867 
C 3.078071 1.787663 3.440594 0.912456 3.440594 0 
C 3.440594 -0.912456 3.078071 -1.787663 2.432867 -2.432867 
C 1.787663 -3.078071 0.912456 -3.440594 0 -3.440594 
C -0.912456 -3.440594 -1.787663 -3.078071 -2.432867 -2.432867 
C -3.078071 -1.787663 -3.440594 -0.912456 -3.440594 0 
C -3.440594 0.912456 -3.078071 1.787663 -2.432867 2.432867 
C -1.787663 3.078071 -0.912456 3.440594 0 3.440594 
z
" id="m9de58620bf" style="stroke:#000000;stroke-width:0.25;"/>
    </defs>
    <g clip-path="url(#p47030f0bee)">
     <use style="fill:#bfbf00;stroke:#000000;stroke-width:0.25;" x="227.545056" xlink:href="#m9de58620bf" y="132.721762"/>
    </g>
   </g>
   <g id="line2d_93">
    <g clip-path="url(#p47030f0bee)">
     <use style="fill:#bfbf00;stroke:#000000;stroke-width:0.25;" x="219.607948" xlink:href="#m9de58620bf" y="146.660922"/>
    </g>
   </g>
   <g id="line2d_94">
    <g clip-path="url(#p47030f0bee)">
     <use style="fill:#bfbf00;stroke:#000000;stroke-width:0.25;" x="211.67084" xlink:href="#m9de58620bf" y="160.600081"/>
    </g>
   </g>
   <g id="line2d_95">
    <defs>
     <path d="M 0 2.691989 
C 0.713924 2.691989 1.398703 2.408344 1.903524 1.903524 
C 2.408344 1.398703 2.691989 0.713924 2.691989 0 
C 2.691989 -0.713924 2.408344 -1.398703 1.903524 -1.903524 
C 1.398703 -2.408344 0.713924 -2.691989 0 -2.691989 
C -0.713924 -2.691989 -1.398703 -2.408344 -1.903524 -1.903524 
C -2.408344 -1.398703 -2.691989 -0.713924 -2.691989 0 
C -2.691989 0.713924 -2.408344 1.398703 -1.903524 1.903524 
C -1.398703 2.408344 -0.713924 2.691989 0 2.691989 
z
" id="m2252867322" style="stroke:#000000;stroke-width:0.25;"/>
    </defs>
    <g clip-path="url(#p47030f0bee)">
     <use style="fill:#bfbf00;stroke:#000000;stroke-width:0.25;" x="195.235199" xlink:href="#m2252867322" y="124.318831"/>
    </g>
   </g>
   <g id="line2d_96">
    <g clip-path="url(#p47030f0bee)">
     <use style="fill:#bfbf00;stroke:#000000;stroke-width:0.25;" x="195.375555" xlink:href="#m2252867322" y="140.358723"/>
    </g>
   </g>
   <g id="line2d_97">
    <g clip-path="url(#p47030f0bee)">
     <use style="fill:#bfbf00;stroke:#000000;stroke-width:0.25;" x="195.515912" xlink:href="#m2252867322" y="156.398616"/>
    </g>
   </g>
   <g id="line2d_98">
    <defs>
     <path d="M 0 2.686948 
C 0.712587 2.686948 1.396084 2.403835 1.899959 1.899959 
C 2.403835 1.396084 2.686948 0.712587 2.686948 0 
C 2.686948 -0.712587 2.403835 -1.396084 1.899959 -1.899959 
C 1.396084 -2.403835 0.712587 -2.686948 0 -2.686948 
C -0.712587 -2.686948 -1.396084 -2.403835 -1.899959 -1.899959 
C -2.403835 -1.396084 -2.686948 -0.712587 -2.686948 0 
C -2.686948 0.712587 -2.403835 1.396084 -1.899959 1.899959 
C -1.396084 2.403835 -0.712587 2.686948 0 2.686948 
z
" id="m33471eb726" style="stroke:#000000;stroke-width:0.25;"/>
    </defs>
    <g clip-path="url(#p47030f0bee)">
     <use style="fill:#bfbf00;stroke:#000000;stroke-width:0.25;" x="148.534199" xlink:href="#m33471eb726" y="231.872277"/>
    </g>
   </g>
   <g id="line2d_99">
    <g clip-path="url(#p47030f0bee)">
     <use style="fill:#bfbf00;stroke:#000000;stroke-width:0.25;" x="160.349805" xlink:href="#m33471eb726" y="221.023808"/>
    </g>
   </g>
   <g id="line2d_100">
    <g clip-path="url(#p47030f0bee)">
     <use style="fill:#bfbf00;stroke:#000000;stroke-width:0.25;" x="172.165412" xlink:href="#m33471eb726" y="210.175339"/>
    </g>
   </g>
   <g id="line2d_101">
    <defs>
     <path d="M 0 2.409751 
C 0.639074 2.409751 1.252058 2.155845 1.703952 1.703952 
C 2.155845 1.252058 2.409751 0.639074 2.409751 0 
C 2.409751 -0.639074 2.155845 -1.252058 1.703952 -1.703952 
C 1.252058 -2.155845 0.639074 -2.409751 0 -2.409751 
C -0.639074 -2.409751 -1.252058 -2.155845 -1.703952 -1.703952 
C -2.155845 -1.252058 -2.409751 -0.639074 -2.409751 0 
C -2.409751 0.639074 -2.155845 1.252058 -1.703952 1.703952 
C -1.252058 2.155845 -0.639074 2.409751 0 2.409751 
z
" id="mdf1bcdc26d" style="stroke:#000000;stroke-width:0.25;"/>
    </defs>
    <g clip-path="url(#p47030f0bee)">
     <use style="fill:#bfbf00;stroke:#000000;stroke-width:0.25;" x="161.450956" xlink:href="#mdf1bcdc26d" y="242.673792"/>
    </g>
   </g>
   <g id="line2d_102">
    <g clip-path="url(#p47030f0bee)">
     <use style="fill:#bfbf00;stroke:#000000;stroke-width:0.25;" x="170.037373" xlink:href="#mdf1bcdc26d" y="229.124944"/>
    </g>
   </g>
   <g id="line2d_103">
    <g clip-path="url(#p47030f0bee)">
     <use style="fill:#bfbf00;stroke:#000000;stroke-width:0.25;" x="178.623791" xlink:href="#mdf1bcdc26d" y="215.576096"/>
    </g>
   </g>
   <g id="line2d_104">
    <defs>
     <path d="M 0 2.27508 
C 0.603358 2.27508 1.182086 2.035363 1.608725 1.608725 
C 2.035363 1.182086 2.27508 0.603358 2.27508 0 
C 2.27508 -0.603358 2.035363 -1.182086 1.608725 -1.608725 
C 1.182086 -2.035363 0.603358 -2.27508 0 -2.27508 
C -0.603358 -2.27508 -1.182086 -2.035363 -1.608725 -1.608725 
C -2.035363 -1.182086 -2.27508 -0.603358 -2.27508 0 
C -2.27508 0.603358 -2.035363 1.182086 -1.608725 1.608725 
C -1.182086 2.035363 -0.603358 2.27508 0 2.27508 
z
" id="mdefdd08947" style="stroke:#000000;stroke-width:0.25;"/>
    </defs>
    <g clip-path="url(#p47030f0bee)">
     <use style="fill:#bfbf00;stroke:#000000;stroke-width:0.25;" x="241.641436" xlink:href="#mdefdd08947" y="233.367361"/>
    </g>
   </g>
   <g id="line2d_105">
    <g clip-path="url(#p47030f0bee)">
     <use style="fill:#bfbf00;stroke:#000000;stroke-width:0.25;" x="230.180233" xlink:href="#mdefdd08947" y="222.145121"/>
    </g>
   </g>
   <g id="line2d_106">
    <g clip-path="url(#p47030f0bee)">
     <use style="fill:#bfbf00;stroke:#000000;stroke-width:0.25;" x="218.71903" xlink:href="#mdefdd08947" y="210.92288"/>
    </g>
   </g>
   <g id="line2d_107">
    <defs>
     <path d="M 0 1.632905 
C 0.433051 1.632905 0.848424 1.460852 1.154638 1.154638 
C 1.460852 0.848424 1.632905 0.433051 1.632905 0 
C 1.632905 -0.433051 1.460852 -0.848424 1.154638 -1.154638 
C 0.848424 -1.460852 0.433051 -1.632905 0 -1.632905 
C -0.433051 -1.632905 -0.848424 -1.460852 -1.154638 -1.154638 
C -1.460852 -0.848424 -1.632905 -0.433051 -1.632905 0 
C -1.632905 0.433051 -1.460852 0.848424 -1.154638 1.154638 
C -0.848424 1.460852 -0.433051 1.632905 0 1.632905 
z
" id="m47a8c330f2" style="stroke:#000000;stroke-width:0.75;"/>
    </defs>
    <g clip-path="url(#p47030f0bee)">
     <use style="fill:#f8756b;stroke:#000000;stroke-width:0.75;" x="211.946226" xlink:href="#m47a8c330f2" y="126.382057"/>
    </g>
   </g>
   <g id="line2d_108">
    <g clip-path="url(#p47030f0bee)">
     <use style="fill:#f8756b;stroke:#000000;stroke-width:0.75;" x="207.908826" xlink:href="#m47a8c330f2" y="141.906142"/>
    </g>
   </g>
   <g id="line2d_109">
    <defs>
     <path d="M 0 1.632905 
C 0.433051 1.632905 0.848424 1.460852 1.154638 1.154638 
C 1.460852 0.848424 1.632905 0.433051 1.632905 0 
C 1.632905 -0.433051 1.460852 -0.848424 1.154638 -1.154638 
C 0.848424 -1.460852 0.433051 -1.632905 0 -1.632905 
C -0.433051 -1.632905 -0.848424 -1.460852 -1.154638 -1.154638 
C -1.460852 -0.848424 -1.632905 -0.433051 -1.632905 0 
C -1.632905 0.433051 -1.460852 0.848424 -1.154638 1.154638 
C -0.848424 1.460852 -0.433051 1.632905 0 1.632905 
z
" id="m38421ddc92" style="stroke:#000000;stroke-width:0.25;"/>
    </defs>
    <g clip-path="url(#p47030f0bee)">
     <use style="fill:#bfbf00;stroke:#000000;stroke-width:0.25;" x="203.871426" xlink:href="#m38421ddc92" y="157.430228"/>
    </g>
   </g>
   <g id="line2d_110">
    <defs>
     <path d="M 0 2.680918 
C 0.710988 2.680918 1.392951 2.39844 1.895695 1.895695 
C 2.39844 1.392951 2.680918 0.710988 2.680918 0 
C 2.680918 -0.710988 2.39844 -1.392951 1.895695 -1.895695 
C 1.392951 -2.39844 0.710988 -2.680918 0 -2.680918 
C -0.710988 -2.680918 -1.392951 -2.39844 -1.895695 -1.895695 
C -2.39844 -1.392951 -2.680918 -0.710988 -2.680918 0 
C -2.680918 0.710988 -2.39844 1.392951 -1.895695 1.895695 
C -1.392951 2.39844 -0.710988 2.680918 0 2.680918 
z
" id="mdc9822a939" style="stroke:#000000;stroke-width:0.25;"/>
    </defs>
    <g clip-path="url(#p47030f0bee)">
     <use style="fill:#bfbf00;stroke:#000000;stroke-width:0.25;" x="250.172168" xlink:href="#mdc9822a939" y="154.418661"/>
    </g>
   </g>
   <g id="line2d_111">
    <defs>
     <path d="M 0 2.518177 
C 0.667828 2.518177 1.308394 2.252846 1.78062 1.78062 
C 2.252846 1.308394 2.518177 0.667828 2.518177 0 
C 2.518177 -0.667828 2.252846 -1.308394 1.78062 -1.78062 
C 1.308394 -2.252846 0.667828 -2.518177 0 -2.518177 
C -0.667828 -2.518177 -1.308394 -2.252846 -1.78062 -1.78062 
C -2.252846 -1.308394 -2.518177 -0.667828 -2.518177 0 
C -2.518177 0.667828 -2.252846 1.308394 -1.78062 1.78062 
C -1.308394 2.252846 -0.667828 2.518177 0 2.518177 
z
" id="m7da37323c5" style="stroke:#000000;stroke-width:0.25;"/>
    </defs>
    <g clip-path="url(#p47030f0bee)">
     <use style="fill:#bfbf00;stroke:#000000;stroke-width:0.25;" x="254.930718" xlink:href="#m7da37323c5" y="163.580115"/>
    </g>
   </g>
   <g id="line2d_112">
    <defs>
     <path d="M 0 2.19557 
C 0.582272 2.19557 1.140774 1.964231 1.552502 1.552502 
C 1.964231 1.140774 2.19557 0.582272 2.19557 0 
C 2.19557 -0.582272 1.964231 -1.140774 1.552502 -1.552502 
C 1.140774 -1.964231 0.582272 -2.19557 0 -2.19557 
C -0.582272 -2.19557 -1.140774 -1.964231 -1.552502 -1.552502 
C -1.964231 -1.140774 -2.19557 -0.582272 -2.19557 0 
C -2.19557 0.582272 -1.964231 1.140774 -1.552502 1.552502 
C -1.140774 1.964231 -0.582272 2.19557 0 2.19557 
z
" id="m2f5b721e1e" style="stroke:#000000;stroke-width:0.25;"/>
    </defs>
    <g clip-path="url(#p47030f0bee)">
     <use style="fill:#bfbf00;stroke:#000000;stroke-width:0.25;" x="247.255842" xlink:href="#m2f5b721e1e" y="150.15459"/>
    </g>
   </g>
   <g id="line2d_113">
    <defs>
     <path d="M 0 3.559721 
C 0.944049 3.559721 1.849559 3.184646 2.517103 2.517103 
C 3.184646 1.849559 3.559721 0.944049 3.559721 0 
C 3.559721 -0.944049 3.184646 -1.849559 2.517103 -2.517103 
C 1.849559 -3.184646 0.944049 -3.559721 0 -3.559721 
C -0.944049 -3.559721 -1.849559 -3.184646 -2.517103 -2.517103 
C -3.184646 -1.849559 -3.559721 -0.944049 -3.559721 0 
C -3.559721 0.944049 -3.184646 1.849559 -2.517103 2.517103 
C -1.849559 3.184646 -0.944049 3.559721 0 3.559721 
z
" id="m5115ecb8f9" style="stroke:#000000;stroke-width:0.75;"/>
    </defs>
    <g clip-path="url(#p47030f0bee)">
     <use style="fill:#f8756b;stroke:#000000;stroke-width:0.75;" x="252.736" xlink:href="#m5115ecb8f9" y="158.903527"/>
    </g>
   </g>
   <g id="line2d_114">
    <defs>
     <path d="M 0 3.565003 
C 0.94545 3.565003 1.852304 3.189372 2.520838 2.520838 
C 3.189372 1.852304 3.565003 0.94545 3.565003 0 
C 3.565003 -0.94545 3.189372 -1.852304 2.520838 -2.520838 
C 1.852304 -3.189372 0.94545 -3.565003 0 -3.565003 
C -0.94545 -3.565003 -1.852304 -3.189372 -2.520838 -2.520838 
C -3.189372 -1.852304 -3.565003 -0.94545 -3.565003 0 
C -3.565003 0.94545 -3.189372 1.852304 -2.520838 2.520838 
C -1.852304 3.189372 -0.94545 3.565003 0 3.565003 
z
" id="m56c7975539" style="stroke:#000000;stroke-width:0.75;"/>
    </defs>
    <g clip-path="url(#p47030f0bee)">
     <use style="fill:#f8756b;stroke:#000000;stroke-width:0.75;" x="237.222248" xlink:href="#m56c7975539" y="163.991703"/>
    </g>
   </g>
   <g id="line2d_115">
    <defs>
     <path d="M 0 3.264741 
C 0.865819 3.264741 1.696294 2.920747 2.308521 2.308521 
C 2.920747 1.696294 3.264741 0.865819 3.264741 0 
C 3.264741 -0.865819 2.920747 -1.696294 2.308521 -2.308521 
C 1.696294 -2.920747 0.865819 -3.264741 0 -3.264741 
C -0.865819 -3.264741 -1.696294 -2.920747 -2.308521 -2.308521 
C -2.920747 -1.696294 -3.264741 -0.865819 -3.264741 0 
C -3.264741 0.865819 -2.920747 1.696294 -2.308521 2.308521 
C -1.696294 2.920747 -0.865819 3.264741 0 3.264741 
z
" id="m03ae18431a" style="stroke:#000000;stroke-width:0.75;"/>
    </defs>
    <g clip-path="url(#p47030f0bee)">
     <use style="fill:#f8756b;stroke:#000000;stroke-width:0.75;" x="240.957419" xlink:href="#m03ae18431a" y="142.901342"/>
    </g>
   </g>
   <g id="line2d_116">
    <g clip-path="url(#p47030f0bee)">
     <use style="fill:#f8756b;stroke:#000000;stroke-width:0.75;" x="229.667221" xlink:href="#m03ae18431a" y="154.295607"/>
    </g>
   </g>
   <g id="line2d_117">
    <defs>
     <path d="M 0 3.611902 
C 0.957888 3.611902 1.876672 3.231329 2.554 2.554 
C 3.231329 1.876672 3.611902 0.957888 3.611902 0 
C 3.611902 -0.957888 3.231329 -1.876672 2.554 -2.554 
C 1.876672 -3.231329 0.957888 -3.611902 0 -3.611902 
C -0.957888 -3.611902 -1.876672 -3.231329 -2.554 -2.554 
C -3.231329 -1.876672 -3.611902 -0.957888 -3.611902 0 
C -3.611902 0.957888 -3.231329 1.876672 -2.554 2.554 
C -1.876672 3.231329 -0.957888 3.611902 0 3.611902 
z
" id="m770fed7028" style="stroke:#000000;stroke-width:0.75;"/>
    </defs>
    <g clip-path="url(#p47030f0bee)">
     <use style="fill:#f8756b;stroke:#000000;stroke-width:0.75;" x="221.032933" xlink:href="#m770fed7028" y="168.671328"/>
    </g>
   </g>
   <g id="line2d_118">
    <defs>
     <path d="M 0 3.189025 
C 0.845739 3.189025 1.656953 2.853009 2.254981 2.254981 
C 2.853009 1.656953 3.189025 0.845739 3.189025 0 
C 3.189025 -0.845739 2.853009 -1.656953 2.254981 -2.254981 
C 1.656953 -2.853009 0.845739 -3.189025 0 -3.189025 
C -0.845739 -3.189025 -1.656953 -2.853009 -2.254981 -2.254981 
C -2.853009 -1.656953 -3.189025 -0.845739 -3.189025 0 
C -3.189025 0.845739 -2.853009 1.656953 -2.254981 2.254981 
C -1.656953 2.853009 -0.845739 3.189025 0 3.189025 
z
" id="m2a9785e354" style="stroke:#000000;stroke-width:0.25;"/>
    </defs>
    <g clip-path="url(#p47030f0bee)">
     <use style="fill:#bfbf00;stroke:#000000;stroke-width:0.25;" x="140.110249" xlink:href="#m2a9785e354" y="220.349908"/>
    </g>
   </g>
   <g id="line2d_119">
    <defs>
     <path d="M 0 2.84977 
C 0.755768 2.84977 1.480683 2.549501 2.015092 2.015092 
C 2.549501 1.480683 2.84977 0.755768 2.84977 0 
C 2.84977 -0.755768 2.549501 -1.480683 2.015092 -2.015092 
C 1.480683 -2.549501 0.755768 -2.84977 0 -2.84977 
C -0.755768 -2.84977 -1.480683 -2.549501 -2.015092 -2.015092 
C -2.549501 -1.480683 -2.84977 -0.755768 -2.84977 0 
C -2.84977 0.755768 -2.549501 1.480683 -2.015092 2.015092 
C -1.480683 2.549501 -0.755768 2.84977 0 2.84977 
z
" id="m1f35bc2516" style="stroke:#000000;stroke-width:0.25;"/>
    </defs>
    <g clip-path="url(#p47030f0bee)">
     <use style="fill:#bfbf00;stroke:#000000;stroke-width:0.25;" x="137.726708" xlink:href="#m1f35bc2516" y="215.766679"/>
    </g>
   </g>
   <g id="line2d_120">
    <defs>
     <path d="M 0 3.20762 
C 0.850671 3.20762 1.666615 2.869645 2.26813 2.26813 
C 2.869645 1.666615 3.20762 0.850671 3.20762 0 
C 3.20762 -0.850671 2.869645 -1.666615 2.26813 -2.26813 
C 1.666615 -2.869645 0.850671 -3.20762 0 -3.20762 
C -0.850671 -3.20762 -1.666615 -2.869645 -2.26813 -2.26813 
C -2.869645 -1.666615 -3.20762 -0.850671 -3.20762 0 
C -3.20762 0.850671 -2.869645 1.666615 -2.26813 2.26813 
C -1.666615 2.869645 -0.850671 3.20762 0 3.20762 
z
" id="m385282ced8" style="stroke:#000000;stroke-width:0.25;"/>
    </defs>
    <g clip-path="url(#p47030f0bee)">
     <use style="fill:#bfbf00;stroke:#000000;stroke-width:0.25;" x="153.430443" xlink:href="#m385282ced8" y="211.299163"/>
    </g>
   </g>
   <g id="line2d_121">
    <defs>
     <path d="M 0 1.529696 
C 0.40568 1.529696 0.794799 1.368517 1.081658 1.081658 
C 1.368517 0.794799 1.529696 0.40568 1.529696 0 
C 1.529696 -0.40568 1.368517 -0.794799 1.081658 -1.081658 
C 0.794799 -1.368517 0.40568 -1.529696 0 -1.529696 
C -0.40568 -1.529696 -0.794799 -1.368517 -1.081658 -1.081658 
C -1.368517 -0.794799 -1.529696 -0.40568 -1.529696 0 
C -1.529696 0.40568 -1.368517 0.794799 -1.081658 1.081658 
C -0.794799 1.368517 -0.40568 1.529696 0 1.529696 
z
" id="mdcc3712d66" style="stroke:#000000;stroke-width:0.25;"/>
    </defs>
    <g clip-path="url(#p47030f0bee)">
     <use style="fill:#bfbf00;stroke:#000000;stroke-width:0.25;" x="133.029525" xlink:href="#mdcc3712d66" y="201.784666"/>
    </g>
   </g>
   <g id="line2d_122">
    <g clip-path="url(#p47030f0bee)">
     <use style="fill:#bfbf00;stroke:#000000;stroke-width:0.25;" x="148.7213" xlink:href="#mdcc3712d66" y="198.458099"/>
    </g>
   </g>
   <g id="line2d_123">
    <defs>
     <path d="M 0 3.045223 
C 0.807603 3.045223 1.582237 2.724359 2.153298 2.153298 
C 2.724359 1.582237 3.045223 0.807603 3.045223 0 
C 3.045223 -0.807603 2.724359 -1.582237 2.153298 -2.153298 
C 1.582237 -2.724359 0.807603 -3.045223 0 -3.045223 
C -0.807603 -3.045223 -1.582237 -2.724359 -2.153298 -2.153298 
C -2.724359 -1.582237 -3.045223 -0.807603 -3.045223 0 
C -3.045223 0.807603 -2.724359 1.582237 -2.153298 2.153298 
C -1.582237 2.724359 -0.807603 3.045223 0 3.045223 
z
" id="m219695036a" style="stroke:#000000;stroke-width:0.25;"/>
    </defs>
    <g clip-path="url(#p47030f0bee)">
     <use style="fill:#bfbf00;stroke:#000000;stroke-width:0.25;" x="171.240363" xlink:href="#m219695036a" y="129.201461"/>
    </g>
   </g>
   <g id="line2d_124">
    <defs>
     <path d="M 0 2.291142 
C 0.607618 2.291142 1.190431 2.049733 1.620082 1.620082 
C 2.049733 1.190431 2.291142 0.607618 2.291142 0 
C 2.291142 -0.607618 2.049733 -1.190431 1.620082 -1.620082 
C 1.190431 -2.049733 0.607618 -2.291142 0 -2.291142 
C -0.607618 -2.291142 -1.190431 -2.049733 -1.620082 -1.620082 
C -2.049733 -1.190431 -2.291142 -0.607618 -2.291142 0 
C -2.291142 0.607618 -2.049733 1.190431 -1.620082 1.620082 
C -1.190431 2.049733 -0.607618 2.291142 0 2.291142 
z
" id="m23646e8871" style="stroke:#000000;stroke-width:0.25;"/>
    </defs>
    <g clip-path="url(#p47030f0bee)">
     <use style="fill:#bfbf00;stroke:#000000;stroke-width:0.25;" x="157.770725" xlink:href="#m23646e8871" y="136.798651"/>
    </g>
   </g>
   <g id="line2d_125">
    <defs>
     <path d="M 0 2.035478 
C 0.539815 2.035478 1.057593 1.821007 1.4393 1.4393 
C 1.821007 1.057593 2.035478 0.539815 2.035478 0 
C 2.035478 -0.539815 1.821007 -1.057593 1.4393 -1.4393 
C 1.057593 -1.821007 0.539815 -2.035478 0 -2.035478 
C -0.539815 -2.035478 -1.057593 -1.821007 -1.4393 -1.4393 
C -1.821007 -1.057593 -2.035478 -0.539815 -2.035478 0 
C -2.035478 0.539815 -1.821007 1.057593 -1.4393 1.4393 
C -1.057593 1.821007 -0.539815 2.035478 0 2.035478 
z
" id="md7b441ae90" style="stroke:#000000;stroke-width:0.25;"/>
    </defs>
    <g clip-path="url(#p47030f0bee)">
     <use style="fill:#bfbf00;stroke:#000000;stroke-width:0.25;" x="162.051572" xlink:href="#md7b441ae90" y="133.907007"/>
    </g>
   </g>
   <g id="line2d_126">
    <defs>
     <path d="M 0 1.452485 
C 0.385204 1.452485 0.754682 1.299442 1.027062 1.027062 
C 1.299442 0.754682 1.452485 0.385204 1.452485 0 
C 1.452485 -0.385204 1.299442 -0.754682 1.027062 -1.027062 
C 0.754682 -1.299442 0.385204 -1.452485 0 -1.452485 
C -0.385204 -1.452485 -0.754682 -1.299442 -1.027062 -1.027062 
C -1.299442 -0.754682 -1.452485 -0.385204 -1.452485 0 
C -1.452485 0.385204 -1.299442 0.754682 -1.027062 1.027062 
C -0.754682 1.299442 -0.385204 1.452485 0 1.452485 
z
" id="m8c74932230" style="stroke:#000000;stroke-width:0.25;"/>
    </defs>
    <g clip-path="url(#p47030f0bee)">
     <use style="fill:#bfbf00;stroke:#000000;stroke-width:0.25;" x="176.088739" xlink:href="#m8c74932230" y="127.418063"/>
    </g>
   </g>
   <g id="line2d_127">
    <defs>
     <path d="M 0 3.270327 
C 0.867301 3.270327 1.699196 2.925744 2.31247 2.31247 
C 2.925744 1.699196 3.270327 0.867301 3.270327 0 
C 3.270327 -0.867301 2.925744 -1.699196 2.31247 -2.31247 
C 1.699196 -2.925744 0.867301 -3.270327 0 -3.270327 
C -0.867301 -3.270327 -1.699196 -2.925744 -2.31247 -2.31247 
C -2.925744 -1.699196 -3.270327 -0.867301 -3.270327 0 
C -3.270327 0.867301 -2.925744 1.699196 -2.31247 2.31247 
C -1.699196 2.925744 -0.867301 3.270327 0 3.270327 
z
" id="m8d6a7afd30" style="stroke:#000000;stroke-width:0.75;"/>
    </defs>
    <g clip-path="url(#p47030f0bee)">
     <use style="fill:#f8756b;stroke:#000000;stroke-width:0.75;" x="166.551175" xlink:href="#m8d6a7afd30" y="131.369126"/>
    </g>
   </g>
   <g id="line2d_128">
    <defs>
     <path d="M 0 3.335365 
C 0.884549 3.335365 1.732989 2.98393 2.358459 2.358459 
C 2.98393 1.732989 3.335365 0.884549 3.335365 0 
C 3.335365 -0.884549 2.98393 -1.732989 2.358459 -2.358459 
C 1.732989 -2.98393 0.884549 -3.335365 0 -3.335365 
C -0.884549 -3.335365 -1.732989 -2.98393 -2.358459 -2.358459 
C -2.98393 -1.732989 -3.335365 -0.884549 -3.335365 0 
C -3.335365 0.884549 -2.98393 1.732989 -2.358459 2.358459 
C -1.732989 2.98393 -0.884549 3.335365 0 3.335365 
z
" id="mc7215d4b9d" style="stroke:#000000;stroke-width:0.75;"/>
    </defs>
    <g clip-path="url(#p47030f0bee)">
     <use style="fill:#f8756b;stroke:#000000;stroke-width:0.75;" x="173.242649" xlink:href="#mc7215d4b9d" y="145.969592"/>
    </g>
   </g>
   <g id="line2d_129">
    <defs>
     <path d="M 0 3.030683 
C 0.803746 3.030683 1.574682 2.711351 2.143016 2.143016 
C 2.711351 1.574682 3.030683 0.803746 3.030683 0 
C 3.030683 -0.803746 2.711351 -1.574682 2.143016 -2.143016 
C 1.574682 -2.711351 0.803746 -3.030683 0 -3.030683 
C -0.803746 -3.030683 -1.574682 -2.711351 -2.143016 -2.143016 
C -2.711351 -1.574682 -3.030683 -0.803746 -3.030683 0 
C -3.030683 0.803746 -2.711351 1.574682 -2.143016 2.143016 
C -1.574682 2.711351 -0.803746 3.030683 0 3.030683 
z
" id="ma274719df5" style="stroke:#000000;stroke-width:0.25;"/>
    </defs>
    <g clip-path="url(#p47030f0bee)">
     <use style="fill:#bfbf00;stroke:#000000;stroke-width:0.25;" x="131.746404" xlink:href="#ma274719df5" y="192.264512"/>
    </g>
   </g>
   <g id="line2d_130">
    <defs>
     <path d="M 0 2.990151 
C 0.792997 2.990151 1.553622 2.67509 2.114356 2.114356 
C 2.67509 1.553622 2.990151 0.792997 2.990151 0 
C 2.990151 -0.792997 2.67509 -1.553622 2.114356 -2.114356 
C 1.553622 -2.67509 0.792997 -2.990151 0 -2.990151 
C -0.792997 -2.990151 -1.553622 -2.67509 -2.114356 -2.114356 
C -2.67509 -1.553622 -2.990151 -0.792997 -2.990151 0 
C -2.990151 0.792997 -2.67509 1.553622 -2.114356 2.114356 
C -1.553622 2.67509 -0.792997 2.990151 0 2.990151 
z
" id="m697dda17a4" style="stroke:#000000;stroke-width:0.25;"/>
    </defs>
    <g clip-path="url(#p47030f0bee)">
     <use style="fill:#bfbf00;stroke:#000000;stroke-width:0.25;" x="148.689331" xlink:href="#m697dda17a4" y="144.916164"/>
    </g>
   </g>
   <g id="line2d_131">
    <defs>
     <path d="M 0 2.88907 
C 0.76619 2.88907 1.501103 2.584659 2.042881 2.042881 
C 2.584659 1.501103 2.88907 0.76619 2.88907 0 
C 2.88907 -0.76619 2.584659 -1.501103 2.042881 -2.042881 
C 1.501103 -2.584659 0.76619 -2.88907 0 -2.88907 
C -0.76619 -2.88907 -1.501103 -2.584659 -2.042881 -2.042881 
C -2.584659 -1.501103 -2.88907 -0.76619 -2.88907 0 
C -2.88907 0.76619 -2.584659 1.501103 -2.042881 2.042881 
C -1.501103 2.584659 -0.76619 2.88907 0 2.88907 
z
" id="mad6cd91e85" style="stroke:#000000;stroke-width:0.25;"/>
    </defs>
    <g clip-path="url(#p47030f0bee)">
     <use style="fill:#bfbf00;stroke:#000000;stroke-width:0.25;" x="132.700902" xlink:href="#mad6cd91e85" y="176.829572"/>
    </g>
   </g>
   <g id="line2d_132">
    <defs>
     <path d="M 0 2.833584 
C 0.751475 2.833584 1.472273 2.535019 2.003646 2.003646 
C 2.535019 1.472273 2.833584 0.751475 2.833584 0 
C 2.833584 -0.751475 2.535019 -1.472273 2.003646 -2.003646 
C 1.472273 -2.535019 0.751475 -2.833584 0 -2.833584 
C -0.751475 -2.833584 -1.472273 -2.535019 -2.003646 -2.003646 
C -2.535019 -1.472273 -2.833584 -0.751475 -2.833584 0 
C -2.833584 0.751475 -2.535019 1.472273 -2.003646 2.003646 
C -1.472273 2.535019 -0.751475 2.833584 0 2.833584 
z
" id="m9213d7eb47" style="stroke:#000000;stroke-width:0.25;"/>
    </defs>
    <g clip-path="url(#p47030f0bee)">
     <use style="fill:#bfbf00;stroke:#000000;stroke-width:0.25;" x="142.31272" xlink:href="#m9213d7eb47" y="153.034961"/>
    </g>
   </g>
   <g id="line2d_133">
    <defs>
     <path d="M 0 2.512046 
C 0.666202 2.512046 1.305208 2.247361 1.776285 1.776285 
C 2.247361 1.305208 2.512046 0.666202 2.512046 0 
C 2.512046 -0.666202 2.247361 -1.305208 1.776285 -1.776285 
C 1.305208 -2.247361 0.666202 -2.512046 0 -2.512046 
C -0.666202 -2.512046 -1.305208 -2.247361 -1.776285 -1.776285 
C -2.247361 -1.305208 -2.512046 -0.666202 -2.512046 0 
C -2.512046 0.666202 -2.247361 1.305208 -1.776285 1.776285 
C -1.305208 2.247361 -0.666202 2.512046 0 2.512046 
z
" id="m132c69fa0a" style="stroke:#000000;stroke-width:0.25;"/>
    </defs>
    <g clip-path="url(#p47030f0bee)">
     <use style="fill:#bfbf00;stroke:#000000;stroke-width:0.25;" x="135.385825" xlink:href="#m132c69fa0a" y="166.861261"/>
    </g>
   </g>
   <g id="line2d_134">
    <defs>
     <path d="M 0 2.110912 
C 0.55982 2.110912 1.096788 1.888493 1.49264 1.49264 
C 1.888493 1.096788 2.110912 0.55982 2.110912 0 
C 2.110912 -0.55982 1.888493 -1.096788 1.49264 -1.49264 
C 1.096788 -1.888493 0.55982 -2.110912 0 -2.110912 
C -0.55982 -2.110912 -1.096788 -1.888493 -1.49264 -1.49264 
C -1.888493 -1.096788 -2.110912 -0.55982 -2.110912 0 
C -2.110912 0.55982 -1.888493 1.096788 -1.49264 1.49264 
C -1.096788 1.888493 -0.55982 2.110912 0 2.110912 
z
" id="m6b63c634bd" style="stroke:#000000;stroke-width:0.25;"/>
    </defs>
    <g clip-path="url(#p47030f0bee)">
     <use style="fill:#bfbf00;stroke:#000000;stroke-width:0.25;" x="131.649419" xlink:href="#m6b63c634bd" y="187.099451"/>
    </g>
   </g>
   <g id="line2d_135">
    <defs>
     <path d="M 0 1.799131 
C 0.477135 1.799131 0.934792 1.609564 1.272178 1.272178 
C 1.609564 0.934792 1.799131 0.477135 1.799131 0 
C 1.799131 -0.477135 1.609564 -0.934792 1.272178 -1.272178 
C 0.934792 -1.609564 0.477135 -1.799131 0 -1.799131 
C -0.477135 -1.799131 -0.934792 -1.609564 -1.272178 -1.272178 
C -1.609564 -0.934792 -1.799131 -0.477135 -1.799131 0 
C -1.799131 0.477135 -1.609564 0.934792 -1.272178 1.272178 
C -0.934792 1.609564 -0.477135 1.799131 0 1.799131 
z
" id="m34d45ef4e8" style="stroke:#000000;stroke-width:0.25;"/>
    </defs>
    <g clip-path="url(#p47030f0bee)">
     <use style="fill:#bfbf00;stroke:#000000;stroke-width:0.25;" x="145.337473" xlink:href="#m34d45ef4e8" y="148.847106"/>
    </g>
   </g>
   <g id="line2d_136">
    <defs>
     <path d="M 0 1.582783 
C 0.419759 1.582783 0.822382 1.416011 1.119196 1.119196 
C 1.416011 0.822382 1.582783 0.419759 1.582783 0 
C 1.582783 -0.419759 1.416011 -0.822382 1.119196 -1.119196 
C 0.822382 -1.416011 0.419759 -1.582783 0 -1.582783 
C -0.419759 -1.582783 -0.822382 -1.416011 -1.119196 -1.119196 
C -1.416011 -0.822382 -1.582783 -0.419759 -1.582783 0 
C -1.582783 0.419759 -1.416011 0.822382 -1.119196 1.119196 
C -0.822382 1.416011 -0.419759 1.582783 0 1.582783 
z
" id="m8b815f873d" style="stroke:#000000;stroke-width:0.25;"/>
    </defs>
    <g clip-path="url(#p47030f0bee)">
     <use style="fill:#bfbf00;stroke:#000000;stroke-width:0.25;" x="139.63468" xlink:href="#m8b815f873d" y="157.452581"/>
    </g>
   </g>
   <g id="line2d_137">
    <defs>
     <path d="M 0 3.174862 
C 0.841983 3.174862 1.649594 2.840339 2.244967 2.244967 
C 2.840339 1.649594 3.174862 0.841983 3.174862 0 
C 3.174862 -0.841983 2.840339 -1.649594 2.244967 -2.244967 
C 1.649594 -2.840339 0.841983 -3.174862 0 -3.174862 
C -0.841983 -3.174862 -1.649594 -2.840339 -2.244967 -2.244967 
C -2.840339 -1.649594 -3.174862 -0.841983 -3.174862 0 
C -3.174862 0.841983 -2.840339 1.649594 -2.244967 2.244967 
C -1.649594 2.840339 -0.841983 3.174862 0 3.174862 
z
" id="m0be00040c1" style="stroke:#000000;stroke-width:0.75;"/>
    </defs>
    <g clip-path="url(#p47030f0bee)">
     <use style="fill:#00bec6;stroke:#000000;stroke-width:0.75;" x="137.320715" xlink:href="#m0be00040c1" y="162.071328"/>
    </g>
   </g>
   <g id="line2d_138">
    <defs>
     <path d="M 0 3.593967 
C 0.953131 3.593967 1.867353 3.215284 2.541318 2.541318 
C 3.215284 1.867353 3.593967 0.953131 3.593967 0 
C 3.593967 -0.953131 3.215284 -1.867353 2.541318 -2.541318 
C 1.867353 -3.215284 0.953131 -3.593967 0 -3.593967 
C -0.953131 -3.593967 -1.867353 -3.215284 -2.541318 -2.541318 
C -3.215284 -1.867353 -3.593967 -0.953131 -3.593967 0 
C -3.593967 0.953131 -3.215284 1.867353 -2.541318 2.541318 
C -1.867353 3.215284 -0.953131 3.593967 0 3.593967 
z
" id="m327131c608" style="stroke:#000000;stroke-width:0.75;"/>
    </defs>
    <g clip-path="url(#p47030f0bee)">
     <use style="fill:#00bec6;stroke:#000000;stroke-width:0.75;" x="133.842552" xlink:href="#m327131c608" y="171.791329"/>
    </g>
   </g>
   <g id="line2d_139">
    <defs>
     <path d="M 0 3.72845 
C 0.988797 3.72845 1.937228 3.335597 2.636412 2.636412 
C 3.335597 1.937228 3.72845 0.988797 3.72845 0 
C 3.72845 -0.988797 3.335597 -1.937228 2.636412 -2.636412 
C 1.937228 -3.335597 0.988797 -3.72845 0 -3.72845 
C -0.988797 -3.72845 -1.937228 -3.335597 -2.636412 -2.636412 
C -3.335597 -1.937228 -3.72845 -0.988797 -3.72845 0 
C -3.72845 0.988797 -3.335597 1.937228 -2.636412 2.636412 
C -1.937228 3.335597 -0.988797 3.72845 0 3.72845 
z
" id="mb82f2b485d" style="stroke:#000000;stroke-width:0.75;"/>
    </defs>
    <g clip-path="url(#p47030f0bee)">
     <use style="fill:#00bec6;stroke:#000000;stroke-width:0.75;" x="131.968274" xlink:href="#mb82f2b485d" y="181.94333"/>
    </g>
   </g>
   <g id="line2d_140">
    <defs>
     <path d="M 0 3.841485 
C 1.018774 3.841485 1.995958 3.436722 2.71634 2.71634 
C 3.436722 1.995958 3.841485 1.018774 3.841485 0 
C 3.841485 -1.018774 3.436722 -1.995958 2.71634 -2.71634 
C 1.995958 -3.436722 1.018774 -3.841485 0 -3.841485 
C -1.018774 -3.841485 -1.995958 -3.436722 -2.71634 -2.71634 
C -3.436722 -1.995958 -3.841485 -1.018774 -3.841485 0 
C -3.841485 1.018774 -3.436722 1.995958 -2.71634 2.71634 
C -1.995958 3.436722 -1.018774 3.841485 0 3.841485 
z
" id="m5f3a2e34c7" style="stroke:#000000;stroke-width:0.75;"/>
    </defs>
    <g clip-path="url(#p47030f0bee)">
     <use style="fill:#00bec6;stroke:#000000;stroke-width:0.75;" x="150.257788" xlink:href="#m5f3a2e34c7" y="172.925429"/>
    </g>
   </g>
   <g id="line2d_141">
    <defs>
     <path d="M 0 3.862027 
C 1.024222 3.862027 2.006632 3.4551 2.730866 2.730866 
C 3.4551 2.006632 3.862027 1.024222 3.862027 0 
C 3.862027 -1.024222 3.4551 -2.006632 2.730866 -2.730866 
C 2.006632 -3.4551 1.024222 -3.862027 0 -3.862027 
C -1.024222 -3.862027 -2.006632 -3.4551 -2.730866 -2.730866 
C -3.4551 -2.006632 -3.862027 -1.024222 -3.862027 0 
C -3.862027 1.024222 -3.4551 2.006632 -2.730866 2.730866 
C -2.006632 3.4551 -1.024222 3.862027 0 3.862027 
z
" id="m28d72e92b5" style="stroke:#000000;stroke-width:0.75;"/>
    </defs>
    <g clip-path="url(#p47030f0bee)">
     <use style="fill:#00bec6;stroke:#000000;stroke-width:0.75;" x="165.327301" xlink:href="#m28d72e92b5" y="178.437899"/>
    </g>
   </g>
   <g id="line2d_142">
    <defs>
     <path d="M 0 1.778818 
C 0.471748 1.778818 0.924238 1.59139 1.257814 1.257814 
C 1.59139 0.924238 1.778818 0.471748 1.778818 0 
C 1.778818 -0.471748 1.59139 -0.924238 1.257814 -1.257814 
C 0.924238 -1.59139 0.471748 -1.778818 0 -1.778818 
C -0.471748 -1.778818 -0.924238 -1.59139 -1.257814 -1.257814 
C -1.59139 -0.924238 -1.778818 -0.471748 -1.778818 0 
C -1.778818 0.471748 -1.59139 0.924238 -1.257814 1.257814 
C -0.924238 1.59139 -0.471748 1.778818 0 1.778818 
z
" id="m2b2214a513" style="stroke:#000000;stroke-width:0.25;"/>
    </defs>
    <g clip-path="url(#p47030f0bee)">
     <use style="fill:#bfbf00;stroke:#000000;stroke-width:0.25;" x="251.741076" xlink:href="#m2b2214a513" y="219.894699"/>
    </g>
   </g>
   <g id="line2d_143">
    <g clip-path="url(#p47030f0bee)">
     <use style="fill:#bfbf00;stroke:#000000;stroke-width:0.25;" x="237.754963" xlink:href="#m2b2214a513" y="212.040625"/>
    </g>
   </g>
   <g id="line2d_144">
    <defs>
     <path d="M 0 3.391592 
C 0.899461 3.391592 1.762203 3.034233 2.398218 2.398218 
C 3.034233 1.762203 3.391592 0.899461 3.391592 0 
C 3.391592 -0.899461 3.034233 -1.762203 2.398218 -2.398218 
C 1.762203 -3.034233 0.899461 -3.391592 0 -3.391592 
C -0.899461 -3.391592 -1.762203 -3.034233 -2.398218 -2.398218 
C -3.034233 -1.762203 -3.391592 -0.899461 -3.391592 0 
C -3.391592 0.899461 -3.034233 1.762203 -2.398218 2.398218 
C -1.762203 3.034233 -0.899461 3.391592 0 3.391592 
z
" id="me7c0744c18" style="stroke:#000000;stroke-width:0.75;"/>
    </defs>
    <g clip-path="url(#p47030f0bee)">
     <use style="fill:#f8756b;stroke:#000000;stroke-width:0.75;" x="256.67013" xlink:href="#me7c0744c18" y="208.756021"/>
    </g>
   </g>
   <g id="line2d_145">
    <g clip-path="url(#p47030f0bee)">
     <use style="fill:#f8756b;stroke:#000000;stroke-width:0.75;" x="241.451754" xlink:href="#me7c0744c18" y="203.686616"/>
    </g>
   </g>
   <g id="line2d_146">
    <defs>
     <path d="M 0 3.391705 
C 0.899491 3.391705 1.762262 3.034334 2.398298 2.398298 
C 3.034334 1.762262 3.391705 0.899491 3.391705 0 
C 3.391705 -0.899491 3.034334 -1.762262 2.398298 -2.398298 
C 1.762262 -3.034334 0.899491 -3.391705 0 -3.391705 
C -0.899491 -3.391705 -1.762262 -3.034334 -2.398298 -2.398298 
C -3.034334 -1.762262 -3.391705 -0.899491 -3.391705 0 
C -3.391705 0.899491 -3.034334 1.762262 -2.398298 2.398298 
C -1.762262 3.034334 -0.899491 3.391705 0 3.391705 
z
" id="md2ea3a3e19" style="stroke:#000000;stroke-width:0.75;"/>
    </defs>
    <g clip-path="url(#p47030f0bee)">
     <use style="fill:#f8756b;stroke:#000000;stroke-width:0.75;" x="226.195266" xlink:href="#md2ea3a3e19" y="198.730911"/>
    </g>
   </g>
   <g id="line2d_147">
    <defs>
     <path d="M 0 3.952485 
C 1.048211 3.952485 2.053632 3.536026 2.794829 2.794829 
C 3.536026 2.053632 3.952485 1.048211 3.952485 0 
C 3.952485 -1.048211 3.536026 -2.053632 2.794829 -2.794829 
C 2.053632 -3.536026 1.048211 -3.952485 0 -3.952485 
C -1.048211 -3.952485 -2.053632 -3.536026 -2.794829 -2.794829 
C -3.536026 -2.053632 -3.952485 -1.048211 -3.952485 0 
C -3.952485 1.048211 -3.536026 2.053632 -2.794829 2.794829 
C -2.053632 3.536026 -1.048211 3.952485 0 3.952485 
z
" id="m781e2e3430" style="stroke:#000000;stroke-width:0.25;"/>
    </defs>
    <g clip-path="url(#p47030f0bee)">
     <use style="fill:#bfbf00;stroke:#000000;stroke-width:0.25;" x="179.906575" xlink:href="#m781e2e3430" y="190.670242"/>
    </g>
   </g>
   <g id="line2d_148">
    <defs>
     <path d="M 0 2.81464 
C 0.746451 2.81464 1.46243 2.518072 1.990251 1.990251 
C 2.518072 1.46243 2.81464 0.746451 2.81464 0 
C 2.81464 -0.746451 2.518072 -1.46243 1.990251 -1.990251 
C 1.46243 -2.518072 0.746451 -2.81464 0 -2.81464 
C -0.746451 -2.81464 -1.46243 -2.518072 -1.990251 -1.990251 
C -2.518072 -1.46243 -2.81464 -0.746451 -2.81464 0 
C -2.81464 0.746451 -2.518072 1.46243 -1.990251 1.990251 
C -1.46243 2.518072 -0.746451 2.81464 0 2.81464 
z
" id="m1080cea90a" style="stroke:#000000;stroke-width:0.25;"/>
    </defs>
    <g clip-path="url(#p47030f0bee)">
     <use style="fill:#bfbf00;stroke:#000000;stroke-width:0.25;" x="259.906637" xlink:href="#m1080cea90a" y="185.895414"/>
    </g>
   </g>
   <g id="line2d_149">
    <g clip-path="url(#p47030f0bee)">
     <use style="fill:#bfbf00;stroke:#000000;stroke-width:0.25;" x="243.879134" xlink:href="#m1080cea90a" y="186.541161"/>
    </g>
   </g>
   <g id="line2d_150">
    <g clip-path="url(#p47030f0bee)">
     <use style="fill:#bfbf00;stroke:#000000;stroke-width:0.25;" x="227.851631" xlink:href="#m1080cea90a" y="187.186907"/>
    </g>
   </g>
   <g id="line2d_151">
    <g clip-path="url(#p47030f0bee)">
     <use style="fill:#bfbf00;stroke:#000000;stroke-width:0.25;" x="211.824128" xlink:href="#m1080cea90a" y="187.832654"/>
    </g>
   </g>
   <g id="line2d_152">
    <defs>
     <path d="M 0 0.507895 
C 0.134695 0.507895 0.263892 0.45438 0.359136 0.359136 
C 0.45438 0.263892 0.507895 0.134695 0.507895 0 
C 0.507895 -0.134695 0.45438 -0.263892 0.359136 -0.359136 
C 0.263892 -0.45438 0.134695 -0.507895 0 -0.507895 
C -0.134695 -0.507895 -0.263892 -0.45438 -0.359136 -0.359136 
C -0.45438 -0.263892 -0.507895 -0.134695 -0.507895 0 
C -0.507895 0.134695 -0.45438 0.263892 -0.359136 0.359136 
C -0.263892 0.45438 -0.134695 0.507895 0 0.507895 
z
" id="m82df73ab25" style="stroke:#000000;stroke-width:0.01;"/>
    </defs>
    <g clip-path="url(#p47030f0bee)">
     <use style="fill:#bfbf00;stroke:#000000;stroke-width:0.01;" x="195.796625" xlink:href="#m82df73ab25" y="188.4784"/>
    </g>
   </g>
   <g id="text_1">
    <text style="fill:#660000;font-family:DejaVu Sans;font-size:6px;font-stretch:normal;font-style:normal;font-weight:normal;" transform="translate(282.803606 141.214476)rotate(-297.44781)">a</text>
   </g>
   <g id="text_2">
    <text style="fill:#660000;font-family:DejaVu Sans;font-size:6px;font-stretch:normal;font-style:normal;font-weight:normal;" transform="translate(292.635712 137.491901)rotate(-296.770011)">b</text>
   </g>
   <g id="text_3">
    <text style="fill:#660000;font-family:DejaVu Sans;font-size:6px;font-stretch:normal;font-style:normal;font-weight:normal;" transform="translate(262.253052 115.082367)rotate(-316.886155)">c</text>
   </g>
   <g id="text_4">
    <text style="fill:#660000;font-family:DejaVu Sans;font-size:6px;font-stretch:normal;font-style:normal;font-weight:normal;" transform="translate(269.192779 107.296897)rotate(-316.886155)">d</text>
   </g>
   <g id="text_5">
    <text style="fill:#660000;font-family:DejaVu Sans;font-size:6px;font-stretch:normal;font-style:normal;font-weight:normal;" transform="translate(295.671136 122.200181)rotate(-302.686452)">e</text>
   </g>
   <g id="text_6">
    <text style="fill:#660000;font-family:DejaVu Sans;font-size:6px;font-stretch:normal;font-style:normal;font-weight:normal;" transform="translate(219.692498 92.401265)rotate(-345.42185)">f</text>
   </g>
   <g id="text_7">
    <text style="fill:#660000;font-family:DejaVu Sans;font-size:6px;font-stretch:normal;font-style:normal;font-weight:normal;" transform="translate(221.495686 82.097057)rotate(-345.42185)">g</text>
   </g>
   <g id="text_8">
    <text style="fill:#660000;font-family:DejaVu Sans;font-size:6px;font-stretch:normal;font-style:normal;font-weight:normal;" transform="translate(148.980206 101.228466)rotate(-27.11682)">h</text>
   </g>
   <g id="text_9">
    <text style="fill:#660000;font-family:DejaVu Sans;font-size:6px;font-stretch:normal;font-style:normal;font-weight:normal;" transform="translate(147.946898 90.066496)rotate(-25.49351)">i</text>
   </g>
   <g id="text_10">
    <text style="fill:#003300;font-family:DejaVu Sans;font-size:6px;font-stretch:normal;font-style:normal;font-weight:normal;" transform="translate(105.228426 148.493286)rotate(-65.696593)">j</text>
   </g>
   <g id="text_11">
    <text style="fill:#003300;font-family:DejaVu Sans;font-size:6px;font-stretch:normal;font-style:normal;font-weight:normal;" transform="translate(99.753022 164.408554)rotate(-74.925365)">k</text>
   </g>
   <g id="text_12">
    <text style="fill:#003300;font-family:DejaVu Sans;font-size:6px;font-stretch:normal;font-style:normal;font-weight:normal;" transform="translate(97.228027 179.224241)rotate(-84.154137)">l</text>
   </g>
   <g id="text_13">
    <text style="fill:#003300;font-family:DejaVu Sans;font-size:6px;font-stretch:normal;font-style:normal;font-weight:normal;" transform="translate(92.133434 153.31753)rotate(-69.734181)">m</text>
   </g>
   <g id="text_14">
    <text style="fill:#003300;font-family:DejaVu Sans;font-size:6px;font-stretch:normal;font-style:normal;font-weight:normal;" transform="translate(84.201014 144.725149)rotate(-67.682531)">n</text>
   </g>
   <g id="text_15">
    <text style="fill:#660000;font-family:DejaVu Sans;font-size:6px;font-stretch:normal;font-style:normal;font-weight:normal;" transform="translate(290.301294 218.024135)rotate(-251.576528)">o</text>
   </g>
   <g id="text_16">
    <text style="fill:#660000;font-family:DejaVu Sans;font-size:6px;font-stretch:normal;font-style:normal;font-weight:normal;" transform="translate(300.215015 221.253874)rotate(-251.576528)">p</text>
   </g>
   <g id="text_17">
    <text style="fill:#660000;font-family:DejaVu Sans;font-size:6px;font-stretch:normal;font-style:normal;font-weight:normal;" transform="translate(302.853875 242.392083)rotate(-242.359924)">q</text>
   </g>
   <g id="text_18">
    <text style="font-family:DejaVu Sans;font-size:14px;font-stretch:normal;font-style:normal;font-weight:normal;text-anchor:middle;" transform="rotate(-0, 195.796625, 49.4224)" x="195.796625" y="49.4224">Cladogram</text>
   </g>
   <g id="legend_1">
    <g id="patch_38">
     <path d="M 336.574865 62.381462 
L 348.574865 62.381462 
L 348.574865 58.181462 
L 336.574865 58.181462 
z
" style="fill:#f8756b;stroke:#000000;stroke-linejoin:miter;"/>
    </g>
    <g id="text_19">
     <text style="font-family:DejaVu Sans;font-size:6px;font-stretch:normal;font-style:normal;font-weight:normal;text-anchor:start;" transform="rotate(-0, 353.374865, 62.381462)" x="353.374865" y="62.381462">a: o__Bifidobacteriales</text>
    </g>
    <g id="patch_39">
     <path d="M 336.574865 71.355212 
L 348.574865 71.355212 
L 348.574865 67.155212 
L 336.574865 67.155212 
z
" style="fill:#f8756b;stroke:#000000;stroke-linejoin:miter;"/>
    </g>
    <g id="text_20">
     <text style="font-family:DejaVu Sans;font-size:6px;font-stretch:normal;font-style:normal;font-weight:normal;text-anchor:start;" transform="rotate(-0, 353.374865, 71.355212)" x="353.374865" y="71.355212">b: c__Actinobacteria</text>
    </g>
    <g id="patch_40">
     <path d="M 336.574865 80.328962 
L 348.574865 80.328962 
L 348.574865 76.128962 
L 336.574865 76.128962 
z
" style="fill:#f8756b;stroke:#000000;stroke-linejoin:miter;"/>
    </g>
    <g id="text_21">
     <text style="font-family:DejaVu Sans;font-size:6px;font-stretch:normal;font-style:normal;font-weight:normal;text-anchor:start;" transform="rotate(-0, 353.374865, 80.328962)" x="353.374865" y="80.328962">c: o__Coriobacteriales</text>
    </g>
    <g id="patch_41">
     <path d="M 336.574865 89.302712 
L 348.574865 89.302712 
L 348.574865 85.102712 
L 336.574865 85.102712 
z
" style="fill:#f8756b;stroke:#000000;stroke-linejoin:miter;"/>
    </g>
    <g id="text_22">
     <text style="font-family:DejaVu Sans;font-size:6px;font-stretch:normal;font-style:normal;font-weight:normal;text-anchor:start;" transform="rotate(-0, 353.374865, 89.302712)" x="353.374865" y="89.302712">d: c__Coriobacteriia</text>
    </g>
    <g id="patch_42">
     <path d="M 336.574865 98.276462 
L 348.574865 98.276462 
L 348.574865 94.076462 
L 336.574865 94.076462 
z
" style="fill:#f8756b;stroke:#000000;stroke-linejoin:miter;"/>
    </g>
    <g id="text_23">
     <text style="font-family:DejaVu Sans;font-size:6px;font-stretch:normal;font-style:normal;font-weight:normal;text-anchor:start;" transform="rotate(-0, 353.374865, 98.276462)" x="353.374865" y="98.276462">e: p__Actinobacteriota</text>
    </g>
    <g id="patch_43">
     <path d="M 336.574865 107.250212 
L 348.574865 107.250212 
L 348.574865 103.050212 
L 336.574865 103.050212 
z
" style="fill:#f8756b;stroke:#000000;stroke-linejoin:miter;"/>
    </g>
    <g id="text_24">
     <text style="font-family:DejaVu Sans;font-size:6px;font-stretch:normal;font-style:normal;font-weight:normal;text-anchor:start;" transform="rotate(-0, 353.374865, 107.250212)" x="353.374865" y="107.250212">f: o__Campylobacterales</text>
    </g>
    <g id="patch_44">
     <path d="M 336.574865 116.223962 
L 348.574865 116.223962 
L 348.574865 112.023962 
L 336.574865 112.023962 
z
" style="fill:#f8756b;stroke:#000000;stroke-linejoin:miter;"/>
    </g>
    <g id="text_25">
     <text style="font-family:DejaVu Sans;font-size:6px;font-stretch:normal;font-style:normal;font-weight:normal;text-anchor:start;" transform="rotate(-0, 353.374865, 116.223962)" x="353.374865" y="116.223962">g: c__Campylobacteria</text>
    </g>
    <g id="patch_45">
     <path d="M 336.574865 125.197712 
L 348.574865 125.197712 
L 348.574865 120.997712 
L 336.574865 120.997712 
z
" style="fill:#f8756b;stroke:#000000;stroke-linejoin:miter;"/>
    </g>
    <g id="text_26">
     <text style="font-family:DejaVu Sans;font-size:6px;font-stretch:normal;font-style:normal;font-weight:normal;text-anchor:start;" transform="rotate(-0, 353.374865, 125.197712)" x="353.374865" y="125.197712">h: o__Lactobacillales</text>
    </g>
    <g id="patch_46">
     <path d="M 336.574865 134.171462 
L 348.574865 134.171462 
L 348.574865 129.971462 
L 336.574865 129.971462 
z
" style="fill:#f8756b;stroke:#000000;stroke-linejoin:miter;"/>
    </g>
    <g id="text_27">
     <text style="font-family:DejaVu Sans;font-size:6px;font-stretch:normal;font-style:normal;font-weight:normal;text-anchor:start;" transform="rotate(-0, 353.374865, 134.171462)" x="353.374865" y="134.171462">i: c__Bacilli</text>
    </g>
    <g id="patch_47">
     <path d="M 336.574865 143.145212 
L 348.574865 143.145212 
L 348.574865 138.945212 
L 336.574865 138.945212 
z
" style="fill:#00bec6;stroke:#000000;stroke-linejoin:miter;"/>
    </g>
    <g id="text_28">
     <text style="font-family:DejaVu Sans;font-size:6px;font-stretch:normal;font-style:normal;font-weight:normal;text-anchor:start;" transform="rotate(-0, 353.374865, 143.145212)" x="353.374865" y="143.145212">j: o__Clostridiales</text>
    </g>
    <g id="patch_48">
     <path d="M 336.574865 152.118962 
L 348.574865 152.118962 
L 348.574865 147.918962 
L 336.574865 147.918962 
z
" style="fill:#00bec6;stroke:#000000;stroke-linejoin:miter;"/>
    </g>
    <g id="text_29">
     <text style="font-family:DejaVu Sans;font-size:6px;font-stretch:normal;font-style:normal;font-weight:normal;text-anchor:start;" transform="rotate(-0, 353.374865, 152.118962)" x="353.374865" y="152.118962">k: o__Lachnospirales</text>
    </g>
    <g id="patch_49">
     <path d="M 336.574865 161.092712 
L 348.574865 161.092712 
L 348.574865 156.892712 
L 336.574865 156.892712 
z
" style="fill:#00bec6;stroke:#000000;stroke-linejoin:miter;"/>
    </g>
    <g id="text_30">
     <text style="font-family:DejaVu Sans;font-size:6px;font-stretch:normal;font-style:normal;font-weight:normal;text-anchor:start;" transform="rotate(-0, 353.374865, 161.092712)" x="353.374865" y="161.092712">l: o__Oscillospirales</text>
    </g>
    <g id="patch_50">
     <path d="M 336.574865 170.066462 
L 348.574865 170.066462 
L 348.574865 165.866462 
L 336.574865 165.866462 
z
" style="fill:#00bec6;stroke:#000000;stroke-linejoin:miter;"/>
    </g>
    <g id="text_31">
     <text style="font-family:DejaVu Sans;font-size:6px;font-stretch:normal;font-style:normal;font-weight:normal;text-anchor:start;" transform="rotate(-0, 353.374865, 170.066462)" x="353.374865" y="170.066462">m: c__Clostridia</text>
    </g>
    <g id="patch_51">
     <path d="M 336.574865 179.040212 
L 348.574865 179.040212 
L 348.574865 174.840212 
L 336.574865 174.840212 
z
" style="fill:#00bec6;stroke:#000000;stroke-linejoin:miter;"/>
    </g>
    <g id="text_32">
     <text style="font-family:DejaVu Sans;font-size:6px;font-stretch:normal;font-style:normal;font-weight:normal;text-anchor:start;" transform="rotate(-0, 353.374865, 179.040212)" x="353.374865" y="179.040212">n: p__Firmicutes</text>
    </g>
    <g id="patch_52">
     <path d="M 336.574865 188.013962 
L 348.574865 188.013962 
L 348.574865 183.813962 
L 336.574865 183.813962 
z
" style="fill:#f8756b;stroke:#000000;stroke-linejoin:miter;"/>
    </g>
    <g id="text_33">
     <text style="font-family:DejaVu Sans;font-size:6px;font-stretch:normal;font-style:normal;font-weight:normal;text-anchor:start;" transform="rotate(-0, 353.374865, 188.013962)" x="353.374865" y="188.013962">o: o__Verrucomicrobiales</text>
    </g>
    <g id="patch_53">
     <path d="M 336.574865 196.987712 
L 348.574865 196.987712 
L 348.574865 192.787712 
L 336.574865 192.787712 
z
" style="fill:#f8756b;stroke:#000000;stroke-linejoin:miter;"/>
    </g>
    <g id="text_34">
     <text style="font-family:DejaVu Sans;font-size:6px;font-stretch:normal;font-style:normal;font-weight:normal;text-anchor:start;" transform="rotate(-0, 353.374865, 196.987712)" x="353.374865" y="196.987712">p: c__Verrucomicrobiae</text>
    </g>
    <g id="patch_54">
     <path d="M 336.574865 205.961462 
L 348.574865 205.961462 
L 348.574865 201.761462 
L 336.574865 201.761462 
z
" style="fill:#f8756b;stroke:#000000;stroke-linejoin:miter;"/>
    </g>
    <g id="text_35">
     <text style="font-family:DejaVu Sans;font-size:6px;font-stretch:normal;font-style:normal;font-weight:normal;text-anchor:start;" transform="rotate(-0, 353.374865, 205.961462)" x="353.374865" y="205.961462">q: p__Verrucomicrobiota</text>
    </g>
   </g>
   <g id="legend_2">
    <g id="patch_55">
     <path d="M 11.2 18.798437 
L 31.2 18.798437 
L 31.2 11.798437 
L 11.2 11.798437 
z
" style="fill:#f8756b;"/>
    </g>
    <g id="text_36">
     <text style="font-family:DejaVu Sans;font-size:10px;font-stretch:normal;font-style:normal;font-weight:normal;text-anchor:start;" transform="rotate(-0, 39.2, 18.798437)" x="39.2" y="18.798437">AD</text>
    </g>
    <g id="patch_56">
     <path d="M 11.2 33.476562 
L 31.2 33.476562 
L 31.2 26.476562 
L 11.2 26.476562 
z
" style="fill:#00bec6;"/>
    </g>
    <g id="text_37">
     <text style="font-family:DejaVu Sans;font-size:10px;font-stretch:normal;font-style:normal;font-weight:normal;text-anchor:start;" transform="rotate(-0, 39.2, 33.476562)" x="39.2" y="33.476562">C</text>
    </g>
   </g>
  </g>
 </g>
 <defs>
  <clipPath id="p47030f0bee">
   <path d="M 328.852625 188.4784 
C 328.852625 171.005646 325.410873 153.702793 318.72434 137.560073 
C 312.037807 121.417354 302.236528 106.748703 289.881425 94.3936 
C 277.526322 82.038497 262.857671 72.237218 246.714952 65.550685 
C 230.572232 58.864152 213.269379 55.4224 195.796625 55.4224 
C 178.323871 55.4224 161.021018 58.864152 144.878298 65.550685 
C 128.735579 72.237218 114.066928 82.038497 101.711825 94.3936 
C 89.356722 106.748703 79.555443 121.417354 72.86891 137.560073 
C 66.182377 153.702793 62.740625 171.005646 62.740625 188.4784 
C 62.740625 205.951154 66.182377 223.254007 72.86891 239.396727 
C 79.555443 255.539446 89.356722 270.208097 101.711825 282.5632 
C 114.066928 294.918303 128.735579 304.719582 144.878298 311.406115 
C 161.021018 318.092648 178.323871 321.5344 195.796625 321.5344 
C 213.269379 321.5344 230.572232 318.092648 246.714952 311.406115 
C 262.857671 304.719582 277.526322 294.918303 289.881425 282.5632 
C 302.236528 270.208097 312.037807 255.539446 318.72434 239.396727 
C 325.410873 223.254007 328.852625 205.951154 328.852625 188.4784 
M 195.796625 188.4784 
C 195.796625 188.4784 195.796625 188.4784 195.796625 188.4784 
C 195.796625 188.4784 195.796625 188.4784 195.796625 188.4784 
C 195.796625 188.4784 195.796625 188.4784 195.796625 188.4784 
C 195.796625 188.4784 195.796625 188.4784 195.796625 188.4784 
C 195.796625 188.4784 195.796625 188.4784 195.796625 188.4784 
C 195.796625 188.4784 195.796625 188.4784 195.796625 188.4784 
C 195.796625 188.4784 195.796625 188.4784 195.796625 188.4784 
C 195.796625 188.4784 195.796625 188.4784 195.796625 188.4784 
C 195.796625 188.4784 195.796625 188.4784 195.796625 188.4784 
C 195.796625 188.4784 195.796625 188.4784 195.796625 188.4784 
C 195.796625 188.4784 195.796625 188.4784 195.796625 188.4784 
C 195.796625 188.4784 195.796625 188.4784 195.796625 188.4784 
C 195.796625 188.4784 195.796625 188.4784 195.796625 188.4784 
C 195.796625 188.4784 195.796625 188.4784 195.796625 188.4784 
C 195.796625 188.4784 195.796625 188.4784 195.796625 188.4784 
C 195.796625 188.4784 195.796625 188.4784 195.796625 188.4784 
M 328.852625 188.4784 
z
"/>
  </clipPath>
 </defs>
</svg>
