<?xml version="1.0" encoding="utf-8" standalone="no"?>
<!DOCTYPE svg PUBLIC "-//W3C//DTD SVG 1.1//EN"
  "http://www.w3.org/Graphics/SVG/1.1/DTD/svg11.dtd">
<!-- Created with matplotlib (http://matplotlib.org/) -->
<svg height="147pt" version="1.1" viewBox="0 0 720 147" width="720pt" xmlns="http://www.w3.org/2000/svg" xmlns:xlink="http://www.w3.org/1999/xlink">
 <defs>
  <style type="text/css">
*{stroke-linecap:butt;stroke-linejoin:round;}
  </style>
 </defs>
 <g id="figure_1">
  <g id="patch_1">
   <path d="
M0 147.6
L720 147.6
L720 0
L0 0
z
" style="fill:#ffffff;"/>
  </g>
  <g id="axes_1">
   <g id="patch_2">
    <path d="
M169.95 118.8
L259.95 118.8
L259.95 18
L169.95 18
z
" style="fill:#ffffff;"/>
   </g>
   <g id="patch_3">
    <path clip-path="url(#p1004e25601)" d="
M169.95 112.5
L169.95 99.9
L259.95 99.9
L259.95 112.5
z
" style="fill:#e6e6e6;"/>
   </g>
   <g id="patch_4">
    <path clip-path="url(#p1004e25601)" d="
M169.95 87.3
L169.95 74.7
L259.95 74.7
L259.95 87.3
z
" style="fill:#e6e6e6;"/>
   </g>
   <g id="patch_5">
    <path clip-path="url(#p1004e25601)" d="
M169.95 62.1
L169.95 49.5
L259.95 49.5
L259.95 62.1
z
" style="fill:#e6e6e6;"/>
   </g>
   <g id="patch_6">
    <path clip-path="url(#p1004e25601)" d="
M169.95 36.9
L169.95 24.3
L259.95 24.3
L259.95 36.9
z
" style="fill:#e6e6e6;"/>
   </g>
   <g id="patch_7">
    <path clip-path="url(#p1004e25601)" d="
M169.95 106.2
L201.849 106.2
L201.849 102.42
L169.95 102.42
z
" style="fill:#f8756b;stroke:#000000;stroke-linejoin:miter;"/>
   </g>
   <g id="patch_8">
    <path clip-path="url(#p1004e25601)" d="
M169.95 93.6
L203.257 93.6
L203.257 89.82
L169.95 89.82
z
" style="fill:#f8756b;stroke:#000000;stroke-linejoin:miter;"/>
   </g>
   <g id="patch_9">
    <path clip-path="url(#p1004e25601)" d="
M169.95 81
L191.943 81
L191.943 77.22
L169.95 77.22
z
" style="fill:#f8756b;stroke:#000000;stroke-linejoin:miter;"/>
   </g>
   <g id="patch_10">
    <path clip-path="url(#p1004e25601)" d="
M169.95 68.4
L171.996 68.4
L171.996 64.62
L169.95 64.62
z
" style="fill:#f8756b;stroke:#000000;stroke-linejoin:miter;"/>
   </g>
   <g id="patch_11">
    <path clip-path="url(#p1004e25601)" d="
M169.95 55.8
L255.664 55.8
L255.664 52.02
L169.95 52.02
z
" style="fill:#f8756b;stroke:#000000;stroke-linejoin:miter;"/>
   </g>
   <g id="patch_12">
    <path clip-path="url(#p1004e25601)" d="
M169.95 43.2
L207.134 43.2
L207.134 39.42
L169.95 39.42
z
" style="fill:#f8756b;stroke:#000000;stroke-linejoin:miter;"/>
   </g>
   <g id="patch_13">
    <path clip-path="url(#p1004e25601)" d="
M169.95 30.6
L179.216 30.6
L179.216 26.82
L169.95 26.82
z
" style="fill:#f8756b;stroke:#000000;stroke-linejoin:miter;"/>
   </g>
   <g id="patch_14">
    <path clip-path="url(#p1004e25601)" d="
M169.95 109.98
L203.018 109.98
L203.018 106.2
L169.95 106.2
z
" style="fill:#00bec6;stroke:#000000;stroke-linejoin:miter;"/>
   </g>
   <g id="patch_15">
    <path clip-path="url(#p1004e25601)" d="
M169.95 97.38
L204.51 97.38
L204.51 93.6
L169.95 93.6
z
" style="fill:#00bec6;stroke:#000000;stroke-linejoin:miter;"/>
   </g>
   <g id="patch_16">
    <path clip-path="url(#p1004e25601)" d="
M169.95 84.78
L193.73 84.78
L193.73 81
L169.95 81
z
" style="fill:#00bec6;stroke:#000000;stroke-linejoin:miter;"/>
   </g>
   <g id="patch_17">
    <path clip-path="url(#p1004e25601)" d="
M169.95 72.18
L170.19 72.18
L170.19 68.4
L169.95 68.4
z
" style="fill:#00bec6;stroke:#000000;stroke-linejoin:miter;"/>
   </g>
   <g id="patch_18">
    <path clip-path="url(#p1004e25601)" d="
M169.95 59.58
L252.691 59.58
L252.691 55.8
L169.95 55.8
z
" style="fill:#00bec6;stroke:#000000;stroke-linejoin:miter;"/>
   </g>
   <g id="patch_19">
    <path clip-path="url(#p1004e25601)" d="
M169.95 46.98
L201.668 46.98
L201.668 43.2
L169.95 43.2
z
" style="fill:#00bec6;stroke:#000000;stroke-linejoin:miter;"/>
   </g>
   <g id="patch_20">
    <path clip-path="url(#p1004e25601)" d="
M169.95 34.38
L185.16 34.38
L185.16 30.6
L169.95 30.6
z
" style="fill:#00bec6;stroke:#000000;stroke-linejoin:miter;"/>
   </g>
   <g id="LineCollection_1">
    <path clip-path="url(#p1004e25601)" d="
M198.699 104.31
L204.999 104.31" style="fill:none;stroke:#000000;"/>
    <path clip-path="url(#p1004e25601)" d="
M201.268 91.71
L205.246 91.71" style="fill:none;stroke:#000000;"/>
    <path clip-path="url(#p1004e25601)" d="
M190.036 79.11
L193.849 79.11" style="fill:none;stroke:#000000;"/>
    <path clip-path="url(#p1004e25601)" d="
M167.654 66.51
L176.337 66.51" style="fill:none;stroke:#000000;"/>
    <path clip-path="url(#p1004e25601)" d="
M249.855 53.91
L261.473 53.91" style="fill:none;stroke:#000000;"/>
    <path clip-path="url(#p1004e25601)" d="
M191.731 41.31
L222.536 41.31" style="fill:none;stroke:#000000;"/>
    <path clip-path="url(#p1004e25601)" d="
M173.703 28.71
L184.729 28.71" style="fill:none;stroke:#000000;"/>
   </g>
   <g id="LineCollection_2">
    <path clip-path="url(#p1004e25601)" d="
M200.286 108.09
L205.749 108.09" style="fill:none;stroke:#000000;"/>
    <path clip-path="url(#p1004e25601)" d="
M203.378 95.49
L205.641 95.49" style="fill:none;stroke:#000000;"/>
    <path clip-path="url(#p1004e25601)" d="
M191.808 82.89
L195.652 82.89" style="fill:none;stroke:#000000;"/>
    <path clip-path="url(#p1004e25601)" d="
M169.155 70.29
L171.224 70.29" style="fill:none;stroke:#000000;"/>
    <path clip-path="url(#p1004e25601)" d="
M247.413 57.69
L257.968 57.69" style="fill:none;stroke:#000000;"/>
    <path clip-path="url(#p1004e25601)" d="
M191.868 45.09
L211.469 45.09" style="fill:none;stroke:#000000;"/>
    <path clip-path="url(#p1004e25601)" d="
M176.89 32.49
L193.43 32.49" style="fill:none;stroke:#000000;"/>
   </g>
   <g id="line2d_1">
    <defs>
     <path d="
M0 1
L0 -1" id="md66de04899" style="stroke:#000000;stroke-width:0.5;"/>
    </defs>
    <g clip-path="url(#p1004e25601)">
     <use style="stroke:#000000;stroke-width:0.5;" x="198.698622064" xlink:href="#md66de04899" y="104.31"/>
     <use style="stroke:#000000;stroke-width:0.5;" x="201.267738309" xlink:href="#md66de04899" y="91.71"/>
     <use style="stroke:#000000;stroke-width:0.5;" x="190.036480426" xlink:href="#md66de04899" y="79.11"/>
     <use style="stroke:#000000;stroke-width:0.5;" x="167.653964576" xlink:href="#md66de04899" y="66.51"/>
     <use style="stroke:#000000;stroke-width:0.5;" x="249.855475774" xlink:href="#md66de04899" y="53.91"/>
     <use style="stroke:#000000;stroke-width:0.5;" x="191.731415734" xlink:href="#md66de04899" y="41.31"/>
     <use style="stroke:#000000;stroke-width:0.5;" x="173.703041827" xlink:href="#md66de04899" y="28.71"/>
    </g>
   </g>
   <g id="line2d_2">
    <g clip-path="url(#p1004e25601)">
     <use style="stroke:#000000;stroke-width:0.5;" x="204.999200321" xlink:href="#md66de04899" y="104.31"/>
     <use style="stroke:#000000;stroke-width:0.5;" x="205.246211288" xlink:href="#md66de04899" y="91.71"/>
     <use style="stroke:#000000;stroke-width:0.5;" x="193.848726259" xlink:href="#md66de04899" y="79.11"/>
     <use style="stroke:#000000;stroke-width:0.5;" x="176.337105183" xlink:href="#md66de04899" y="66.51"/>
     <use style="stroke:#000000;stroke-width:0.5;" x="261.473095655" xlink:href="#md66de04899" y="53.91"/>
     <use style="stroke:#000000;stroke-width:0.5;" x="222.536148352" xlink:href="#md66de04899" y="41.31"/>
     <use style="stroke:#000000;stroke-width:0.5;" x="184.729041776" xlink:href="#md66de04899" y="28.71"/>
    </g>
   </g>
   <g id="line2d_3">
    <g clip-path="url(#p1004e25601)">
     <use style="stroke:#000000;stroke-width:0.5;" x="200.285829556" xlink:href="#md66de04899" y="108.09"/>
     <use style="stroke:#000000;stroke-width:0.5;" x="203.378340305" xlink:href="#md66de04899" y="95.49"/>
     <use style="stroke:#000000;stroke-width:0.5;" x="191.80764495" xlink:href="#md66de04899" y="82.89"/>
     <use style="stroke:#000000;stroke-width:0.5;" x="169.155127984" xlink:href="#md66de04899" y="70.29"/>
     <use style="stroke:#000000;stroke-width:0.5;" x="247.413212233" xlink:href="#md66de04899" y="57.69"/>
     <use style="stroke:#000000;stroke-width:0.5;" x="191.868151368" xlink:href="#md66de04899" y="45.09"/>
     <use style="stroke:#000000;stroke-width:0.5;" x="176.890254004" xlink:href="#md66de04899" y="32.49"/>
    </g>
   </g>
   <g id="line2d_4">
    <g clip-path="url(#p1004e25601)">
     <use style="stroke:#000000;stroke-width:0.5;" x="205.749270852" xlink:href="#md66de04899" y="108.09"/>
     <use style="stroke:#000000;stroke-width:0.5;" x="205.641246467" xlink:href="#md66de04899" y="95.49"/>
     <use style="stroke:#000000;stroke-width:0.5;" x="195.652404971" xlink:href="#md66de04899" y="82.89"/>
     <use style="stroke:#000000;stroke-width:0.5;" x="171.224152234" xlink:href="#md66de04899" y="70.29"/>
     <use style="stroke:#000000;stroke-width:0.5;" x="257.967920279" xlink:href="#md66de04899" y="57.69"/>
     <use style="stroke:#000000;stroke-width:0.5;" x="211.468830068" xlink:href="#md66de04899" y="45.09"/>
     <use style="stroke:#000000;stroke-width:0.5;" x="193.430499816" xlink:href="#md66de04899" y="32.49"/>
    </g>
   </g>
   <g id="patch_21">
    <path d="
M169.95 18
L259.95 18" style="fill:none;"/>
   </g>
   <g id="patch_22">
    <path d="
M259.95 118.8
L259.95 18" style="fill:none;"/>
   </g>
   <g id="patch_23">
    <path d="
M169.95 118.8
L259.95 118.8" style="fill:none;stroke:#7f7f7f;stroke-linecap:square;stroke-linejoin:miter;"/>
   </g>
   <g id="patch_24">
    <path d="
M169.95 118.8
L169.95 18" style="fill:none;"/>
   </g>
   <g id="matplotlib.axis_1">
    <g id="xtick_1">
     <g id="line2d_5">
      <defs>
       <path d="
M0 0
L0 -4" id="m52ec4ef45c" style="stroke:#7f7f7f;stroke-width:0.5;"/>
      </defs>
      <g>
       <use style="fill:#7f7f7f;stroke:#7f7f7f;stroke-width:0.5;" x="169.95" xlink:href="#m52ec4ef45c" y="118.8"/>
      </g>
     </g>
     <g id="text_1">
      <!-- 0.0 -->
      <defs>
       <path d="
M31.7812 66.4062
Q24.1719 66.4062 20.3281 58.9062
Q16.5 51.4219 16.5 36.375
Q16.5 21.3906 20.3281 13.8906
Q24.1719 6.39062 31.7812 6.39062
Q39.4531 6.39062 43.2812 13.8906
Q47.125 21.3906 47.125 36.375
Q47.125 51.4219 43.2812 58.9062
Q39.4531 66.4062 31.7812 66.4062
M31.7812 74.2188
Q44.0469 74.2188 50.5156 64.5156
Q56.9844 54.8281 56.9844 36.375
Q56.9844 17.9688 50.5156 8.26562
Q44.0469 -1.42188 31.7812 -1.42188
Q19.5312 -1.42188 13.0625 8.26562
Q6.59375 17.9688 6.59375 36.375
Q6.59375 54.8281 13.0625 64.5156
Q19.5312 74.2188 31.7812 74.2188" id="BitstreamVeraSans-Roman-30"/>
       <path d="
M10.6875 12.4062
L21 12.4062
L21 0
L10.6875 0
z
" id="BitstreamVeraSans-Roman-2e"/>
      </defs>
      <g transform="translate(164.118125 128.87875)scale(0.08 -0.08)">
       <use xlink:href="#BitstreamVeraSans-Roman-30"/>
       <use x="63.623046875" xlink:href="#BitstreamVeraSans-Roman-2e"/>
       <use x="95.41015625" xlink:href="#BitstreamVeraSans-Roman-30"/>
      </g>
     </g>
    </g>
    <g id="xtick_2">
     <g id="line2d_6">
      <g>
       <use style="fill:#7f7f7f;stroke:#7f7f7f;stroke-width:0.5;" x="255.664285714" xlink:href="#m52ec4ef45c" y="118.8"/>
      </g>
     </g>
     <g id="text_2">
      <!-- 11.5 -->
      <defs>
       <path d="
M12.4062 8.29688
L28.5156 8.29688
L28.5156 63.9219
L10.9844 60.4062
L10.9844 69.3906
L28.4219 72.9062
L38.2812 72.9062
L38.2812 8.29688
L54.3906 8.29688
L54.3906 0
L12.4062 0
z
" id="BitstreamVeraSans-Roman-31"/>
       <path d="
M10.7969 72.9062
L49.5156 72.9062
L49.5156 64.5938
L19.8281 64.5938
L19.8281 46.7344
Q21.9688 47.4688 24.1094 47.8281
Q26.2656 48.1875 28.4219 48.1875
Q40.625 48.1875 47.75 41.5
Q54.8906 34.8125 54.8906 23.3906
Q54.8906 11.625 47.5625 5.09375
Q40.2344 -1.42188 26.9062 -1.42188
Q22.3125 -1.42188 17.5469 -0.640625
Q12.7969 0.140625 7.71875 1.70312
L7.71875 11.625
Q12.1094 9.23438 16.7969 8.0625
Q21.4844 6.89062 26.7031 6.89062
Q35.1562 6.89062 40.0781 11.3281
Q45.0156 15.7656 45.0156 23.3906
Q45.0156 31 40.0781 35.4375
Q35.1562 39.8906 26.7031 39.8906
Q22.75 39.8906 18.8125 39.0156
Q14.8906 38.1406 10.7969 36.2812
z
" id="BitstreamVeraSans-Roman-35"/>
      </defs>
      <g transform="translate(247.546785714 128.87875)scale(0.08 -0.08)">
       <use xlink:href="#BitstreamVeraSans-Roman-31"/>
       <use x="63.623046875" xlink:href="#BitstreamVeraSans-Roman-31"/>
       <use x="127.24609375" xlink:href="#BitstreamVeraSans-Roman-2e"/>
       <use x="159.033203125" xlink:href="#BitstreamVeraSans-Roman-35"/>
      </g>
     </g>
    </g>
    <g id="text_3">
     <!-- Mean proportion (%) -->
     <defs>
      <path id="BitstreamVeraSans-Roman-20"/>
      <path d="
M9.8125 72.9062
L24.5156 72.9062
L43.1094 23.2969
L61.8125 72.9062
L76.5156 72.9062
L76.5156 0
L66.8906 0
L66.8906 64.0156
L48.0938 14.0156
L38.1875 14.0156
L19.3906 64.0156
L19.3906 0
L9.8125 0
z
" id="BitstreamVeraSans-Roman-4d"/>
      <path d="
M72.7031 32.0781
Q68.4531 32.0781 66.0312 28.4688
Q63.625 24.8594 63.625 18.4062
Q63.625 12.0625 66.0312 8.42188
Q68.4531 4.78125 72.7031 4.78125
Q76.8594 4.78125 79.2656 8.42188
Q81.6875 12.0625 81.6875 18.4062
Q81.6875 24.8125 79.2656 28.4375
Q76.8594 32.0781 72.7031 32.0781
M72.7031 38.2812
Q80.4219 38.2812 84.9531 32.9062
Q89.5 27.5469 89.5 18.4062
Q89.5 9.28125 84.9375 3.92188
Q80.375 -1.42188 72.7031 -1.42188
Q64.8906 -1.42188 60.3438 3.92188
Q55.8125 9.28125 55.8125 18.4062
Q55.8125 27.5938 60.375 32.9375
Q64.9375 38.2812 72.7031 38.2812
M22.3125 68.0156
Q18.1094 68.0156 15.6875 64.375
Q13.2812 60.75 13.2812 54.3906
Q13.2812 47.9531 15.6719 44.3281
Q18.0625 40.7188 22.3125 40.7188
Q26.5625 40.7188 28.9688 44.3281
Q31.3906 47.9531 31.3906 54.3906
Q31.3906 60.6875 28.9531 64.3438
Q26.5156 68.0156 22.3125 68.0156
M66.4062 74.2188
L74.2188 74.2188
L28.6094 -1.42188
L20.7969 -1.42188
z

M22.3125 74.2188
Q30.0312 74.2188 34.6094 68.875
Q39.2031 63.5312 39.2031 54.3906
Q39.2031 45.1719 34.6406 39.8438
Q30.0781 34.5156 22.3125 34.5156
Q14.5469 34.5156 10.0312 39.8594
Q5.51562 45.2188 5.51562 54.3906
Q5.51562 63.4844 10.0469 68.8438
Q14.5938 74.2188 22.3125 74.2188" id="BitstreamVeraSans-Roman-25"/>
      <path d="
M54.8906 33.0156
L54.8906 0
L45.9062 0
L45.9062 32.7188
Q45.9062 40.4844 42.875 44.3281
Q39.8438 48.1875 33.7969 48.1875
Q26.5156 48.1875 22.3125 43.5469
Q18.1094 38.9219 18.1094 30.9062
L18.1094 0
L9.07812 0
L9.07812 54.6875
L18.1094 54.6875
L18.1094 46.1875
Q21.3438 51.125 25.7031 53.5625
Q30.0781 56 35.7969 56
Q45.2188 56 50.0469 50.1719
Q54.8906 44.3438 54.8906 33.0156" id="BitstreamVeraSans-Roman-6e"/>
      <path d="
M41.1094 46.2969
Q39.5938 47.1719 37.8125 47.5781
Q36.0312 48 33.8906 48
Q26.2656 48 22.1875 43.0469
Q18.1094 38.0938 18.1094 28.8125
L18.1094 0
L9.07812 0
L9.07812 54.6875
L18.1094 54.6875
L18.1094 46.1875
Q20.9531 51.1719 25.4844 53.5781
Q30.0312 56 36.5312 56
Q37.4531 56 38.5781 55.875
Q39.7031 55.7656 41.0625 55.5156
z
" id="BitstreamVeraSans-Roman-72"/>
      <path d="
M30.6094 48.3906
Q23.3906 48.3906 19.1875 42.75
Q14.9844 37.1094 14.9844 27.2969
Q14.9844 17.4844 19.1562 11.8438
Q23.3438 6.20312 30.6094 6.20312
Q37.7969 6.20312 41.9844 11.8594
Q46.1875 17.5312 46.1875 27.2969
Q46.1875 37.0156 41.9844 42.7031
Q37.7969 48.3906 30.6094 48.3906
M30.6094 56
Q42.3281 56 49.0156 48.375
Q55.7188 40.7656 55.7188 27.2969
Q55.7188 13.875 49.0156 6.21875
Q42.3281 -1.42188 30.6094 -1.42188
Q18.8438 -1.42188 12.1719 6.21875
Q5.51562 13.875 5.51562 27.2969
Q5.51562 40.7656 12.1719 48.375
Q18.8438 56 30.6094 56" id="BitstreamVeraSans-Roman-6f"/>
      <path d="
M8.01562 75.875
L15.8281 75.875
Q23.1406 64.3594 26.7812 53.3125
Q30.4219 42.2812 30.4219 31.3906
Q30.4219 20.4531 26.7812 9.375
Q23.1406 -1.70312 15.8281 -13.1875
L8.01562 -13.1875
Q14.5 -2 17.7031 9.0625
Q20.9062 20.125 20.9062 31.3906
Q20.9062 42.6719 17.7031 53.6562
Q14.5 64.6562 8.01562 75.875" id="BitstreamVeraSans-Roman-29"/>
      <path d="
M9.42188 54.6875
L18.4062 54.6875
L18.4062 0
L9.42188 0
z

M9.42188 75.9844
L18.4062 75.9844
L18.4062 64.5938
L9.42188 64.5938
z
" id="BitstreamVeraSans-Roman-69"/>
      <path d="
M31 75.875
Q24.4688 64.6562 21.2812 53.6562
Q18.1094 42.6719 18.1094 31.3906
Q18.1094 20.125 21.3125 9.0625
Q24.5156 -2 31 -13.1875
L23.1875 -13.1875
Q15.875 -1.70312 12.2344 9.375
Q8.59375 20.4531 8.59375 31.3906
Q8.59375 42.2812 12.2031 53.3125
Q15.8281 64.3594 23.1875 75.875
z
" id="BitstreamVeraSans-Roman-28"/>
      <path d="
M56.2031 29.5938
L56.2031 25.2031
L14.8906 25.2031
Q15.4844 15.9219 20.4844 11.0625
Q25.4844 6.20312 34.4219 6.20312
Q39.5938 6.20312 44.4531 7.46875
Q49.3125 8.73438 54.1094 11.2812
L54.1094 2.78125
Q49.2656 0.734375 44.1875 -0.34375
Q39.1094 -1.42188 33.8906 -1.42188
Q20.7969 -1.42188 13.1562 6.1875
Q5.51562 13.8125 5.51562 26.8125
Q5.51562 40.2344 12.7656 48.1094
Q20.0156 56 32.3281 56
Q43.3594 56 49.7812 48.8906
Q56.2031 41.7969 56.2031 29.5938
M47.2188 32.2344
Q47.125 39.5938 43.0938 43.9844
Q39.0625 48.3906 32.4219 48.3906
Q24.9062 48.3906 20.3906 44.1406
Q15.875 39.8906 15.1875 32.1719
z
" id="BitstreamVeraSans-Roman-65"/>
      <path d="
M18.3125 70.2188
L18.3125 54.6875
L36.8125 54.6875
L36.8125 47.7031
L18.3125 47.7031
L18.3125 18.0156
Q18.3125 11.3281 20.1406 9.42188
Q21.9688 7.51562 27.5938 7.51562
L36.8125 7.51562
L36.8125 0
L27.5938 0
Q17.1875 0 13.2344 3.875
Q9.28125 7.76562 9.28125 18.0156
L9.28125 47.7031
L2.6875 47.7031
L2.6875 54.6875
L9.28125 54.6875
L9.28125 70.2188
z
" id="BitstreamVeraSans-Roman-74"/>
      <path d="
M34.2812 27.4844
Q23.3906 27.4844 19.1875 25
Q14.9844 22.5156 14.9844 16.5
Q14.9844 11.7188 18.1406 8.90625
Q21.2969 6.10938 26.7031 6.10938
Q34.1875 6.10938 38.7031 11.4062
Q43.2188 16.7031 43.2188 25.4844
L43.2188 27.4844
z

M52.2031 31.2031
L52.2031 0
L43.2188 0
L43.2188 8.29688
Q40.1406 3.32812 35.5469 0.953125
Q30.9531 -1.42188 24.3125 -1.42188
Q15.9219 -1.42188 10.9531 3.29688
Q6 8.01562 6 15.9219
Q6 25.1406 12.1719 29.8281
Q18.3594 34.5156 30.6094 34.5156
L43.2188 34.5156
L43.2188 35.4062
Q43.2188 41.6094 39.1406 45
Q35.0625 48.3906 27.6875 48.3906
Q23 48.3906 18.5469 47.2656
Q14.1094 46.1406 10.0156 43.8906
L10.0156 52.2031
Q14.9375 54.1094 19.5781 55.0469
Q24.2188 56 28.6094 56
Q40.4844 56 46.3438 49.8438
Q52.2031 43.7031 52.2031 31.2031" id="BitstreamVeraSans-Roman-61"/>
      <path d="
M18.1094 8.20312
L18.1094 -20.7969
L9.07812 -20.7969
L9.07812 54.6875
L18.1094 54.6875
L18.1094 46.3906
Q20.9531 51.2656 25.2656 53.625
Q29.5938 56 35.5938 56
Q45.5625 56 51.7812 48.0938
Q58.0156 40.1875 58.0156 27.2969
Q58.0156 14.4062 51.7812 6.48438
Q45.5625 -1.42188 35.5938 -1.42188
Q29.5938 -1.42188 25.2656 0.953125
Q20.9531 3.32812 18.1094 8.20312
M48.6875 27.2969
Q48.6875 37.2031 44.6094 42.8438
Q40.5312 48.4844 33.4062 48.4844
Q26.2656 48.4844 22.1875 42.8438
Q18.1094 37.2031 18.1094 27.2969
Q18.1094 17.3906 22.1875 11.75
Q26.2656 6.10938 33.4062 6.10938
Q40.5312 6.10938 44.6094 11.75
Q48.6875 17.3906 48.6875 27.2969" id="BitstreamVeraSans-Roman-70"/>
     </defs>
     <g transform="translate(174.09625 141.62125)scale(0.08 -0.08)">
      <use xlink:href="#BitstreamVeraSans-Roman-4d"/>
      <use x="86.279296875" xlink:href="#BitstreamVeraSans-Roman-65"/>
      <use x="147.802734375" xlink:href="#BitstreamVeraSans-Roman-61"/>
      <use x="209.08203125" xlink:href="#BitstreamVeraSans-Roman-6e"/>
      <use x="272.4609375" xlink:href="#BitstreamVeraSans-Roman-20"/>
      <use x="304.248046875" xlink:href="#BitstreamVeraSans-Roman-70"/>
      <use x="367.724609375" xlink:href="#BitstreamVeraSans-Roman-72"/>
      <use x="406.587890625" xlink:href="#BitstreamVeraSans-Roman-6f"/>
      <use x="467.76953125" xlink:href="#BitstreamVeraSans-Roman-70"/>
      <use x="531.24609375" xlink:href="#BitstreamVeraSans-Roman-6f"/>
      <use x="592.427734375" xlink:href="#BitstreamVeraSans-Roman-72"/>
      <use x="633.541015625" xlink:href="#BitstreamVeraSans-Roman-74"/>
      <use x="672.75" xlink:href="#BitstreamVeraSans-Roman-69"/>
      <use x="700.533203125" xlink:href="#BitstreamVeraSans-Roman-6f"/>
      <use x="761.71484375" xlink:href="#BitstreamVeraSans-Roman-6e"/>
      <use x="825.09375" xlink:href="#BitstreamVeraSans-Roman-20"/>
      <use x="856.880859375" xlink:href="#BitstreamVeraSans-Roman-28"/>
      <use x="895.89453125" xlink:href="#BitstreamVeraSans-Roman-25"/>
      <use x="990.9140625" xlink:href="#BitstreamVeraSans-Roman-29"/>
     </g>
    </g>
   </g>
   <g id="matplotlib.axis_2">
    <g id="ytick_1">
     <g id="text_4">
      <!-- Lipid metabolism -->
      <defs>
       <path d="
M9.8125 72.9062
L19.6719 72.9062
L19.6719 8.29688
L55.1719 8.29688
L55.1719 0
L9.8125 0
z
" id="BitstreamVeraSans-Roman-4c"/>
       <path d="
M52 44.1875
Q55.375 50.25 60.0625 53.125
Q64.75 56 71.0938 56
Q79.6406 56 84.2812 50.0156
Q88.9219 44.0469 88.9219 33.0156
L88.9219 0
L79.8906 0
L79.8906 32.7188
Q79.8906 40.5781 77.0938 44.375
Q74.3125 48.1875 68.6094 48.1875
Q61.625 48.1875 57.5625 43.5469
Q53.5156 38.9219 53.5156 30.9062
L53.5156 0
L44.4844 0
L44.4844 32.7188
Q44.4844 40.625 41.7031 44.4062
Q38.9219 48.1875 33.1094 48.1875
Q26.2188 48.1875 22.1562 43.5312
Q18.1094 38.875 18.1094 30.9062
L18.1094 0
L9.07812 0
L9.07812 54.6875
L18.1094 54.6875
L18.1094 46.1875
Q21.1875 51.2188 25.4844 53.6094
Q29.7812 56 35.6875 56
Q41.6562 56 45.8281 52.9688
Q50 49.9531 52 44.1875" id="BitstreamVeraSans-Roman-6d"/>
       <path d="
M9.42188 75.9844
L18.4062 75.9844
L18.4062 0
L9.42188 0
z
" id="BitstreamVeraSans-Roman-6c"/>
       <path d="
M45.4062 46.3906
L45.4062 75.9844
L54.3906 75.9844
L54.3906 0
L45.4062 0
L45.4062 8.20312
Q42.5781 3.32812 38.25 0.953125
Q33.9375 -1.42188 27.875 -1.42188
Q17.9688 -1.42188 11.7344 6.48438
Q5.51562 14.4062 5.51562 27.2969
Q5.51562 40.1875 11.7344 48.0938
Q17.9688 56 27.875 56
Q33.9375 56 38.25 53.625
Q42.5781 51.2656 45.4062 46.3906
M14.7969 27.2969
Q14.7969 17.3906 18.875 11.75
Q22.9531 6.10938 30.0781 6.10938
Q37.2031 6.10938 41.2969 11.75
Q45.4062 17.3906 45.4062 27.2969
Q45.4062 37.2031 41.2969 42.8438
Q37.2031 48.4844 30.0781 48.4844
Q22.9531 48.4844 18.875 42.8438
Q14.7969 37.2031 14.7969 27.2969" id="BitstreamVeraSans-Roman-64"/>
       <path d="
M44.2812 53.0781
L44.2812 44.5781
Q40.4844 46.5312 36.375 47.5
Q32.2812 48.4844 27.875 48.4844
Q21.1875 48.4844 17.8438 46.4375
Q14.5 44.3906 14.5 40.2812
Q14.5 37.1562 16.8906 35.375
Q19.2812 33.5938 26.5156 31.9844
L29.5938 31.2969
Q39.1562 29.25 43.1875 25.5156
Q47.2188 21.7812 47.2188 15.0938
Q47.2188 7.46875 41.1875 3.01562
Q35.1562 -1.42188 24.6094 -1.42188
Q20.2188 -1.42188 15.4531 -0.5625
Q10.6875 0.296875 5.42188 2
L5.42188 11.2812
Q10.4062 8.6875 15.2344 7.39062
Q20.0625 6.10938 24.8125 6.10938
Q31.1562 6.10938 34.5625 8.28125
Q37.9844 10.4531 37.9844 14.4062
Q37.9844 18.0625 35.5156 20.0156
Q33.0625 21.9688 24.7031 23.7812
L21.5781 24.5156
Q13.2344 26.2656 9.51562 29.9062
Q5.8125 33.5469 5.8125 39.8906
Q5.8125 47.6094 11.2812 51.7969
Q16.75 56 26.8125 56
Q31.7812 56 36.1719 55.2656
Q40.5781 54.5469 44.2812 53.0781" id="BitstreamVeraSans-Roman-73"/>
       <path d="
M48.6875 27.2969
Q48.6875 37.2031 44.6094 42.8438
Q40.5312 48.4844 33.4062 48.4844
Q26.2656 48.4844 22.1875 42.8438
Q18.1094 37.2031 18.1094 27.2969
Q18.1094 17.3906 22.1875 11.75
Q26.2656 6.10938 33.4062 6.10938
Q40.5312 6.10938 44.6094 11.75
Q48.6875 17.3906 48.6875 27.2969
M18.1094 46.3906
Q20.9531 51.2656 25.2656 53.625
Q29.5938 56 35.5938 56
Q45.5625 56 51.7812 48.0938
Q58.0156 40.1875 58.0156 27.2969
Q58.0156 14.4062 51.7812 6.48438
Q45.5625 -1.42188 35.5938 -1.42188
Q29.5938 -1.42188 25.2656 0.953125
Q20.9531 3.32812 18.1094 8.20312
L18.1094 0
L9.07812 0
L9.07812 75.9844
L18.1094 75.9844
z
" id="BitstreamVeraSans-Roman-62"/>
      </defs>
      <g transform="translate(97.89375 108.4075)scale(0.08 -0.08)">
       <use xlink:href="#BitstreamVeraSans-Roman-4c"/>
       <use x="55.712890625" xlink:href="#BitstreamVeraSans-Roman-69"/>
       <use x="83.49609375" xlink:href="#BitstreamVeraSans-Roman-70"/>
       <use x="146.97265625" xlink:href="#BitstreamVeraSans-Roman-69"/>
       <use x="174.755859375" xlink:href="#BitstreamVeraSans-Roman-64"/>
       <use x="238.232421875" xlink:href="#BitstreamVeraSans-Roman-20"/>
       <use x="270.01953125" xlink:href="#BitstreamVeraSans-Roman-6d"/>
       <use x="367.431640625" xlink:href="#BitstreamVeraSans-Roman-65"/>
       <use x="428.955078125" xlink:href="#BitstreamVeraSans-Roman-74"/>
       <use x="468.1640625" xlink:href="#BitstreamVeraSans-Roman-61"/>
       <use x="529.443359375" xlink:href="#BitstreamVeraSans-Roman-62"/>
       <use x="592.919921875" xlink:href="#BitstreamVeraSans-Roman-6f"/>
       <use x="654.1015625" xlink:href="#BitstreamVeraSans-Roman-6c"/>
       <use x="681.884765625" xlink:href="#BitstreamVeraSans-Roman-69"/>
       <use x="709.66796875" xlink:href="#BitstreamVeraSans-Roman-73"/>
       <use x="761.767578125" xlink:href="#BitstreamVeraSans-Roman-6d"/>
      </g>
     </g>
    </g>
    <g id="ytick_2">
     <g id="text_5">
      <!-- Energy metabolism -->
      <defs>
       <path d="
M9.8125 72.9062
L55.9062 72.9062
L55.9062 64.5938
L19.6719 64.5938
L19.6719 43.0156
L54.3906 43.0156
L54.3906 34.7188
L19.6719 34.7188
L19.6719 8.29688
L56.7812 8.29688
L56.7812 0
L9.8125 0
z
" id="BitstreamVeraSans-Roman-45"/>
       <path d="
M45.4062 27.9844
Q45.4062 37.75 41.375 43.1094
Q37.3594 48.4844 30.0781 48.4844
Q22.8594 48.4844 18.8281 43.1094
Q14.7969 37.75 14.7969 27.9844
Q14.7969 18.2656 18.8281 12.8906
Q22.8594 7.51562 30.0781 7.51562
Q37.3594 7.51562 41.375 12.8906
Q45.4062 18.2656 45.4062 27.9844
M54.3906 6.78125
Q54.3906 -7.17188 48.1875 -13.9844
Q42 -20.7969 29.2031 -20.7969
Q24.4688 -20.7969 20.2656 -20.0938
Q16.0625 -19.3906 12.1094 -17.9219
L12.1094 -9.1875
Q16.0625 -11.3281 19.9219 -12.3438
Q23.7812 -13.375 27.7812 -13.375
Q36.625 -13.375 41.0156 -8.76562
Q45.4062 -4.15625 45.4062 5.17188
L45.4062 9.625
Q42.625 4.78125 38.2812 2.39062
Q33.9375 0 27.875 0
Q17.8281 0 11.6719 7.65625
Q5.51562 15.3281 5.51562 27.9844
Q5.51562 40.6719 11.6719 48.3281
Q17.8281 56 27.875 56
Q33.9375 56 38.2812 53.6094
Q42.625 51.2188 45.4062 46.3906
L45.4062 54.6875
L54.3906 54.6875
z
" id="BitstreamVeraSans-Roman-67"/>
       <path d="
M32.1719 -5.07812
Q28.375 -14.8438 24.75 -17.8125
Q21.1406 -20.7969 15.0938 -20.7969
L7.90625 -20.7969
L7.90625 -13.2812
L13.1875 -13.2812
Q16.8906 -13.2812 18.9375 -11.5156
Q21 -9.76562 23.4844 -3.21875
L25.0938 0.875
L2.98438 54.6875
L12.5 54.6875
L29.5938 11.9219
L46.6875 54.6875
L56.2031 54.6875
z
" id="BitstreamVeraSans-Roman-79"/>
      </defs>
      <g transform="translate(88.94375 95.8075)scale(0.08 -0.08)">
       <use xlink:href="#BitstreamVeraSans-Roman-45"/>
       <use x="63.18359375" xlink:href="#BitstreamVeraSans-Roman-6e"/>
       <use x="126.5625" xlink:href="#BitstreamVeraSans-Roman-65"/>
       <use x="188.0859375" xlink:href="#BitstreamVeraSans-Roman-72"/>
       <use x="227.44921875" xlink:href="#BitstreamVeraSans-Roman-67"/>
       <use x="290.92578125" xlink:href="#BitstreamVeraSans-Roman-79"/>
       <use x="350.10546875" xlink:href="#BitstreamVeraSans-Roman-20"/>
       <use x="381.892578125" xlink:href="#BitstreamVeraSans-Roman-6d"/>
       <use x="479.3046875" xlink:href="#BitstreamVeraSans-Roman-65"/>
       <use x="540.828125" xlink:href="#BitstreamVeraSans-Roman-74"/>
       <use x="580.037109375" xlink:href="#BitstreamVeraSans-Roman-61"/>
       <use x="641.31640625" xlink:href="#BitstreamVeraSans-Roman-62"/>
       <use x="704.79296875" xlink:href="#BitstreamVeraSans-Roman-6f"/>
       <use x="765.974609375" xlink:href="#BitstreamVeraSans-Roman-6c"/>
       <use x="793.7578125" xlink:href="#BitstreamVeraSans-Roman-69"/>
       <use x="821.541015625" xlink:href="#BitstreamVeraSans-Roman-73"/>
       <use x="873.640625" xlink:href="#BitstreamVeraSans-Roman-6d"/>
      </g>
     </g>
    </g>
    <g id="ytick_3">
     <g id="text_6">
      <!-- Folding, sorting and degradation -->
      <defs>
       <path d="
M9.8125 72.9062
L51.7031 72.9062
L51.7031 64.5938
L19.6719 64.5938
L19.6719 43.1094
L48.5781 43.1094
L48.5781 34.8125
L19.6719 34.8125
L19.6719 0
L9.8125 0
z
" id="BitstreamVeraSans-Roman-46"/>
       <path d="
M11.7188 12.4062
L22.0156 12.4062
L22.0156 4
L14.0156 -11.625
L7.71875 -11.625
L11.7188 4
z
" id="BitstreamVeraSans-Roman-2c"/>
      </defs>
      <g transform="translate(36.09375 83.2075)scale(0.08 -0.08)">
       <use xlink:href="#BitstreamVeraSans-Roman-46"/>
       <use x="53.89453125" xlink:href="#BitstreamVeraSans-Roman-6f"/>
       <use x="115.076171875" xlink:href="#BitstreamVeraSans-Roman-6c"/>
       <use x="142.859375" xlink:href="#BitstreamVeraSans-Roman-64"/>
       <use x="206.3359375" xlink:href="#BitstreamVeraSans-Roman-69"/>
       <use x="234.119140625" xlink:href="#BitstreamVeraSans-Roman-6e"/>
       <use x="297.498046875" xlink:href="#BitstreamVeraSans-Roman-67"/>
       <use x="360.974609375" xlink:href="#BitstreamVeraSans-Roman-2c"/>
       <use x="392.76171875" xlink:href="#BitstreamVeraSans-Roman-20"/>
       <use x="424.548828125" xlink:href="#BitstreamVeraSans-Roman-73"/>
       <use x="476.6484375" xlink:href="#BitstreamVeraSans-Roman-6f"/>
       <use x="537.830078125" xlink:href="#BitstreamVeraSans-Roman-72"/>
       <use x="578.943359375" xlink:href="#BitstreamVeraSans-Roman-74"/>
       <use x="618.15234375" xlink:href="#BitstreamVeraSans-Roman-69"/>
       <use x="645.935546875" xlink:href="#BitstreamVeraSans-Roman-6e"/>
       <use x="709.314453125" xlink:href="#BitstreamVeraSans-Roman-67"/>
       <use x="772.791015625" xlink:href="#BitstreamVeraSans-Roman-20"/>
       <use x="804.578125" xlink:href="#BitstreamVeraSans-Roman-61"/>
       <use x="865.857421875" xlink:href="#BitstreamVeraSans-Roman-6e"/>
       <use x="929.236328125" xlink:href="#BitstreamVeraSans-Roman-64"/>
       <use x="992.712890625" xlink:href="#BitstreamVeraSans-Roman-20"/>
       <use x="1024.5" xlink:href="#BitstreamVeraSans-Roman-64"/>
       <use x="1087.9765625" xlink:href="#BitstreamVeraSans-Roman-65"/>
       <use x="1149.5" xlink:href="#BitstreamVeraSans-Roman-67"/>
       <use x="1212.9765625" xlink:href="#BitstreamVeraSans-Roman-72"/>
       <use x="1254.08984375" xlink:href="#BitstreamVeraSans-Roman-61"/>
       <use x="1315.36914062" xlink:href="#BitstreamVeraSans-Roman-64"/>
       <use x="1378.84570312" xlink:href="#BitstreamVeraSans-Roman-61"/>
       <use x="1440.125" xlink:href="#BitstreamVeraSans-Roman-74"/>
       <use x="1479.33398438" xlink:href="#BitstreamVeraSans-Roman-69"/>
       <use x="1507.1171875" xlink:href="#BitstreamVeraSans-Roman-6f"/>
       <use x="1568.29882812" xlink:href="#BitstreamVeraSans-Roman-6e"/>
      </g>
     </g>
    </g>
    <g id="ytick_4">
     <g id="text_7">
      <!-- Chemical structure transformation maps -->
      <defs>
       <path d="
M37.1094 75.9844
L37.1094 68.5
L28.5156 68.5
Q23.6875 68.5 21.7969 66.5469
Q19.9219 64.5938 19.9219 59.5156
L19.9219 54.6875
L34.7188 54.6875
L34.7188 47.7031
L19.9219 47.7031
L19.9219 0
L10.8906 0
L10.8906 47.7031
L2.29688 47.7031
L2.29688 54.6875
L10.8906 54.6875
L10.8906 58.5
Q10.8906 67.625 15.1406 71.7969
Q19.3906 75.9844 28.6094 75.9844
z
" id="BitstreamVeraSans-Roman-66"/>
       <path d="
M8.5 21.5781
L8.5 54.6875
L17.4844 54.6875
L17.4844 21.9219
Q17.4844 14.1562 20.5 10.2656
Q23.5312 6.39062 29.5938 6.39062
Q36.8594 6.39062 41.0781 11.0312
Q45.3125 15.6719 45.3125 23.6875
L45.3125 54.6875
L54.2969 54.6875
L54.2969 0
L45.3125 0
L45.3125 8.40625
Q42.0469 3.42188 37.7188 1
Q33.4062 -1.42188 27.6875 -1.42188
Q18.2656 -1.42188 13.375 4.4375
Q8.5 10.2969 8.5 21.5781" id="BitstreamVeraSans-Roman-75"/>
       <path d="
M64.4062 67.2812
L64.4062 56.8906
Q59.4219 61.5312 53.7812 63.8125
Q48.1406 66.1094 41.7969 66.1094
Q29.2969 66.1094 22.6562 58.4688
Q16.0156 50.8281 16.0156 36.375
Q16.0156 21.9688 22.6562 14.3281
Q29.2969 6.6875 41.7969 6.6875
Q48.1406 6.6875 53.7812 8.98438
Q59.4219 11.2812 64.4062 15.9219
L64.4062 5.60938
Q59.2344 2.09375 53.4375 0.328125
Q47.6562 -1.42188 41.2188 -1.42188
Q24.6562 -1.42188 15.125 8.70312
Q5.60938 18.8438 5.60938 36.375
Q5.60938 53.9531 15.125 64.0781
Q24.6562 74.2188 41.2188 74.2188
Q47.75 74.2188 53.5312 72.4844
Q59.3281 70.75 64.4062 67.2812" id="BitstreamVeraSans-Roman-43"/>
       <path d="
M54.8906 33.0156
L54.8906 0
L45.9062 0
L45.9062 32.7188
Q45.9062 40.4844 42.875 44.3281
Q39.8438 48.1875 33.7969 48.1875
Q26.5156 48.1875 22.3125 43.5469
Q18.1094 38.9219 18.1094 30.9062
L18.1094 0
L9.07812 0
L9.07812 75.9844
L18.1094 75.9844
L18.1094 46.1875
Q21.3438 51.125 25.7031 53.5625
Q30.0781 56 35.7969 56
Q45.2188 56 50.0469 50.1719
Q54.8906 44.3438 54.8906 33.0156" id="BitstreamVeraSans-Roman-68"/>
       <path d="
M48.7812 52.5938
L48.7812 44.1875
Q44.9688 46.2969 41.1406 47.3438
Q37.3125 48.3906 33.4062 48.3906
Q24.6562 48.3906 19.8125 42.8438
Q14.9844 37.3125 14.9844 27.2969
Q14.9844 17.2812 19.8125 11.7344
Q24.6562 6.20312 33.4062 6.20312
Q37.3125 6.20312 41.1406 7.25
Q44.9688 8.29688 48.7812 10.4062
L48.7812 2.09375
Q45.0156 0.34375 40.9844 -0.53125
Q36.9688 -1.42188 32.4219 -1.42188
Q20.0625 -1.42188 12.7812 6.34375
Q5.51562 14.1094 5.51562 27.2969
Q5.51562 40.6719 12.8594 48.3281
Q20.2188 56 33.0156 56
Q37.1562 56 41.1094 55.1406
Q45.0625 54.2969 48.7812 52.5938" id="BitstreamVeraSans-Roman-63"/>
      </defs>
      <g transform="translate(3.91125 70.6075)scale(0.08 -0.08)">
       <use xlink:href="#BitstreamVeraSans-Roman-43"/>
       <use x="69.82421875" xlink:href="#BitstreamVeraSans-Roman-68"/>
       <use x="133.203125" xlink:href="#BitstreamVeraSans-Roman-65"/>
       <use x="194.7265625" xlink:href="#BitstreamVeraSans-Roman-6d"/>
       <use x="292.138671875" xlink:href="#BitstreamVeraSans-Roman-69"/>
       <use x="319.921875" xlink:href="#BitstreamVeraSans-Roman-63"/>
       <use x="374.90234375" xlink:href="#BitstreamVeraSans-Roman-61"/>
       <use x="436.181640625" xlink:href="#BitstreamVeraSans-Roman-6c"/>
       <use x="463.96484375" xlink:href="#BitstreamVeraSans-Roman-20"/>
       <use x="495.751953125" xlink:href="#BitstreamVeraSans-Roman-73"/>
       <use x="547.8515625" xlink:href="#BitstreamVeraSans-Roman-74"/>
       <use x="587.060546875" xlink:href="#BitstreamVeraSans-Roman-72"/>
       <use x="628.173828125" xlink:href="#BitstreamVeraSans-Roman-75"/>
       <use x="691.552734375" xlink:href="#BitstreamVeraSans-Roman-63"/>
       <use x="746.533203125" xlink:href="#BitstreamVeraSans-Roman-74"/>
       <use x="785.7421875" xlink:href="#BitstreamVeraSans-Roman-75"/>
       <use x="849.12109375" xlink:href="#BitstreamVeraSans-Roman-72"/>
       <use x="887.984375" xlink:href="#BitstreamVeraSans-Roman-65"/>
       <use x="949.5078125" xlink:href="#BitstreamVeraSans-Roman-20"/>
       <use x="981.294921875" xlink:href="#BitstreamVeraSans-Roman-74"/>
       <use x="1020.50390625" xlink:href="#BitstreamVeraSans-Roman-72"/>
       <use x="1061.6171875" xlink:href="#BitstreamVeraSans-Roman-61"/>
       <use x="1122.89648438" xlink:href="#BitstreamVeraSans-Roman-6e"/>
       <use x="1186.27539062" xlink:href="#BitstreamVeraSans-Roman-73"/>
       <use x="1238.375" xlink:href="#BitstreamVeraSans-Roman-66"/>
       <use x="1273.58007812" xlink:href="#BitstreamVeraSans-Roman-6f"/>
       <use x="1334.76171875" xlink:href="#BitstreamVeraSans-Roman-72"/>
       <use x="1374.125" xlink:href="#BitstreamVeraSans-Roman-6d"/>
       <use x="1471.53710938" xlink:href="#BitstreamVeraSans-Roman-61"/>
       <use x="1532.81640625" xlink:href="#BitstreamVeraSans-Roman-74"/>
       <use x="1572.02539062" xlink:href="#BitstreamVeraSans-Roman-69"/>
       <use x="1599.80859375" xlink:href="#BitstreamVeraSans-Roman-6f"/>
       <use x="1660.99023438" xlink:href="#BitstreamVeraSans-Roman-6e"/>
       <use x="1724.36914062" xlink:href="#BitstreamVeraSans-Roman-20"/>
       <use x="1756.15625" xlink:href="#BitstreamVeraSans-Roman-6d"/>
       <use x="1853.56835938" xlink:href="#BitstreamVeraSans-Roman-61"/>
       <use x="1914.84765625" xlink:href="#BitstreamVeraSans-Roman-70"/>
       <use x="1978.32421875" xlink:href="#BitstreamVeraSans-Roman-73"/>
      </g>
     </g>
    </g>
    <g id="ytick_5">
     <g id="text_8">
      <!-- Carbohydrate metabolism -->
      <g transform="translate(62.06875 58.0075)scale(0.08 -0.08)">
       <use xlink:href="#BitstreamVeraSans-Roman-43"/>
       <use x="69.82421875" xlink:href="#BitstreamVeraSans-Roman-61"/>
       <use x="131.103515625" xlink:href="#BitstreamVeraSans-Roman-72"/>
       <use x="172.216796875" xlink:href="#BitstreamVeraSans-Roman-62"/>
       <use x="235.693359375" xlink:href="#BitstreamVeraSans-Roman-6f"/>
       <use x="296.875" xlink:href="#BitstreamVeraSans-Roman-68"/>
       <use x="360.25390625" xlink:href="#BitstreamVeraSans-Roman-79"/>
       <use x="419.43359375" xlink:href="#BitstreamVeraSans-Roman-64"/>
       <use x="482.91015625" xlink:href="#BitstreamVeraSans-Roman-72"/>
       <use x="524.0234375" xlink:href="#BitstreamVeraSans-Roman-61"/>
       <use x="585.302734375" xlink:href="#BitstreamVeraSans-Roman-74"/>
       <use x="624.51171875" xlink:href="#BitstreamVeraSans-Roman-65"/>
       <use x="686.03515625" xlink:href="#BitstreamVeraSans-Roman-20"/>
       <use x="717.822265625" xlink:href="#BitstreamVeraSans-Roman-6d"/>
       <use x="815.234375" xlink:href="#BitstreamVeraSans-Roman-65"/>
       <use x="876.7578125" xlink:href="#BitstreamVeraSans-Roman-74"/>
       <use x="915.966796875" xlink:href="#BitstreamVeraSans-Roman-61"/>
       <use x="977.24609375" xlink:href="#BitstreamVeraSans-Roman-62"/>
       <use x="1040.72265625" xlink:href="#BitstreamVeraSans-Roman-6f"/>
       <use x="1101.90429688" xlink:href="#BitstreamVeraSans-Roman-6c"/>
       <use x="1129.6875" xlink:href="#BitstreamVeraSans-Roman-69"/>
       <use x="1157.47070312" xlink:href="#BitstreamVeraSans-Roman-73"/>
       <use x="1209.5703125" xlink:href="#BitstreamVeraSans-Roman-6d"/>
      </g>
     </g>
    </g>
    <g id="ytick_6">
     <g id="text_9">
      <!-- Glycan biosynthesis and metabolism -->
      <defs>
       <path d="
M59.5156 10.4062
L59.5156 29.9844
L43.4062 29.9844
L43.4062 38.0938
L69.2812 38.0938
L69.2812 6.78125
Q63.5781 2.73438 56.6875 0.65625
Q49.8125 -1.42188 42 -1.42188
Q24.9062 -1.42188 15.25 8.5625
Q5.60938 18.5625 5.60938 36.375
Q5.60938 54.25 15.25 64.2344
Q24.9062 74.2188 42 74.2188
Q49.125 74.2188 55.5469 72.4531
Q61.9688 70.7031 67.3906 67.2812
L67.3906 56.7812
Q61.9219 61.4219 55.7656 63.7656
Q49.6094 66.1094 42.8281 66.1094
Q29.4375 66.1094 22.7188 58.6406
Q16.0156 51.1719 16.0156 36.375
Q16.0156 21.625 22.7188 14.1562
Q29.4375 6.6875 42.8281 6.6875
Q48.0469 6.6875 52.1406 7.59375
Q56.25 8.5 59.5156 10.4062" id="BitstreamVeraSans-Roman-47"/>
      </defs>
      <g transform="translate(19.435 45.4075)scale(0.08 -0.08)">
       <use xlink:href="#BitstreamVeraSans-Roman-47"/>
       <use x="77.490234375" xlink:href="#BitstreamVeraSans-Roman-6c"/>
       <use x="105.2734375" xlink:href="#BitstreamVeraSans-Roman-79"/>
       <use x="164.453125" xlink:href="#BitstreamVeraSans-Roman-63"/>
       <use x="219.43359375" xlink:href="#BitstreamVeraSans-Roman-61"/>
       <use x="280.712890625" xlink:href="#BitstreamVeraSans-Roman-6e"/>
       <use x="344.091796875" xlink:href="#BitstreamVeraSans-Roman-20"/>
       <use x="375.87890625" xlink:href="#BitstreamVeraSans-Roman-62"/>
       <use x="439.35546875" xlink:href="#BitstreamVeraSans-Roman-69"/>
       <use x="467.138671875" xlink:href="#BitstreamVeraSans-Roman-6f"/>
       <use x="528.3203125" xlink:href="#BitstreamVeraSans-Roman-73"/>
       <use x="580.419921875" xlink:href="#BitstreamVeraSans-Roman-79"/>
       <use x="639.599609375" xlink:href="#BitstreamVeraSans-Roman-6e"/>
       <use x="702.978515625" xlink:href="#BitstreamVeraSans-Roman-74"/>
       <use x="742.1875" xlink:href="#BitstreamVeraSans-Roman-68"/>
       <use x="805.56640625" xlink:href="#BitstreamVeraSans-Roman-65"/>
       <use x="867.08984375" xlink:href="#BitstreamVeraSans-Roman-73"/>
       <use x="919.189453125" xlink:href="#BitstreamVeraSans-Roman-69"/>
       <use x="946.97265625" xlink:href="#BitstreamVeraSans-Roman-73"/>
       <use x="999.072265625" xlink:href="#BitstreamVeraSans-Roman-20"/>
       <use x="1030.859375" xlink:href="#BitstreamVeraSans-Roman-61"/>
       <use x="1092.13867188" xlink:href="#BitstreamVeraSans-Roman-6e"/>
       <use x="1155.51757812" xlink:href="#BitstreamVeraSans-Roman-64"/>
       <use x="1218.99414062" xlink:href="#BitstreamVeraSans-Roman-20"/>
       <use x="1250.78125" xlink:href="#BitstreamVeraSans-Roman-6d"/>
       <use x="1348.19335938" xlink:href="#BitstreamVeraSans-Roman-65"/>
       <use x="1409.71679688" xlink:href="#BitstreamVeraSans-Roman-74"/>
       <use x="1448.92578125" xlink:href="#BitstreamVeraSans-Roman-61"/>
       <use x="1510.20507812" xlink:href="#BitstreamVeraSans-Roman-62"/>
       <use x="1573.68164062" xlink:href="#BitstreamVeraSans-Roman-6f"/>
       <use x="1634.86328125" xlink:href="#BitstreamVeraSans-Roman-6c"/>
       <use x="1662.64648438" xlink:href="#BitstreamVeraSans-Roman-69"/>
       <use x="1690.4296875" xlink:href="#BitstreamVeraSans-Roman-73"/>
       <use x="1742.52929688" xlink:href="#BitstreamVeraSans-Roman-6d"/>
      </g>
     </g>
    </g>
    <g id="ytick_7">
     <g id="text_10">
      <!-- Cell motility -->
      <g transform="translate(118.33 32.8075)scale(0.08 -0.08)">
       <use xlink:href="#BitstreamVeraSans-Roman-43"/>
       <use x="69.82421875" xlink:href="#BitstreamVeraSans-Roman-65"/>
       <use x="131.34765625" xlink:href="#BitstreamVeraSans-Roman-6c"/>
       <use x="159.130859375" xlink:href="#BitstreamVeraSans-Roman-6c"/>
       <use x="186.9140625" xlink:href="#BitstreamVeraSans-Roman-20"/>
       <use x="218.701171875" xlink:href="#BitstreamVeraSans-Roman-6d"/>
       <use x="316.11328125" xlink:href="#BitstreamVeraSans-Roman-6f"/>
       <use x="377.294921875" xlink:href="#BitstreamVeraSans-Roman-74"/>
       <use x="416.50390625" xlink:href="#BitstreamVeraSans-Roman-69"/>
       <use x="444.287109375" xlink:href="#BitstreamVeraSans-Roman-6c"/>
       <use x="472.0703125" xlink:href="#BitstreamVeraSans-Roman-69"/>
       <use x="499.853515625" xlink:href="#BitstreamVeraSans-Roman-74"/>
       <use x="539.0625" xlink:href="#BitstreamVeraSans-Roman-79"/>
      </g>
     </g>
    </g>
   </g>
  </g>
  <g id="axes_2">
   <g id="patch_25">
    <path d="
M277.95 118.8
L666 118.8
L666 18
L277.95 18
z
" style="fill:#ffffff;"/>
   </g>
   <g id="patch_26">
    <path clip-path="url(#pd59ea78884)" d="
M277.95 112.5
L277.95 99.9
L666 99.9
L666 112.5
z
" style="fill:#e6e6e6;"/>
   </g>
   <g id="patch_27">
    <path clip-path="url(#pd59ea78884)" d="
M277.95 87.3
L277.95 74.7
L666 74.7
L666 87.3
z
" style="fill:#e6e6e6;"/>
   </g>
   <g id="patch_28">
    <path clip-path="url(#pd59ea78884)" d="
M277.95 62.1
L277.95 49.5
L666 49.5
L666 62.1
z
" style="fill:#e6e6e6;"/>
   </g>
   <g id="patch_29">
    <path clip-path="url(#pd59ea78884)" d="
M277.95 36.9
L277.95 24.3
L666 24.3
L666 36.9
z
" style="fill:#e6e6e6;"/>
   </g>
   <g id="LineCollection_3">
    <path clip-path="url(#pd59ea78884)" d="
M471.975 118.8
L471.975 18" style="fill:none;stroke:#7f7f7f;stroke-dasharray:6.000000,6.000000;stroke-dashoffset:0.0;"/>
   </g>
   <g id="patch_30">
    <path d="
M277.95 18
L666 18" style="fill:none;"/>
   </g>
   <g id="patch_31">
    <path d="
M666 118.8
L666 18" style="fill:none;"/>
   </g>
   <g id="patch_32">
    <path d="
M277.95 118.8
L666 118.8" style="fill:none;stroke:#7f7f7f;stroke-linecap:square;stroke-linejoin:miter;"/>
   </g>
   <g id="patch_33">
    <path d="
M277.95 118.8
L277.95 18" style="fill:none;"/>
   </g>
   <g id="matplotlib.axis_3">
    <g id="xtick_3">
     <g id="line2d_7">
      <g>
       <use style="fill:#7f7f7f;stroke:#7f7f7f;stroke-width:0.5;" x="277.95" xlink:href="#m52ec4ef45c" y="118.8"/>
      </g>
     </g>
     <g id="text_11">
      <!-- −1.5 -->
      <defs>
       <path d="
M10.5938 35.5
L73.1875 35.5
L73.1875 27.2031
L10.5938 27.2031
z
" id="BitstreamVeraSans-Roman-2212"/>
      </defs>
      <g transform="translate(269.01 128.87875)scale(0.08 -0.08)">
       <use xlink:href="#BitstreamVeraSans-Roman-2212"/>
       <use x="83.7890625" xlink:href="#BitstreamVeraSans-Roman-31"/>
       <use x="147.412109375" xlink:href="#BitstreamVeraSans-Roman-2e"/>
       <use x="179.19921875" xlink:href="#BitstreamVeraSans-Roman-35"/>
      </g>
     </g>
    </g>
    <g id="xtick_4">
     <g id="line2d_8">
      <g>
       <use style="fill:#7f7f7f;stroke:#7f7f7f;stroke-width:0.5;" x="342.625" xlink:href="#m52ec4ef45c" y="118.8"/>
      </g>
     </g>
     <g id="text_12">
      <!-- −1.0 -->
      <g transform="translate(333.60125 128.87875)scale(0.08 -0.08)">
       <use xlink:href="#BitstreamVeraSans-Roman-2212"/>
       <use x="83.7890625" xlink:href="#BitstreamVeraSans-Roman-31"/>
       <use x="147.412109375" xlink:href="#BitstreamVeraSans-Roman-2e"/>
       <use x="179.19921875" xlink:href="#BitstreamVeraSans-Roman-30"/>
      </g>
     </g>
    </g>
    <g id="xtick_5">
     <g id="line2d_9">
      <g>
       <use style="fill:#7f7f7f;stroke:#7f7f7f;stroke-width:0.5;" x="407.3" xlink:href="#m52ec4ef45c" y="118.8"/>
      </g>
     </g>
     <g id="text_13">
      <!-- −0.5 -->
      <g transform="translate(398.36 128.87875)scale(0.08 -0.08)">
       <use xlink:href="#BitstreamVeraSans-Roman-2212"/>
       <use x="83.7890625" xlink:href="#BitstreamVeraSans-Roman-30"/>
       <use x="147.412109375" xlink:href="#BitstreamVeraSans-Roman-2e"/>
       <use x="179.19921875" xlink:href="#BitstreamVeraSans-Roman-35"/>
      </g>
     </g>
    </g>
    <g id="xtick_6">
     <g id="line2d_10">
      <g>
       <use style="fill:#7f7f7f;stroke:#7f7f7f;stroke-width:0.5;" x="471.975" xlink:href="#m52ec4ef45c" y="118.8"/>
      </g>
     </g>
     <g id="text_14">
      <!-- 0.0 -->
      <g transform="translate(466.143125 128.87875)scale(0.08 -0.08)">
       <use xlink:href="#BitstreamVeraSans-Roman-30"/>
       <use x="63.623046875" xlink:href="#BitstreamVeraSans-Roman-2e"/>
       <use x="95.41015625" xlink:href="#BitstreamVeraSans-Roman-30"/>
      </g>
     </g>
    </g>
    <g id="xtick_7">
     <g id="line2d_11">
      <g>
       <use style="fill:#7f7f7f;stroke:#7f7f7f;stroke-width:0.5;" x="536.65" xlink:href="#m52ec4ef45c" y="118.8"/>
      </g>
     </g>
     <g id="text_15">
      <!-- 0.5 -->
      <g transform="translate(530.901875 128.87875)scale(0.08 -0.08)">
       <use xlink:href="#BitstreamVeraSans-Roman-30"/>
       <use x="63.623046875" xlink:href="#BitstreamVeraSans-Roman-2e"/>
       <use x="95.41015625" xlink:href="#BitstreamVeraSans-Roman-35"/>
      </g>
     </g>
    </g>
    <g id="xtick_8">
     <g id="line2d_12">
      <g>
       <use style="fill:#7f7f7f;stroke:#7f7f7f;stroke-width:0.5;" x="601.325" xlink:href="#m52ec4ef45c" y="118.8"/>
      </g>
     </g>
     <g id="text_16">
      <!-- 1.0 -->
      <g transform="translate(595.66875 128.87875)scale(0.08 -0.08)">
       <use xlink:href="#BitstreamVeraSans-Roman-31"/>
       <use x="63.623046875" xlink:href="#BitstreamVeraSans-Roman-2e"/>
       <use x="95.41015625" xlink:href="#BitstreamVeraSans-Roman-30"/>
      </g>
     </g>
    </g>
    <g id="xtick_9">
     <g id="line2d_13">
      <g>
       <use style="fill:#7f7f7f;stroke:#7f7f7f;stroke-width:0.5;" x="666.0" xlink:href="#m52ec4ef45c" y="118.8"/>
      </g>
     </g>
     <g id="text_17">
      <!-- 1.5 -->
      <g transform="translate(660.4275 128.87875)scale(0.08 -0.08)">
       <use xlink:href="#BitstreamVeraSans-Roman-31"/>
       <use x="63.623046875" xlink:href="#BitstreamVeraSans-Roman-2e"/>
       <use x="95.41015625" xlink:href="#BitstreamVeraSans-Roman-35"/>
      </g>
     </g>
    </g>
    <g id="text_18">
     <!-- Difference in mean proportions (%) -->
     <defs>
      <path d="
M19.6719 64.7969
L19.6719 8.10938
L31.5938 8.10938
Q46.6875 8.10938 53.6875 14.9375
Q60.6875 21.7812 60.6875 36.5312
Q60.6875 51.1719 53.6875 57.9844
Q46.6875 64.7969 31.5938 64.7969
z

M9.8125 72.9062
L30.0781 72.9062
Q51.2656 72.9062 61.1719 64.0938
Q71.0938 55.2812 71.0938 36.5312
Q71.0938 17.6719 61.125 8.82812
Q51.1719 0 30.0781 0
L9.8125 0
z
" id="BitstreamVeraSans-Roman-44"/>
     </defs>
     <g transform="translate(401.72375 141.62125)scale(0.08 -0.08)">
      <use xlink:href="#BitstreamVeraSans-Roman-44"/>
      <use x="77.001953125" xlink:href="#BitstreamVeraSans-Roman-69"/>
      <use x="104.78515625" xlink:href="#BitstreamVeraSans-Roman-66"/>
      <use x="139.990234375" xlink:href="#BitstreamVeraSans-Roman-66"/>
      <use x="175.1953125" xlink:href="#BitstreamVeraSans-Roman-65"/>
      <use x="236.71875" xlink:href="#BitstreamVeraSans-Roman-72"/>
      <use x="275.58203125" xlink:href="#BitstreamVeraSans-Roman-65"/>
      <use x="337.10546875" xlink:href="#BitstreamVeraSans-Roman-6e"/>
      <use x="400.484375" xlink:href="#BitstreamVeraSans-Roman-63"/>
      <use x="455.46484375" xlink:href="#BitstreamVeraSans-Roman-65"/>
      <use x="516.98828125" xlink:href="#BitstreamVeraSans-Roman-20"/>
      <use x="548.775390625" xlink:href="#BitstreamVeraSans-Roman-69"/>
      <use x="576.55859375" xlink:href="#BitstreamVeraSans-Roman-6e"/>
      <use x="639.9375" xlink:href="#BitstreamVeraSans-Roman-20"/>
      <use x="671.724609375" xlink:href="#BitstreamVeraSans-Roman-6d"/>
      <use x="769.13671875" xlink:href="#BitstreamVeraSans-Roman-65"/>
      <use x="830.66015625" xlink:href="#BitstreamVeraSans-Roman-61"/>
      <use x="891.939453125" xlink:href="#BitstreamVeraSans-Roman-6e"/>
      <use x="955.318359375" xlink:href="#BitstreamVeraSans-Roman-20"/>
      <use x="987.10546875" xlink:href="#BitstreamVeraSans-Roman-70"/>
      <use x="1050.58203125" xlink:href="#BitstreamVeraSans-Roman-72"/>
      <use x="1089.4453125" xlink:href="#BitstreamVeraSans-Roman-6f"/>
      <use x="1150.62695312" xlink:href="#BitstreamVeraSans-Roman-70"/>
      <use x="1214.10351562" xlink:href="#BitstreamVeraSans-Roman-6f"/>
      <use x="1275.28515625" xlink:href="#BitstreamVeraSans-Roman-72"/>
      <use x="1316.3984375" xlink:href="#BitstreamVeraSans-Roman-74"/>
      <use x="1355.60742188" xlink:href="#BitstreamVeraSans-Roman-69"/>
      <use x="1383.390625" xlink:href="#BitstreamVeraSans-Roman-6f"/>
      <use x="1444.57226562" xlink:href="#BitstreamVeraSans-Roman-6e"/>
      <use x="1507.95117188" xlink:href="#BitstreamVeraSans-Roman-73"/>
      <use x="1560.05078125" xlink:href="#BitstreamVeraSans-Roman-20"/>
      <use x="1591.83789062" xlink:href="#BitstreamVeraSans-Roman-28"/>
      <use x="1630.8515625" xlink:href="#BitstreamVeraSans-Roman-25"/>
      <use x="1725.87109375" xlink:href="#BitstreamVeraSans-Roman-29"/>
     </g>
    </g>
   </g>
   <g id="matplotlib.axis_4"/>
   <g id="text_19">
    <!-- 95% confidence intervals -->
    <defs>
     <path d="
M2.98438 54.6875
L12.5 54.6875
L29.5938 8.79688
L46.6875 54.6875
L56.2031 54.6875
L35.6875 0
L23.4844 0
z
" id="BitstreamVeraSans-Roman-76"/>
     <path d="
M10.9844 1.51562
L10.9844 10.5
Q14.7031 8.73438 18.5 7.8125
Q22.3125 6.89062 25.9844 6.89062
Q35.75 6.89062 40.8906 13.4531
Q46.0469 20.0156 46.7812 33.4062
Q43.9531 29.2031 39.5938 26.9531
Q35.25 24.7031 29.9844 24.7031
Q19.0469 24.7031 12.6719 31.3125
Q6.29688 37.9375 6.29688 49.4219
Q6.29688 60.6406 12.9375 67.4219
Q19.5781 74.2188 30.6094 74.2188
Q43.2656 74.2188 49.9219 64.5156
Q56.5938 54.8281 56.5938 36.375
Q56.5938 19.1406 48.4062 8.85938
Q40.2344 -1.42188 26.4219 -1.42188
Q22.7031 -1.42188 18.8906 -0.6875
Q15.0938 0.046875 10.9844 1.51562
M30.6094 32.4219
Q37.25 32.4219 41.125 36.9531
Q45.0156 41.5 45.0156 49.4219
Q45.0156 57.2812 41.125 61.8438
Q37.25 66.4062 30.6094 66.4062
Q23.9688 66.4062 20.0938 61.8438
Q16.2188 57.2812 16.2188 49.4219
Q16.2188 41.5 20.0938 36.9531
Q23.9688 32.4219 30.6094 32.4219" id="BitstreamVeraSans-Roman-39"/>
    </defs>
    <g transform="translate(421.505625 13.0)scale(0.08 -0.08)">
     <use xlink:href="#BitstreamVeraSans-Roman-39"/>
     <use x="63.623046875" xlink:href="#BitstreamVeraSans-Roman-35"/>
     <use x="127.24609375" xlink:href="#BitstreamVeraSans-Roman-25"/>
     <use x="222.265625" xlink:href="#BitstreamVeraSans-Roman-20"/>
     <use x="254.052734375" xlink:href="#BitstreamVeraSans-Roman-63"/>
     <use x="309.033203125" xlink:href="#BitstreamVeraSans-Roman-6f"/>
     <use x="370.21484375" xlink:href="#BitstreamVeraSans-Roman-6e"/>
     <use x="433.59375" xlink:href="#BitstreamVeraSans-Roman-66"/>
     <use x="468.798828125" xlink:href="#BitstreamVeraSans-Roman-69"/>
     <use x="496.58203125" xlink:href="#BitstreamVeraSans-Roman-64"/>
     <use x="560.05859375" xlink:href="#BitstreamVeraSans-Roman-65"/>
     <use x="621.58203125" xlink:href="#BitstreamVeraSans-Roman-6e"/>
     <use x="684.9609375" xlink:href="#BitstreamVeraSans-Roman-63"/>
     <use x="739.94140625" xlink:href="#BitstreamVeraSans-Roman-65"/>
     <use x="801.46484375" xlink:href="#BitstreamVeraSans-Roman-20"/>
     <use x="833.251953125" xlink:href="#BitstreamVeraSans-Roman-69"/>
     <use x="861.03515625" xlink:href="#BitstreamVeraSans-Roman-6e"/>
     <use x="924.4140625" xlink:href="#BitstreamVeraSans-Roman-74"/>
     <use x="963.623046875" xlink:href="#BitstreamVeraSans-Roman-65"/>
     <use x="1025.14648438" xlink:href="#BitstreamVeraSans-Roman-72"/>
     <use x="1066.25976562" xlink:href="#BitstreamVeraSans-Roman-76"/>
     <use x="1125.43945312" xlink:href="#BitstreamVeraSans-Roman-61"/>
     <use x="1186.71875" xlink:href="#BitstreamVeraSans-Roman-6c"/>
     <use x="1214.50195312" xlink:href="#BitstreamVeraSans-Roman-73"/>
    </g>
   </g>
   <g id="LineCollection_4">
    <path clip-path="url(#pd59ea78884)" d="
M436.217 106.2
L467.294 106.2" style="fill:none;stroke:#000000;"/>
    <path clip-path="url(#pd59ea78884)" d="
M442.053 93.6
L458.546 93.6" style="fill:none;stroke:#000000;"/>
    <path clip-path="url(#pd59ea78884)" d="
M430.823 81
L451.277 81" style="fill:none;stroke:#000000;"/>
    <path clip-path="url(#pd59ea78884)" d="
M487.676 68.4
L518.763 68.4" style="fill:none;stroke:#000000;"/>
    <path clip-path="url(#pd59ea78884)" d="
M494.056 55.8
L552.793 55.8" style="fill:none;stroke:#000000;"/>
    <path clip-path="url(#pd59ea78884)" d="
M500.225 43.2
L632.839 43.2" style="fill:none;stroke:#000000;"/>
    <path clip-path="url(#pd59ea78884)" d="
M330.288 30.6
L407.972 30.6" style="fill:none;stroke:#000000;"/>
   </g>
   <g id="line2d_14">
    <defs>
     <path d="
M0 3
L0 -3" id="mca62528ba1" style="stroke:#000000;stroke-width:0.5;"/>
    </defs>
    <g clip-path="url(#pd59ea78884)">
     <use style="stroke:#000000;stroke-width:0.5;" x="436.21748364" xlink:href="#mca62528ba1" y="106.2"/>
     <use style="stroke:#000000;stroke-width:0.5;" x="442.053253662" xlink:href="#mca62528ba1" y="93.6"/>
     <use style="stroke:#000000;stroke-width:0.5;" x="430.823315103" xlink:href="#mca62528ba1" y="81.0"/>
     <use style="stroke:#000000;stroke-width:0.5;" x="487.67608011" xlink:href="#mca62528ba1" y="68.4"/>
     <use style="stroke:#000000;stroke-width:0.5;" x="494.055864822" xlink:href="#mca62528ba1" y="55.8"/>
     <use style="stroke:#000000;stroke-width:0.5;" x="500.224907759" xlink:href="#mca62528ba1" y="43.2"/>
     <use style="stroke:#000000;stroke-width:0.5;" x="330.288333024" xlink:href="#mca62528ba1" y="30.6"/>
    </g>
   </g>
   <g id="line2d_15">
    <g clip-path="url(#pd59ea78884)">
     <use style="stroke:#000000;stroke-width:0.5;" x="467.294468098" xlink:href="#mca62528ba1" y="106.2"/>
     <use style="stroke:#000000;stroke-width:0.5;" x="458.545858662" xlink:href="#mca62528ba1" y="93.6"/>
     <use style="stroke:#000000;stroke-width:0.5;" x="451.277096672" xlink:href="#mca62528ba1" y="81.0"/>
     <use style="stroke:#000000;stroke-width:0.5;" x="518.762728824" xlink:href="#mca62528ba1" y="68.4"/>
     <use style="stroke:#000000;stroke-width:0.5;" x="552.792814566" xlink:href="#mca62528ba1" y="55.8"/>
     <use style="stroke:#000000;stroke-width:0.5;" x="632.838849532" xlink:href="#mca62528ba1" y="43.2"/>
     <use style="stroke:#000000;stroke-width:0.5;" x="407.971708265" xlink:href="#mca62528ba1" y="30.6"/>
    </g>
   </g>
   <g id="line2d_16">
    <defs>
     <path d="
M0 2.73861
C0.726289 2.73861 1.42293 2.45006 1.93649 1.93649
C2.45006 1.42293 2.73861 0.726289 2.73861 0
C2.73861 -0.726289 2.45006 -1.42293 1.93649 -1.93649
C1.42293 -2.45006 0.726289 -2.73861 0 -2.73861
C-0.726289 -2.73861 -1.42293 -2.45006 -1.93649 -1.93649
C-2.45006 -1.42293 -2.73861 -0.726289 -2.73861 0
C-2.73861 0.726289 -2.45006 1.42293 -1.93649 1.93649
C-1.42293 2.45006 -0.726289 2.73861 0 2.73861
z
" id="mf535142dc7" style="stroke:#000000;stroke-width:0.5;"/>
    </defs>
    <g clip-path="url(#pd59ea78884)">
     <use style="fill:#f8756b;stroke:#000000;stroke-width:0.5;" x="451.755975869" xlink:href="#mf535142dc7" y="106.2"/>
     <use style="fill:#f8756b;stroke:#000000;stroke-width:0.5;" x="450.299556162" xlink:href="#mf535142dc7" y="93.6"/>
     <use style="fill:#f8756b;stroke:#000000;stroke-width:0.5;" x="441.050205888" xlink:href="#mf535142dc7" y="81.0"/>
     <use style="fill:#f8756b;stroke:#000000;stroke-width:0.5;" x="503.219404467" xlink:href="#mf535142dc7" y="68.4"/>
     <use style="fill:#f8756b;stroke:#000000;stroke-width:0.5;" x="523.424339694" xlink:href="#mf535142dc7" y="55.8"/>
     <use style="fill:#f8756b;stroke:#000000;stroke-width:0.5;" x="566.531878645" xlink:href="#mf535142dc7" y="43.2"/>
     <use style="fill:#f8756b;stroke:#000000;stroke-width:0.5;" x="369.130020645" xlink:href="#mf535142dc7" y="30.6"/>
    </g>
   </g>
   <g id="line2d_17">
    <defs>
     <path d="
M0 2.73861
C0.726289 2.73861 1.42293 2.45006 1.93649 1.93649
C2.45006 1.42293 2.73861 0.726289 2.73861 0
C2.73861 -0.726289 2.45006 -1.42293 1.93649 -1.93649
C1.42293 -2.45006 0.726289 -2.73861 0 -2.73861
C-0.726289 -2.73861 -1.42293 -2.45006 -1.93649 -1.93649
C-2.45006 -1.42293 -2.73861 -0.726289 -2.73861 0
C-2.73861 0.726289 -2.45006 1.42293 -1.93649 1.93649
C-1.42293 2.45006 -0.726289 2.73861 0 2.73861
z
" id="m19d7fbef19" style="stroke:#000000;stroke-width:0.5;"/>
    </defs>
    <g clip-path="url(#pd59ea78884)">
     <use style="fill:#00bec6;stroke:#000000;stroke-width:0.5;" x="451.755975869" xlink:href="#m19d7fbef19" y="106.2"/>
     <use style="fill:#00bec6;stroke:#000000;stroke-width:0.5;" x="450.299556162" xlink:href="#m19d7fbef19" y="93.6"/>
     <use style="fill:#00bec6;stroke:#000000;stroke-width:0.5;" x="441.050205888" xlink:href="#m19d7fbef19" y="81.0"/>
     <use style="fill:#00bec6;stroke:#000000;stroke-width:0.5;" x="369.130020645" xlink:href="#m19d7fbef19" y="30.6"/>
    </g>
   </g>
  </g>
  <g id="axes_3">
   <g id="patch_34">
    <path d="
M169.95 18
L666 18" style="fill:none;"/>
   </g>
   <g id="patch_35">
    <path d="
M666 118.8
L666 18" style="fill:none;"/>
   </g>
   <g id="patch_36">
    <path d="
M169.95 118.8
L666 118.8" style="fill:none;"/>
   </g>
   <g id="patch_37">
    <path d="
M169.95 118.8
L169.95 18" style="fill:none;"/>
   </g>
   <g id="matplotlib.axis_5">
    <g id="ytick_8">
     <g id="text_20">
      <!-- 0.032 -->
      <defs>
       <path d="
M19.1875 8.29688
L53.6094 8.29688
L53.6094 0
L7.32812 0
L7.32812 8.29688
Q12.9375 14.1094 22.625 23.8906
Q32.3281 33.6875 34.8125 36.5312
Q39.5469 41.8438 41.4219 45.5312
Q43.3125 49.2188 43.3125 52.7812
Q43.3125 58.5938 39.2344 62.25
Q35.1562 65.9219 28.6094 65.9219
Q23.9688 65.9219 18.8125 64.3125
Q13.6719 62.7031 7.8125 59.4219
L7.8125 69.3906
Q13.7656 71.7812 18.9375 73
Q24.125 74.2188 28.4219 74.2188
Q39.75 74.2188 46.4844 68.5469
Q53.2188 62.8906 53.2188 53.4219
Q53.2188 48.9219 51.5312 44.8906
Q49.8594 40.875 45.4062 35.4062
Q44.1875 33.9844 37.6406 27.2188
Q31.1094 20.4531 19.1875 8.29688" id="BitstreamVeraSans-Roman-32"/>
       <path d="
M40.5781 39.3125
Q47.6562 37.7969 51.625 33
Q55.6094 28.2188 55.6094 21.1875
Q55.6094 10.4062 48.1875 4.48438
Q40.7656 -1.42188 27.0938 -1.42188
Q22.5156 -1.42188 17.6562 -0.515625
Q12.7969 0.390625 7.625 2.20312
L7.625 11.7188
Q11.7188 9.32812 16.5938 8.10938
Q21.4844 6.89062 26.8125 6.89062
Q36.0781 6.89062 40.9375 10.5469
Q45.7969 14.2031 45.7969 21.1875
Q45.7969 27.6406 41.2812 31.2656
Q36.7656 34.9062 28.7188 34.9062
L20.2188 34.9062
L20.2188 43.0156
L29.1094 43.0156
Q36.375 43.0156 40.2344 45.9219
Q44.0938 48.8281 44.0938 54.2969
Q44.0938 59.9062 40.1094 62.9062
Q36.1406 65.9219 28.7188 65.9219
Q24.6562 65.9219 20.0156 65.0312
Q15.375 64.1562 9.8125 62.3125
L9.8125 71.0938
Q15.4375 72.6562 20.3438 73.4375
Q25.25 74.2188 29.5938 74.2188
Q40.8281 74.2188 47.3594 69.1094
Q53.9062 64.0156 53.9062 55.3281
Q53.9062 49.2656 50.4375 45.0938
Q46.9688 40.9219 40.5781 39.3125" id="BitstreamVeraSans-Roman-33"/>
      </defs>
      <g transform="translate(670.0 108.4075)scale(0.08 -0.08)">
       <use xlink:href="#BitstreamVeraSans-Roman-30"/>
       <use x="63.623046875" xlink:href="#BitstreamVeraSans-Roman-2e"/>
       <use x="95.41015625" xlink:href="#BitstreamVeraSans-Roman-30"/>
       <use x="159.033203125" xlink:href="#BitstreamVeraSans-Roman-33"/>
       <use x="222.65625" xlink:href="#BitstreamVeraSans-Roman-32"/>
      </g>
     </g>
    </g>
    <g id="ytick_9">
     <g id="text_21">
      <!-- 6.35e-6 -->
      <defs>
       <path d="
M33.0156 40.375
Q26.375 40.375 22.4844 35.8281
Q18.6094 31.2969 18.6094 23.3906
Q18.6094 15.5312 22.4844 10.9531
Q26.375 6.39062 33.0156 6.39062
Q39.6562 6.39062 43.5312 10.9531
Q47.4062 15.5312 47.4062 23.3906
Q47.4062 31.2969 43.5312 35.8281
Q39.6562 40.375 33.0156 40.375
M52.5938 71.2969
L52.5938 62.3125
Q48.875 64.0625 45.0938 64.9844
Q41.3125 65.9219 37.5938 65.9219
Q27.8281 65.9219 22.6719 59.3281
Q17.5312 52.7344 16.7969 39.4062
Q19.6719 43.6562 24.0156 45.9219
Q28.375 48.1875 33.5938 48.1875
Q44.5781 48.1875 50.9531 41.5156
Q57.3281 34.8594 57.3281 23.3906
Q57.3281 12.1562 50.6875 5.35938
Q44.0469 -1.42188 33.0156 -1.42188
Q20.3594 -1.42188 13.6719 8.26562
Q6.98438 17.9688 6.98438 36.375
Q6.98438 53.6562 15.1875 63.9375
Q23.3906 74.2188 37.2031 74.2188
Q40.9219 74.2188 44.7031 73.4844
Q48.4844 72.75 52.5938 71.2969" id="BitstreamVeraSans-Roman-36"/>
       <path d="
M4.89062 31.3906
L31.2031 31.3906
L31.2031 23.3906
L4.89062 23.3906
z
" id="BitstreamVeraSans-Roman-2d"/>
      </defs>
      <g transform="translate(670.0 95.8075)scale(0.08 -0.08)">
       <use xlink:href="#BitstreamVeraSans-Roman-36"/>
       <use x="63.623046875" xlink:href="#BitstreamVeraSans-Roman-2e"/>
       <use x="95.41015625" xlink:href="#BitstreamVeraSans-Roman-33"/>
       <use x="159.033203125" xlink:href="#BitstreamVeraSans-Roman-35"/>
       <use x="222.65625" xlink:href="#BitstreamVeraSans-Roman-65"/>
       <use x="284.1796875" xlink:href="#BitstreamVeraSans-Roman-2d"/>
       <use x="320.263671875" xlink:href="#BitstreamVeraSans-Roman-36"/>
      </g>
     </g>
    </g>
    <g id="ytick_10">
     <g id="text_22">
      <!-- 3.30e-7 -->
      <defs>
       <path d="
M8.20312 72.9062
L55.0781 72.9062
L55.0781 68.7031
L28.6094 0
L18.3125 0
L43.2188 64.5938
L8.20312 64.5938
z
" id="BitstreamVeraSans-Roman-37"/>
      </defs>
      <g transform="translate(670.0 83.2075)scale(0.08 -0.08)">
       <use xlink:href="#BitstreamVeraSans-Roman-33"/>
       <use x="63.623046875" xlink:href="#BitstreamVeraSans-Roman-2e"/>
       <use x="95.41015625" xlink:href="#BitstreamVeraSans-Roman-33"/>
       <use x="159.033203125" xlink:href="#BitstreamVeraSans-Roman-30"/>
       <use x="222.65625" xlink:href="#BitstreamVeraSans-Roman-65"/>
       <use x="284.1796875" xlink:href="#BitstreamVeraSans-Roman-2d"/>
       <use x="320.263671875" xlink:href="#BitstreamVeraSans-Roman-37"/>
      </g>
     </g>
    </g>
    <g id="ytick_11">
     <g id="text_23">
      <!-- 6.17e-4 -->
      <defs>
       <path d="
M37.7969 64.3125
L12.8906 25.3906
L37.7969 25.3906
z

M35.2031 72.9062
L47.6094 72.9062
L47.6094 25.3906
L58.0156 25.3906
L58.0156 17.1875
L47.6094 17.1875
L47.6094 0
L37.7969 0
L37.7969 17.1875
L4.89062 17.1875
L4.89062 26.7031
z
" id="BitstreamVeraSans-Roman-34"/>
      </defs>
      <g transform="translate(670.0 70.6075)scale(0.08 -0.08)">
       <use xlink:href="#BitstreamVeraSans-Roman-36"/>
       <use x="63.623046875" xlink:href="#BitstreamVeraSans-Roman-2e"/>
       <use x="95.41015625" xlink:href="#BitstreamVeraSans-Roman-31"/>
       <use x="159.033203125" xlink:href="#BitstreamVeraSans-Roman-37"/>
       <use x="222.65625" xlink:href="#BitstreamVeraSans-Roman-65"/>
       <use x="284.1796875" xlink:href="#BitstreamVeraSans-Roman-2d"/>
       <use x="320.263671875" xlink:href="#BitstreamVeraSans-Roman-34"/>
      </g>
     </g>
    </g>
    <g id="ytick_12">
     <g id="text_24">
      <!-- 2.59e-3 -->
      <g transform="translate(670.0 58.0075)scale(0.08 -0.08)">
       <use xlink:href="#BitstreamVeraSans-Roman-32"/>
       <use x="63.623046875" xlink:href="#BitstreamVeraSans-Roman-2e"/>
       <use x="95.41015625" xlink:href="#BitstreamVeraSans-Roman-35"/>
       <use x="159.033203125" xlink:href="#BitstreamVeraSans-Roman-39"/>
       <use x="222.65625" xlink:href="#BitstreamVeraSans-Roman-65"/>
       <use x="284.1796875" xlink:href="#BitstreamVeraSans-Roman-2d"/>
       <use x="320.263671875" xlink:href="#BitstreamVeraSans-Roman-33"/>
      </g>
     </g>
    </g>
    <g id="ytick_13">
     <g id="text_25">
      <!-- 0.019 -->
      <g transform="translate(670.0 45.4075)scale(0.08 -0.08)">
       <use xlink:href="#BitstreamVeraSans-Roman-30"/>
       <use x="63.623046875" xlink:href="#BitstreamVeraSans-Roman-2e"/>
       <use x="95.41015625" xlink:href="#BitstreamVeraSans-Roman-30"/>
       <use x="159.033203125" xlink:href="#BitstreamVeraSans-Roman-31"/>
       <use x="222.65625" xlink:href="#BitstreamVeraSans-Roman-39"/>
      </g>
     </g>
    </g>
    <g id="ytick_14">
     <g id="text_26">
      <!-- 6.03e-6 -->
      <g transform="translate(670.0 32.8075)scale(0.08 -0.08)">
       <use xlink:href="#BitstreamVeraSans-Roman-36"/>
       <use x="63.623046875" xlink:href="#BitstreamVeraSans-Roman-2e"/>
       <use x="95.41015625" xlink:href="#BitstreamVeraSans-Roman-30"/>
       <use x="159.033203125" xlink:href="#BitstreamVeraSans-Roman-33"/>
       <use x="222.65625" xlink:href="#BitstreamVeraSans-Roman-65"/>
       <use x="284.1796875" xlink:href="#BitstreamVeraSans-Roman-2d"/>
       <use x="320.263671875" xlink:href="#BitstreamVeraSans-Roman-36"/>
      </g>
     </g>
    </g>
    <g id="text_27">
     <!-- q-value (corrected) -->
     <defs>
      <path d="
M14.7969 27.2969
Q14.7969 17.3906 18.875 11.75
Q22.9531 6.10938 30.0781 6.10938
Q37.2031 6.10938 41.2969 11.75
Q45.4062 17.3906 45.4062 27.2969
Q45.4062 37.2031 41.2969 42.8438
Q37.2031 48.4844 30.0781 48.4844
Q22.9531 48.4844 18.875 42.8438
Q14.7969 37.2031 14.7969 27.2969
M45.4062 8.20312
Q42.5781 3.32812 38.25 0.953125
Q33.9375 -1.42188 27.875 -1.42188
Q17.9688 -1.42188 11.7344 6.48438
Q5.51562 14.4062 5.51562 27.2969
Q5.51562 40.1875 11.7344 48.0938
Q17.9688 56 27.875 56
Q33.9375 56 38.25 53.625
Q42.5781 51.2656 45.4062 46.3906
L45.4062 54.6875
L54.3906 54.6875
L54.3906 -20.7969
L45.4062 -20.7969
z
" id="BitstreamVeraSans-Roman-71"/>
     </defs>
     <g transform="translate(710.7825 106.2575)rotate(-90.0)scale(0.08 -0.08)">
      <use xlink:href="#BitstreamVeraSans-Roman-71"/>
      <use x="63.4765625" xlink:href="#BitstreamVeraSans-Roman-2d"/>
      <use x="96.935546875" xlink:href="#BitstreamVeraSans-Roman-76"/>
      <use x="156.115234375" xlink:href="#BitstreamVeraSans-Roman-61"/>
      <use x="217.39453125" xlink:href="#BitstreamVeraSans-Roman-6c"/>
      <use x="245.177734375" xlink:href="#BitstreamVeraSans-Roman-75"/>
      <use x="308.556640625" xlink:href="#BitstreamVeraSans-Roman-65"/>
      <use x="370.080078125" xlink:href="#BitstreamVeraSans-Roman-20"/>
      <use x="401.8671875" xlink:href="#BitstreamVeraSans-Roman-28"/>
      <use x="440.880859375" xlink:href="#BitstreamVeraSans-Roman-63"/>
      <use x="495.861328125" xlink:href="#BitstreamVeraSans-Roman-6f"/>
      <use x="557.04296875" xlink:href="#BitstreamVeraSans-Roman-72"/>
      <use x="596.40625" xlink:href="#BitstreamVeraSans-Roman-72"/>
      <use x="635.26953125" xlink:href="#BitstreamVeraSans-Roman-65"/>
      <use x="696.79296875" xlink:href="#BitstreamVeraSans-Roman-63"/>
      <use x="751.7734375" xlink:href="#BitstreamVeraSans-Roman-74"/>
      <use x="790.982421875" xlink:href="#BitstreamVeraSans-Roman-65"/>
      <use x="852.505859375" xlink:href="#BitstreamVeraSans-Roman-64"/>
      <use x="915.982421875" xlink:href="#BitstreamVeraSans-Roman-29"/>
     </g>
    </g>
   </g>
  </g>
 </g>
 <defs>
  <clipPath id="p1004e25601">
   <rect height="100.8" width="90.0" x="169.95" y="18.0"/>
  </clipPath>
  <clipPath id="pd59ea78884">
   <rect height="100.8" width="388.05" x="277.95" y="18.0"/>
  </clipPath>
 </defs>
</svg>
