<?xml version="1.0" encoding="utf-8" standalone="no"?>
<!DOCTYPE svg PUBLIC "-//W3C//DTD SVG 1.1//EN"
  "http://www.w3.org/Graphics/SVG/1.1/DTD/svg11.dtd">
<!-- Created with matplotlib (https://matplotlib.org/) -->
<svg height="328.7344pt" version="1.1" viewBox="0 0 439.095177 328.7344" width="439.095177pt" xmlns="http://www.w3.org/2000/svg" xmlns:xlink="http://www.w3.org/1999/xlink">
 <metadata>
  <rdf:RDF xmlns:cc="http://creativecommons.org/ns#" xmlns:dc="http://purl.org/dc/elements/1.1/" xmlns:rdf="http://www.w3.org/1999/02/22-rdf-syntax-ns#">
   <cc:Work>
    <dc:type rdf:resource="http://purl.org/dc/dcmitype/StillImage"/>
    <dc:date>2021-12-27T09:54:08.449170</dc:date>
    <dc:format>image/svg+xml</dc:format>
    <dc:creator>
     <cc:Agent>
      <dc:title>Matplotlib v3.3.2, https://matplotlib.org/</dc:title>
     </cc:Agent>
    </dc:creator>
   </cc:Work>
  </rdf:RDF>
 </metadata>
 <defs>
  <style type="text/css">*{stroke-linecap:butt;stroke-linejoin:round;}</style>
 </defs>
 <g id="figure_1">
  <g id="patch_1">
   <path d="M 0 328.7344 
L 439.095177 328.7344 
L 439.095177 -0 
L 0 -0 
z
" style="fill:#ffffff;"/>
  </g>
  <g id="axes_1">
   <g id="patch_2">
    <path clip-path="url(#pc060b7320f)" d="M 249.562929 176.448626 
C 248.679388 172.499696 247.363479 168.660096 245.639033 164.999361 
C 243.914587 161.338626 241.792077 157.878989 239.309941 154.683101 
L 286.449367 118.071528 
C 291.620483 124.729626 296.042379 131.937205 299.634975 139.563736 
C 303.227571 147.190267 305.969047 155.189433 307.809758 163.416371 
z
" style="fill:#f8756b;opacity:0.2;stroke:#f8756b;stroke-linejoin:miter;"/>
   </g>
   <g id="patch_3">
    <path clip-path="url(#pc060b7320f)" d="M 195.796625 188.4784 
L 195.796625 188.4784 
L 195.796625 188.4784 
L 195.796625 188.4784 
z
" style="fill:#f8756b;stroke:#000000;stroke-linejoin:miter;"/>
   </g>
   <g id="patch_4">
    <path clip-path="url(#pc060b7320f)" d="M 236.169668 150.987757 
C 234.518606 149.209756 232.751892 147.542763 230.88107 145.997668 
C 229.010247 144.452573 227.039399 143.032748 224.981401 141.747471 
L 256.598242 91.122298 
C 260.885738 93.799959 264.991672 96.757926 268.889218 99.976874 
C 272.786765 103.195822 276.467418 106.668725 279.907131 110.372894 
z
" style="fill:#f8756b;opacity:0.2;stroke:#f8756b;stroke-linejoin:miter;"/>
   </g>
   <g id="patch_5">
    <path clip-path="url(#pc060b7320f)" d="M 195.796625 188.4784 
L 195.796625 188.4784 
L 195.796625 188.4784 
L 195.796625 188.4784 
z
" style="fill:#f8756b;stroke:#000000;stroke-linejoin:miter;"/>
   </g>
   <g id="patch_6">
    <path clip-path="url(#pc060b7320f)" d="M 232.384781 185.248585 
C 232.004638 180.94223 230.867188 176.73661 229.024897 172.825708 
C 227.182606 168.914805 224.664239 165.359687 221.585956 162.324333 
L 284.769818 98.246868 
C 295.389894 108.71884 304.078258 120.983996 310.434163 134.476611 
C 316.790069 147.969226 320.714269 162.478615 322.025762 177.335539 
z
" style="fill:#f8756b;opacity:0.2;stroke:#f8756b;stroke-linejoin:miter;"/>
   </g>
   <g id="patch_7">
    <path clip-path="url(#pc060b7320f)" d="M 195.796625 188.4784 
L 195.796625 188.4784 
L 195.796625 188.4784 
L 195.796625 188.4784 
z
" style="fill:#f8756b;stroke:#000000;stroke-linejoin:miter;"/>
   </g>
   <g id="patch_8">
    <path clip-path="url(#pc060b7320f)" d="M 210.617776 135.413681 
C 206.917863 134.380283 203.119995 133.736675 199.286189 133.493367 
C 195.452383 133.250059 191.603621 133.408382 187.802751 133.965751 
L 179.142722 74.910382 
C 187.0612 73.749196 195.079453 73.419356 203.066549 73.926248 
C 211.053645 74.43314 218.965871 75.77399 226.674023 77.926903 
z
" style="fill:#f8756b;opacity:0.2;stroke:#f8756b;stroke-linejoin:miter;"/>
   </g>
   <g id="patch_9">
    <path clip-path="url(#pc060b7320f)" d="M 195.796625 188.4784 
L 195.796625 188.4784 
L 195.796625 188.4784 
L 195.796625 188.4784 
z
" style="fill:#f8756b;stroke:#000000;stroke-linejoin:miter;"/>
   </g>
   <g id="patch_10">
    <path clip-path="url(#pc060b7320f)" d="M 205.677392 153.101921 
C 203.210784 152.412989 200.678872 151.983917 198.123001 151.821711 
C 195.56713 151.659506 193.001289 151.765055 190.467376 152.136634 
L 177.410716 63.099308 
C 186.152715 61.817359 195.004867 61.453216 203.822621 62.012825 
C 212.640375 62.572433 221.375472 64.052732 229.885272 66.429547 
z
" style="fill:#f8756b;opacity:0.2;stroke:#f8756b;stroke-linejoin:miter;"/>
   </g>
   <g id="patch_11">
    <path clip-path="url(#pc060b7320f)" d="M 195.796625 188.4784 
L 195.796625 188.4784 
L 195.796625 188.4784 
L 195.796625 188.4784 
z
" style="fill:#f8756b;stroke:#000000;stroke-linejoin:miter;"/>
   </g>
   <g id="patch_12">
    <path clip-path="url(#pc060b7320f)" d="M 162.872291 144.302399 
C 160.113309 146.358665 157.553019 148.668882 155.224995 151.202755 
C 152.89697 153.736628 150.811434 156.483031 148.995734 159.405947 
L 98.294769 127.91079 
C 102.077477 121.82138 106.422345 116.099708 111.272395 110.820806 
C 116.122446 105.541905 121.456384 100.728952 127.204261 96.445064 
z
" style="fill:#f8756b;opacity:0.2;stroke:#f8756b;stroke-linejoin:miter;"/>
   </g>
   <g id="patch_13">
    <path clip-path="url(#pc060b7320f)" d="M 195.796625 188.4784 
L 195.796625 188.4784 
L 195.796625 188.4784 
L 195.796625 188.4784 
z
" style="fill:#f8756b;stroke:#000000;stroke-linejoin:miter;"/>
   </g>
   <g id="patch_14">
    <path clip-path="url(#pc060b7320f)" d="M 146.900231 163.087978 
C 145.966367 164.886396 145.132432 166.734967 144.40223 168.625263 
C 143.672028 170.515558 143.04667 172.4447 142.529007 174.403893 
L 84.822421 159.15651 
C 85.900885 155.074858 87.203715 151.055812 88.724969 147.117697 
C 90.246223 143.179582 91.983587 139.328392 93.929137 135.581687 
z
" style="fill:#00bec6;opacity:0.2;stroke:#00bec6;stroke-linejoin:miter;"/>
   </g>
   <g id="patch_15">
    <path clip-path="url(#pc060b7320f)" d="M 195.796625 188.4784 
L 195.796625 188.4784 
L 195.796625 188.4784 
L 195.796625 188.4784 
z
" style="fill:#00bec6;stroke:#000000;stroke-linejoin:miter;"/>
   </g>
   <g id="patch_16">
    <path clip-path="url(#pc060b7320f)" d="M 185.371265 153.258566 
C 178.994376 155.146177 173.24828 158.730715 168.748871 163.62797 
C 164.249463 168.525226 161.163452 174.553746 159.821614 181.067367 
L 71.682836 162.910338 
C 76.312179 140.438345 86.958914 119.639948 102.481875 102.744417 
C 118.004836 85.848885 137.828866 73.482232 159.829133 66.969973 
z
" style="fill:#00bec6;opacity:0.2;stroke:#00bec6;stroke-linejoin:miter;"/>
   </g>
   <g id="patch_17">
    <path clip-path="url(#pc060b7320f)" d="M 195.796625 188.4784 
L 195.796625 188.4784 
L 195.796625 188.4784 
L 195.796625 188.4784 
z
" style="fill:#00bec6;stroke:#000000;stroke-linejoin:miter;"/>
   </g>
   <g id="patch_18">
    <path clip-path="url(#pc060b7320f)" d="M 165.357709 234.402286 
C 168.225853 236.303327 171.265793 237.931503 174.437663 239.265462 
C 177.609533 240.599421 180.899408 241.633306 184.264143 242.353559 
L 171.77062 300.718314 
C 164.760755 299.217787 157.90685 297.06386 151.298787 294.284778 
C 144.690724 291.505697 138.357516 288.113664 132.382216 284.153161 
z
" style="fill:#f8756b;opacity:0.2;stroke:#f8756b;stroke-linejoin:miter;"/>
   </g>
   <g id="patch_19">
    <path clip-path="url(#pc060b7320f)" d="M 195.796625 188.4784 
L 195.796625 188.4784 
L 195.796625 188.4784 
L 195.796625 188.4784 
z
" style="fill:#f8756b;stroke:#000000;stroke-linejoin:miter;"/>
   </g>
   <g id="patch_20">
    <path clip-path="url(#pc060b7320f)" d="M 197.532163 243.54671 
C 201.371775 243.425701 205.188225 242.903449 208.919191 241.988485 
C 212.650157 241.07352 216.27522 239.770849 219.735185 238.101744 
L 245.668624 291.860366 
C 238.460364 295.337669 230.908149 298.051566 223.135303 299.957743 
C 215.362458 301.86392 207.411521 302.951943 199.412328 303.204046 
z
" style="fill:#f8756b;opacity:0.2;stroke:#f8756b;stroke-linejoin:miter;"/>
   </g>
   <g id="patch_21">
    <path clip-path="url(#pc060b7320f)" d="M 195.796625 188.4784 
L 195.796625 188.4784 
L 195.796625 188.4784 
L 195.796625 188.4784 
z
" style="fill:#f8756b;stroke:#000000;stroke-linejoin:miter;"/>
   </g>
   <g id="patch_22">
    <path clip-path="url(#pc060b7320f)" d="M 196.95365 225.190607 
C 199.513392 225.109934 202.057691 224.761766 204.545002 224.15179 
C 207.032313 223.541813 209.449021 222.673366 211.755665 221.560629 
L 250.855312 302.612091 
C 242.897393 306.451032 234.559748 309.447176 225.978526 311.551595 
C 217.397304 313.656014 208.61947 314.857192 199.788361 315.135514 
z
" style="fill:#f8756b;opacity:0.2;stroke:#f8756b;stroke-linejoin:miter;"/>
   </g>
   <g id="patch_23">
    <path clip-path="url(#pc060b7320f)" d="M 195.796625 188.4784 
L 195.796625 188.4784 
L 195.796625 188.4784 
L 195.796625 188.4784 
z
" style="fill:#f8756b;stroke:#000000;stroke-linejoin:miter;"/>
   </g>
   <g id="patch_24">
    <path clip-path="url(#pc060b7320f)" d="M 245.932245 211.324636 
L 245.932245 211.324636 
L 300.245833 236.074726 
L 300.245833 236.074726 
z
" style="fill:#f8756b;opacity:0.2;stroke:#f8756b;stroke-linejoin:miter;"/>
   </g>
   <g id="patch_25">
    <path clip-path="url(#pc060b7320f)" d="M 195.796625 188.4784 
L 195.796625 188.4784 
L 195.796625 188.4784 
L 195.796625 188.4784 
z
" style="fill:#f8756b;stroke:#000000;stroke-linejoin:miter;"/>
   </g>
   <g id="patch_26">
    <path clip-path="url(#pc060b7320f)" d="M 210.642059 222.075095 
C 213.359795 220.874204 215.921803 219.347969 218.271863 217.529881 
C 220.621922 215.711793 222.742719 213.615248 224.587713 211.286252 
L 295.125878 267.165488 
C 288.760648 275.200524 281.443901 282.433604 273.336194 288.706009 
C 265.228488 294.978413 256.389562 300.243924 247.013373 304.386998 
z
" style="fill:#f8756b;opacity:0.2;stroke:#f8756b;stroke-linejoin:miter;"/>
   </g>
   <g id="patch_27">
    <path clip-path="url(#pc060b7320f)" d="M 195.796625 188.4784 
L 195.796625 188.4784 
L 195.796625 188.4784 
L 195.796625 188.4784 
z
" style="fill:#f8756b;stroke:#000000;stroke-linejoin:miter;"/>
   </g>
   <g id="patch_28">
    <path clip-path="url(#pc060b7320f)" d="M 195.796625 188.4784 
L 195.796625 188.4784 
L 195.796625 188.4784 
L 195.796625 188.4784 
z
" style="fill:#f8756b;"/>
   </g>
   <g id="patch_29">
    <path clip-path="url(#pc060b7320f)" d="M 195.796625 188.4784 
L 195.796625 188.4784 
L 195.796625 188.4784 
L 195.796625 188.4784 
z
" style="fill:#00bec6;"/>
   </g>
   <g id="matplotlib.axis_1"/>
   <g id="matplotlib.axis_2"/>
   <g id="line2d_1">
    <path clip-path="url(#pc060b7320f)" d="M 232.303802 184.434783 
L 250.557391 182.412975 
" style="fill:none;stroke:#000000;stroke-linecap:square;stroke-width:0.75;"/>
   </g>
   <g id="line2d_2">
    <path clip-path="url(#pc060b7320f)" d="M 214.050214 186.456592 
L 232.303802 184.434783 
" style="fill:none;stroke:#000000;stroke-linecap:square;stroke-width:0.75;"/>
   </g>
   <g id="line2d_3"/>
   <g id="line2d_4">
    <path clip-path="url(#pc060b7320f)" d="M 219.514356 160.432116 
L 235.344478 150.118288 
" style="fill:none;stroke:#000000;stroke-linecap:square;stroke-width:2.8125;"/>
   </g>
   <g id="line2d_5">
    <path clip-path="url(#pc060b7320f)" d="M 219.514356 160.432116 
L 235.344478 150.118288 
" style="fill:none;stroke:#f8756b;stroke-linecap:square;stroke-width:1.875;"/>
   </g>
   <g id="line2d_6">
    <path clip-path="url(#pc060b7320f)" d="M 219.514356 160.432116 
L 225.991156 142.393465 
" style="fill:none;stroke:#000000;stroke-linecap:square;stroke-width:2.8125;"/>
   </g>
   <g id="line2d_7">
    <path clip-path="url(#pc060b7320f)" d="M 219.514356 160.432116 
L 225.991156 142.393465 
" style="fill:none;stroke:#f8756b;stroke-linecap:square;stroke-width:1.875;"/>
   </g>
   <g id="line2d_8">
    <path clip-path="url(#pc060b7320f)" d="M 205.677392 153.101921 
L 210.617776 135.413681 
" style="fill:none;stroke:#000000;stroke-linecap:square;stroke-width:0.75;"/>
   </g>
   <g id="line2d_9">
    <path clip-path="url(#pc060b7320f)" d="M 190.467376 152.136634 
L 187.802751 133.965751 
" style="fill:none;stroke:#000000;stroke-linecap:square;stroke-width:2.8125;"/>
   </g>
   <g id="line2d_10">
    <path clip-path="url(#pc060b7320f)" d="M 190.467376 152.136634 
L 187.802751 133.965751 
" style="fill:none;stroke:#f8756b;stroke-linecap:square;stroke-width:1.875;"/>
   </g>
   <g id="line2d_11">
    <path clip-path="url(#pc060b7320f)" d="M 176.174887 157.428243 
L 166.364018 141.903165 
" style="fill:none;stroke:#000000;stroke-linecap:square;stroke-width:0.75;"/>
   </g>
   <g id="line2d_12">
    <path clip-path="url(#pc060b7320f)" d="M 159.533281 182.639333 
L 146.900231 163.087978 
" style="fill:none;stroke:#000000;stroke-linecap:square;stroke-width:0.75;"/>
   </g>
   <g id="line2d_13">
    <path clip-path="url(#pc060b7320f)" d="M 159.533281 182.639333 
L 142.529007 174.403893 
" style="fill:none;stroke:#000000;stroke-linecap:square;stroke-width:2.8125;"/>
   </g>
   <g id="line2d_14">
    <path clip-path="url(#pc060b7320f)" d="M 159.533281 182.639333 
L 142.529007 174.403893 
" style="fill:none;stroke:#00bec6;stroke-linecap:square;stroke-width:1.875;"/>
   </g>
   <g id="line2d_15">
    <path clip-path="url(#pc060b7320f)" d="M 159.533281 182.639333 
L 140.740109 186.402117 
" style="fill:none;stroke:#000000;stroke-linecap:square;stroke-width:0.75;"/>
   </g>
   <g id="line2d_16">
    <path clip-path="url(#pc060b7320f)" d="M 159.533281 182.639333 
L 141.62026 198.500995 
" style="fill:none;stroke:#000000;stroke-linecap:square;stroke-width:0.75;"/>
   </g>
   <g id="line2d_17">
    <path clip-path="url(#pc060b7320f)" d="M 163.398289 205.783679 
L 147.199121 214.436318 
" style="fill:none;stroke:#000000;stroke-linecap:square;stroke-width:0.75;"/>
   </g>
   <g id="line2d_18">
    <path clip-path="url(#pc060b7320f)" d="M 173.211545 217.44457 
L 161.919005 231.927655 
" style="fill:none;stroke:#000000;stroke-linecap:square;stroke-width:0.75;"/>
   </g>
   <g id="line2d_19">
    <path clip-path="url(#pc060b7320f)" d="M 194.500597 225.185963 
L 188.43789 243.080414 
" style="fill:none;stroke:#000000;stroke-linecap:square;stroke-width:0.75;"/>
   </g>
   <g id="line2d_20">
    <path clip-path="url(#pc060b7320f)" d="M 194.500597 225.185963 
L 200.565347 243.367289 
" style="fill:none;stroke:#000000;stroke-linecap:square;stroke-width:0.75;"/>
   </g>
   <g id="line2d_21">
    <path clip-path="url(#pc060b7320f)" d="M 209.907627 222.390116 
L 216.963128 239.345973 
" style="fill:none;stroke:#000000;stroke-linecap:square;stroke-width:2.8125;"/>
   </g>
   <g id="line2d_22">
    <path clip-path="url(#pc060b7320f)" d="M 209.907627 222.390116 
L 216.963128 239.345973 
" style="fill:none;stroke:#f8756b;stroke-linecap:square;stroke-width:1.875;"/>
   </g>
   <g id="line2d_23">
    <path clip-path="url(#pc060b7320f)" d="M 227.119266 207.662169 
L 239.717335 221.742526 
" style="fill:none;stroke:#000000;stroke-linecap:square;stroke-width:0.75;"/>
   </g>
   <g id="line2d_24">
    <path clip-path="url(#pc060b7320f)" d="M 227.119266 207.662169 
L 245.932245 211.324636 
" style="fill:none;stroke:#000000;stroke-linecap:square;stroke-width:2.8125;"/>
   </g>
   <g id="line2d_25">
    <path clip-path="url(#pc060b7320f)" d="M 227.119266 207.662169 
L 245.932245 211.324636 
" style="fill:none;stroke:#f8756b;stroke-linecap:square;stroke-width:1.875;"/>
   </g>
   <g id="line2d_26">
    <path clip-path="url(#pc060b7320f)" d="M 177.896078 192.583473 
L 159.995531 196.688547 
" style="fill:none;stroke:#000000;stroke-linecap:square;stroke-width:0.75;"/>
   </g>
   <g id="line2d_27">
    <path clip-path="url(#pc060b7320f)" d="M 219.514356 160.432116 
L 217.19719 158.626421 
L 214.743133 157.011677 
L 212.167883 155.598212 
L 209.487913 154.395069 
L 206.720365 153.409942 
L 203.882942 152.649134 
L 200.993795 152.117511 
L 198.071404 151.818473 
L 195.134461 151.753934 
L 192.201755 151.924307 
L 189.292043 152.3285 
L 186.423938 152.96393 
L 183.615787 153.826531 
L 180.885551 154.910786 
L 178.250696 156.209759 
L 175.728074 157.715141 
L 173.333823 159.417303 
L 171.083257 161.305357 
L 168.990772 163.367225 
L 167.069753 165.58972 
L 165.332488 167.958624 
L 163.79009 170.458784 
L 162.452424 173.074209 
L 161.328047 175.788167 
L 160.424152 178.5833 
L 159.74652 181.441728 
L 159.299485 184.345167 
L 159.085908 187.275044 
L 159.107153 190.212618 
L 159.363087 193.139099 
L 159.85207 196.035768 
L 160.570976 198.884096 
L 161.515206 201.665862 
L 162.67872 204.363274 
L 164.054076 206.959077 
L 165.632475 209.436666 
L 167.403823 211.780194 
L 169.356787 213.97467 
L 171.478876 216.006057 
L 173.756515 217.861361 
L 176.175137 219.528714 
L 178.719268 220.997452 
L 181.372637 222.258178 
L 184.118269 223.302829 
L 186.938604 224.124722 
L 189.815599 224.718601 
L 192.730853 225.080666 
L 195.665717 225.208602 
L 198.601419 225.101589 
L 201.519179 224.760313 
L 204.400335 224.186957 
L 207.226456 223.385187 
L 209.979465 222.360134 
L 212.641753 221.118353 
L 215.196289 219.667787 
L 217.626733 218.017716 
L 219.91754 216.178695 
L 222.054054 214.162485 
L 224.022611 211.981986 
L 225.810618 209.651143 
L 227.026212 207.813285 
L 227.026212 207.813285 
" style="fill:none;stroke:#000000;stroke-linecap:square;stroke-width:2;"/>
   </g>
   <g id="line2d_28">
    <defs>
     <path d="M 0 3.638316 
C 0.964893 3.638316 1.890396 3.25496 2.572678 2.572678 
C 3.25496 1.890396 3.638316 0.964893 3.638316 0 
C 3.638316 -0.964893 3.25496 -1.890396 2.572678 -2.572678 
C 1.890396 -3.25496 0.964893 -3.638316 0 -3.638316 
C -0.964893 -3.638316 -1.890396 -3.25496 -2.572678 -2.572678 
C -3.25496 -1.890396 -3.638316 -0.964893 -3.638316 0 
C -3.638316 0.964893 -3.25496 1.890396 -2.572678 2.572678 
C -1.890396 3.25496 -0.964893 3.638316 0 3.638316 
z
" id="ma248b3b20f" style="stroke:#000000;stroke-width:0.25;"/>
    </defs>
    <g clip-path="url(#pc060b7320f)">
     <use style="fill:#bfbf00;stroke:#000000;stroke-width:0.25;" x="200.565347" xlink:href="#ma248b3b20f" y="243.367289"/>
    </g>
   </g>
   <g id="line2d_29">
    <defs>
     <path d="M 0 2.29088 
C 0.607548 2.29088 1.190295 2.049498 1.619897 1.619897 
C 2.049498 1.190295 2.29088 0.607548 2.29088 0 
C 2.29088 -0.607548 2.049498 -1.190295 1.619897 -1.619897 
C 1.190295 -2.049498 0.607548 -2.29088 0 -2.29088 
C -0.607548 -2.29088 -1.190295 -2.049498 -1.619897 -1.619897 
C -2.049498 -1.190295 -2.29088 -0.607548 -2.29088 0 
C -2.29088 0.607548 -2.049498 1.190295 -1.619897 1.619897 
C -1.190295 2.049498 -0.607548 2.29088 0 2.29088 
z
" id="maf2a412d4c" style="stroke:#000000;stroke-width:0.75;"/>
    </defs>
    <g clip-path="url(#pc060b7320f)">
     <use style="fill:#f8756b;stroke:#000000;stroke-width:0.75;" x="188.43789" xlink:href="#maf2a412d4c" y="243.080414"/>
    </g>
   </g>
   <g id="line2d_30">
    <defs>
     <path d="M 0 3.638388 
C 0.964912 3.638388 1.890433 3.255025 2.572729 2.572729 
C 3.255025 1.890433 3.638388 0.964912 3.638388 0 
C 3.638388 -0.964912 3.255025 -1.890433 2.572729 -2.572729 
C 1.890433 -3.255025 0.964912 -3.638388 0 -3.638388 
C -0.964912 -3.638388 -1.890433 -3.255025 -2.572729 -2.572729 
C -3.255025 -1.890433 -3.638388 -0.964912 -3.638388 0 
C -3.638388 0.964912 -3.255025 1.890433 -2.572729 2.572729 
C -1.890433 3.255025 -0.964912 3.638388 0 3.638388 
z
" id="m30239b1b6f" style="stroke:#000000;stroke-width:0.25;"/>
    </defs>
    <g clip-path="url(#pc060b7320f)">
     <use style="fill:#bfbf00;stroke:#000000;stroke-width:0.25;" x="194.500597" xlink:href="#m30239b1b6f" y="225.185963"/>
    </g>
   </g>
   <g id="line2d_31">
    <defs>
     <path d="M 0 3.479005 
C 0.922643 3.479005 1.807621 3.112435 2.460028 2.460028 
C 3.112435 1.807621 3.479005 0.922643 3.479005 0 
C 3.479005 -0.922643 3.112435 -1.807621 2.460028 -2.460028 
C 1.807621 -3.112435 0.922643 -3.479005 0 -3.479005 
C -0.922643 -3.479005 -1.807621 -3.112435 -2.460028 -2.460028 
C -3.112435 -1.807621 -3.479005 -0.922643 -3.479005 0 
C -3.479005 0.922643 -3.112435 1.807621 -2.460028 2.460028 
C -1.807621 3.112435 -0.922643 3.479005 0 3.479005 
z
" id="m4015d5da3f" style="stroke:#000000;stroke-width:0.25;"/>
    </defs>
    <g clip-path="url(#pc060b7320f)">
     <use style="fill:#bfbf00;stroke:#000000;stroke-width:0.25;" x="210.617776" xlink:href="#m4015d5da3f" y="135.413681"/>
    </g>
   </g>
   <g id="line2d_32">
    <g clip-path="url(#pc060b7320f)">
     <use style="fill:#bfbf00;stroke:#000000;stroke-width:0.25;" x="205.677392" xlink:href="#m4015d5da3f" y="153.101921"/>
    </g>
   </g>
   <g id="line2d_33">
    <defs>
     <path d="M 0 2.719058 
C 0.721103 2.719058 1.412768 2.432561 1.922664 1.922664 
C 2.432561 1.412768 2.719058 0.721103 2.719058 0 
C 2.719058 -0.721103 2.432561 -1.412768 1.922664 -1.922664 
C 1.412768 -2.432561 0.721103 -2.719058 0 -2.719058 
C -0.721103 -2.719058 -1.412768 -2.432561 -1.922664 -1.922664 
C -2.432561 -1.412768 -2.719058 -0.721103 -2.719058 0 
C -2.719058 0.721103 -2.432561 1.412768 -1.922664 1.922664 
C -1.412768 2.432561 -0.721103 2.719058 0 2.719058 
z
" id="m05f5b6ec5a" style="stroke:#000000;stroke-width:0.25;"/>
    </defs>
    <g clip-path="url(#pc060b7320f)">
     <use style="fill:#bfbf00;stroke:#000000;stroke-width:0.25;" x="166.364018" xlink:href="#m05f5b6ec5a" y="141.903165"/>
    </g>
   </g>
   <g id="line2d_34">
    <g clip-path="url(#pc060b7320f)">
     <use style="fill:#bfbf00;stroke:#000000;stroke-width:0.25;" x="176.174887" xlink:href="#m05f5b6ec5a" y="157.428243"/>
    </g>
   </g>
   <g id="line2d_35">
    <defs>
     <path d="M 0 2.714013 
C 0.719765 2.714013 1.410146 2.428047 1.919097 1.919097 
C 2.428047 1.410146 2.714013 0.719765 2.714013 0 
C 2.714013 -0.719765 2.428047 -1.410146 1.919097 -1.919097 
C 1.410146 -2.428047 0.719765 -2.714013 0 -2.714013 
C -0.719765 -2.714013 -1.410146 -2.428047 -1.919097 -1.919097 
C -2.428047 -1.410146 -2.714013 -0.719765 -2.714013 0 
C -2.714013 0.719765 -2.428047 1.410146 -1.919097 1.919097 
C -1.410146 2.428047 -0.719765 2.714013 0 2.714013 
z
" id="m554cfb5259" style="stroke:#000000;stroke-width:0.25;"/>
    </defs>
    <g clip-path="url(#pc060b7320f)">
     <use style="fill:#bfbf00;stroke:#000000;stroke-width:0.25;" x="147.199121" xlink:href="#m554cfb5259" y="214.436318"/>
    </g>
   </g>
   <g id="line2d_36">
    <g clip-path="url(#pc060b7320f)">
     <use style="fill:#bfbf00;stroke:#000000;stroke-width:0.25;" x="163.398289" xlink:href="#m554cfb5259" y="205.783679"/>
    </g>
   </g>
   <g id="line2d_37">
    <defs>
     <path d="M 0 2.432295 
C 0.645052 2.432295 1.263771 2.176013 1.719892 1.719892 
C 2.176013 1.263771 2.432295 0.645052 2.432295 0 
C 2.432295 -0.645052 2.176013 -1.263771 1.719892 -1.719892 
C 1.263771 -2.176013 0.645052 -2.432295 0 -2.432295 
C -0.645052 -2.432295 -1.263771 -2.176013 -1.719892 -1.719892 
C -2.176013 -1.263771 -2.432295 -0.645052 -2.432295 0 
C -2.432295 0.645052 -2.176013 1.263771 -1.719892 1.719892 
C -1.263771 2.176013 -0.645052 2.432295 0 2.432295 
z
" id="m82fbea9d8f" style="stroke:#000000;stroke-width:0.25;"/>
    </defs>
    <g clip-path="url(#pc060b7320f)">
     <use style="fill:#bfbf00;stroke:#000000;stroke-width:0.25;" x="161.919005" xlink:href="#m82fbea9d8f" y="231.927655"/>
    </g>
   </g>
   <g id="line2d_38">
    <g clip-path="url(#pc060b7320f)">
     <use style="fill:#bfbf00;stroke:#000000;stroke-width:0.25;" x="173.211545" xlink:href="#m82fbea9d8f" y="217.44457"/>
    </g>
   </g>
   <g id="line2d_39">
    <defs>
     <path d="M 0 3.605976 
C 0.956316 3.605976 1.873592 3.226027 2.54981 2.54981 
C 3.226027 1.873592 3.605976 0.956316 3.605976 0 
C 3.605976 -0.956316 3.226027 -1.873592 2.54981 -2.54981 
C 1.873592 -3.226027 0.956316 -3.605976 0 -3.605976 
C -0.956316 -3.605976 -1.873592 -3.226027 -2.54981 -2.54981 
C -3.226027 -1.873592 -3.605976 -0.956316 -3.605976 0 
C -3.605976 0.956316 -3.226027 1.873592 -2.54981 2.54981 
C -1.873592 3.226027 -0.956316 3.605976 0 3.605976 
z
" id="mc23ad58fb3" style="stroke:#000000;stroke-width:0.75;"/>
    </defs>
    <g clip-path="url(#pc060b7320f)">
     <use style="fill:#f8756b;stroke:#000000;stroke-width:0.75;" x="235.344478" xlink:href="#mc23ad58fb3" y="150.118288"/>
    </g>
   </g>
   <g id="line2d_40">
    <defs>
     <path d="M 0 3.300904 
C 0.87541 3.300904 1.715083 2.9531 2.334092 2.334092 
C 2.9531 1.715083 3.300904 0.87541 3.300904 0 
C 3.300904 -0.87541 2.9531 -1.715083 2.334092 -2.334092 
C 1.715083 -2.9531 0.87541 -3.300904 0 -3.300904 
C -0.87541 -3.300904 -1.715083 -2.9531 -2.334092 -2.334092 
C -2.9531 -1.715083 -3.300904 -0.87541 -3.300904 0 
C -3.300904 0.87541 -2.9531 1.715083 -2.334092 2.334092 
C -1.715083 2.9531 -0.87541 3.300904 0 3.300904 
z
" id="me5899c56b2" style="stroke:#000000;stroke-width:0.75;"/>
    </defs>
    <g clip-path="url(#pc060b7320f)">
     <use style="fill:#f8756b;stroke:#000000;stroke-width:0.75;" x="225.991156" xlink:href="#me5899c56b2" y="142.393465"/>
    </g>
   </g>
   <g id="line2d_41">
    <defs>
     <path d="M 0 3.653629 
C 0.968954 3.653629 1.898352 3.268659 2.583505 2.583505 
C 3.268659 1.898352 3.653629 0.968954 3.653629 0 
C 3.653629 -0.968954 3.268659 -1.898352 2.583505 -2.583505 
C 1.898352 -3.268659 0.968954 -3.653629 0 -3.653629 
C -0.968954 -3.653629 -1.898352 -3.268659 -2.583505 -2.583505 
C -3.268659 -1.898352 -3.653629 -0.968954 -3.653629 0 
C -3.653629 0.968954 -3.268659 1.898352 -2.583505 2.583505 
C -1.898352 3.268659 -0.968954 3.653629 0 3.653629 
z
" id="m387f653137" style="stroke:#000000;stroke-width:0.75;"/>
    </defs>
    <g clip-path="url(#pc060b7320f)">
     <use style="fill:#f8756b;stroke:#000000;stroke-width:0.75;" x="219.514356" xlink:href="#m387f653137" y="160.432116"/>
    </g>
   </g>
   <g id="line2d_42">
    <defs>
     <path d="M 0 1.642926 
C 0.435709 1.642926 0.853631 1.469817 1.161724 1.161724 
C 1.469817 0.853631 1.642926 0.435709 1.642926 0 
C 1.642926 -0.435709 1.469817 -0.853631 1.161724 -1.161724 
C 0.853631 -1.469817 0.435709 -1.642926 0 -1.642926 
C -0.435709 -1.642926 -0.853631 -1.469817 -1.161724 -1.161724 
C -1.469817 -0.853631 -1.642926 -0.435709 -1.642926 0 
C -1.642926 0.435709 -1.469817 0.853631 -1.161724 1.161724 
C -0.853631 1.469817 -0.435709 1.642926 0 1.642926 
z
" id="md746300261" style="stroke:#000000;stroke-width:0.75;"/>
    </defs>
    <g clip-path="url(#pc060b7320f)">
     <use style="fill:#f8756b;stroke:#000000;stroke-width:0.75;" x="187.802751" xlink:href="#md746300261" y="133.965751"/>
    </g>
   </g>
   <g id="line2d_43">
    <g clip-path="url(#pc060b7320f)">
     <use style="fill:#f8756b;stroke:#000000;stroke-width:0.75;" x="190.467376" xlink:href="#md746300261" y="152.136634"/>
    </g>
   </g>
   <g id="line2d_44">
    <defs>
     <path d="M 0 3.243036 
C 0.860063 3.243036 1.685016 2.901329 2.293173 2.293173 
C 2.901329 1.685016 3.243036 0.860063 3.243036 0 
C 3.243036 -0.860063 2.901329 -1.685016 2.293173 -2.293173 
C 1.685016 -2.901329 0.860063 -3.243036 0 -3.243036 
C -0.860063 -3.243036 -1.685016 -2.901329 -2.293173 -2.293173 
C -2.901329 -1.685016 -3.243036 -0.860063 -3.243036 0 
C -3.243036 0.860063 -2.901329 1.685016 -2.293173 2.293173 
C -1.685016 2.901329 -0.860063 3.243036 0 3.243036 
z
" id="m74a4430600" style="stroke:#000000;stroke-width:0.25;"/>
    </defs>
    <g clip-path="url(#pc060b7320f)">
     <use style="fill:#bfbf00;stroke:#000000;stroke-width:0.25;" x="141.62026" xlink:href="#m74a4430600" y="198.500995"/>
    </g>
   </g>
   <g id="line2d_45">
    <defs>
     <path d="M 0 1.537944 
C 0.407867 1.537944 0.799085 1.375896 1.087491 1.087491 
C 1.375896 0.799085 1.537944 0.407867 1.537944 0 
C 1.537944 -0.407867 1.375896 -0.799085 1.087491 -1.087491 
C 0.799085 -1.375896 0.407867 -1.537944 0 -1.537944 
C -0.407867 -1.537944 -0.799085 -1.375896 -1.087491 -1.087491 
C -1.375896 -0.799085 -1.537944 -0.407867 -1.537944 0 
C -1.537944 0.407867 -1.375896 0.799085 -1.087491 1.087491 
C -0.799085 1.375896 -0.407867 1.537944 0 1.537944 
z
" id="m56dc1c868a" style="stroke:#000000;stroke-width:0.25;"/>
    </defs>
    <g clip-path="url(#pc060b7320f)">
     <use style="fill:#bfbf00;stroke:#000000;stroke-width:0.25;" x="140.740109" xlink:href="#m56dc1c868a" y="186.402117"/>
    </g>
   </g>
   <g id="line2d_46">
    <defs>
     <path d="M 0 3.375374 
C 0.89516 3.375374 1.753777 3.019724 2.38675 2.38675 
C 3.019724 1.753777 3.375374 0.89516 3.375374 0 
C 3.375374 -0.89516 3.019724 -1.753777 2.38675 -2.38675 
C 1.753777 -3.019724 0.89516 -3.375374 0 -3.375374 
C -0.89516 -3.375374 -1.753777 -3.019724 -2.38675 -2.38675 
C -3.019724 -1.753777 -3.375374 -0.89516 -3.375374 0 
C -3.375374 0.89516 -3.019724 1.753777 -2.38675 2.38675 
C -1.753777 3.019724 -0.89516 3.375374 0 3.375374 
z
" id="m569d369831" style="stroke:#000000;stroke-width:0.75;"/>
    </defs>
    <g clip-path="url(#pc060b7320f)">
     <use style="fill:#f8756b;stroke:#000000;stroke-width:0.75;" x="146.900231" xlink:href="#m569d369831" y="163.087978"/>
    </g>
   </g>
   <g id="line2d_47">
    <defs>
     <path d="M 0 3.887074 
C 1.030864 3.887074 2.019645 3.477507 2.748576 2.748576 
C 3.477507 2.019645 3.887074 1.030864 3.887074 0 
C 3.887074 -1.030864 3.477507 -2.019645 2.748576 -2.748576 
C 2.019645 -3.477507 1.030864 -3.887074 0 -3.887074 
C -1.030864 -3.887074 -2.019645 -3.477507 -2.748576 -2.748576 
C -3.477507 -2.019645 -3.887074 -1.030864 -3.887074 0 
C -3.887074 1.030864 -3.477507 2.019645 -2.748576 2.748576 
C -2.019645 3.477507 -1.030864 3.887074 0 3.887074 
z
" id="m4ad9f9bedc" style="stroke:#000000;stroke-width:0.75;"/>
    </defs>
    <g clip-path="url(#pc060b7320f)">
     <use style="fill:#00bec6;stroke:#000000;stroke-width:0.75;" x="142.529007" xlink:href="#m4ad9f9bedc" y="174.403893"/>
    </g>
   </g>
   <g id="line2d_48">
    <defs>
     <path d="M 0 3.907947 
C 1.0364 3.907947 2.03049 3.496181 2.763336 2.763336 
C 3.496181 2.03049 3.907947 1.0364 3.907947 0 
C 3.907947 -1.0364 3.496181 -2.03049 2.763336 -2.763336 
C 2.03049 -3.496181 1.0364 -3.907947 0 -3.907947 
C -1.0364 -3.907947 -2.03049 -3.496181 -2.763336 -2.763336 
C -3.496181 -2.03049 -3.907947 -1.0364 -3.907947 0 
C -3.907947 1.0364 -3.496181 2.03049 -2.763336 2.763336 
C -2.03049 3.496181 -1.0364 3.907947 0 3.907947 
z
" id="ma5c8be8ee0" style="stroke:#000000;stroke-width:0.75;"/>
    </defs>
    <g clip-path="url(#pc060b7320f)">
     <use style="fill:#00bec6;stroke:#000000;stroke-width:0.75;" x="159.533281" xlink:href="#ma5c8be8ee0" y="182.639333"/>
    </g>
   </g>
   <g id="line2d_49">
    <defs>
     <path d="M 0 2.29548 
C 0.608768 2.29548 1.192685 2.053614 1.623149 1.623149 
C 2.053614 1.192685 2.29548 0.608768 2.29548 0 
C 2.29548 -0.608768 2.053614 -1.192685 1.623149 -1.623149 
C 1.192685 -2.053614 0.608768 -2.29548 0 -2.29548 
C -0.608768 -2.29548 -1.192685 -2.053614 -1.623149 -1.623149 
C -2.053614 -1.192685 -2.29548 -0.608768 -2.29548 0 
C -2.29548 0.608768 -2.053614 1.192685 -1.623149 1.623149 
C -1.192685 2.053614 -0.608768 2.29548 0 2.29548 
z
" id="mdbd5921d9c" style="stroke:#000000;stroke-width:0.75;"/>
    </defs>
    <g clip-path="url(#pc060b7320f)">
     <use style="fill:#f8756b;stroke:#000000;stroke-width:0.75;" x="216.963128" xlink:href="#mdbd5921d9c" y="239.345973"/>
    </g>
   </g>
   <g id="line2d_50">
    <g clip-path="url(#pc060b7320f)">
     <use style="fill:#f8756b;stroke:#000000;stroke-width:0.75;" x="209.907627" xlink:href="#mdbd5921d9c" y="222.390116"/>
    </g>
   </g>
   <g id="line2d_51">
    <defs>
     <path d="M 0 1.791238 
C 0.475042 1.791238 0.930691 1.602502 1.266597 1.266597 
C 1.602502 0.930691 1.791238 0.475042 1.791238 0 
C 1.791238 -0.475042 1.602502 -0.930691 1.266597 -1.266597 
C 0.930691 -1.602502 0.475042 -1.791238 0 -1.791238 
C -0.475042 -1.791238 -0.930691 -1.602502 -1.266597 -1.266597 
C -1.602502 -0.930691 -1.791238 -0.475042 -1.791238 0 
C -1.791238 0.475042 -1.602502 0.930691 -1.266597 1.266597 
C -0.930691 1.602502 -0.475042 1.791238 0 1.791238 
z
" id="mab9f23c45c" style="stroke:#000000;stroke-width:0.25;"/>
    </defs>
    <g clip-path="url(#pc060b7320f)">
     <use style="fill:#bfbf00;stroke:#000000;stroke-width:0.25;" x="239.717335" xlink:href="#mab9f23c45c" y="221.742526"/>
    </g>
   </g>
   <g id="line2d_52">
    <defs>
     <path d="M 0 3.429793 
C 0.909592 3.429793 1.782051 3.068408 2.42523 2.42523 
C 3.068408 1.782051 3.429793 0.909592 3.429793 0 
C 3.429793 -0.909592 3.068408 -1.782051 2.42523 -2.42523 
C 1.782051 -3.068408 0.909592 -3.429793 0 -3.429793 
C -0.909592 -3.429793 -1.782051 -3.068408 -2.42523 -2.42523 
C -3.068408 -1.782051 -3.429793 -0.909592 -3.429793 0 
C -3.429793 0.909592 -3.068408 1.782051 -2.42523 2.42523 
C -1.782051 3.068408 -0.909592 3.429793 0 3.429793 
z
" id="m6a8c4dc298" style="stroke:#000000;stroke-width:0.75;"/>
    </defs>
    <g clip-path="url(#pc060b7320f)">
     <use style="fill:#f8756b;stroke:#000000;stroke-width:0.75;" x="245.932245" xlink:href="#m6a8c4dc298" y="211.324636"/>
    </g>
   </g>
   <g id="line2d_53">
    <defs>
     <path d="M 0 3.429908 
C 0.909622 3.429908 1.782111 3.068511 2.425311 2.425311 
C 3.068511 1.782111 3.429908 0.909622 3.429908 0 
C 3.429908 -0.909622 3.068511 -1.782111 2.425311 -2.425311 
C 1.782111 -3.068511 0.909622 -3.429908 0 -3.429908 
C -0.909622 -3.429908 -1.782111 -3.068511 -2.425311 -2.425311 
C -3.068511 -1.782111 -3.429908 -0.909622 -3.429908 0 
C -3.429908 0.909622 -3.068511 1.782111 -2.425311 2.425311 
C -1.782111 3.068511 -0.909622 3.429908 0 3.429908 
z
" id="m133b6c9bda" style="stroke:#000000;stroke-width:0.75;"/>
    </defs>
    <g clip-path="url(#pc060b7320f)">
     <use style="fill:#f8756b;stroke:#000000;stroke-width:0.75;" x="227.119266" xlink:href="#m133b6c9bda" y="207.662169"/>
    </g>
   </g>
   <g id="line2d_54">
    <defs>
     <path d="M 0 3.999854 
C 1.060774 3.999854 2.078244 3.578405 2.828324 2.828324 
C 3.578405 2.078244 3.999854 1.060774 3.999854 0 
C 3.999854 -1.060774 3.578405 -2.078244 2.828324 -2.828324 
C 2.078244 -3.578405 1.060774 -3.999854 0 -3.999854 
C -1.060774 -3.999854 -2.078244 -3.578405 -2.828324 -2.828324 
C -3.578405 -2.078244 -3.999854 -1.060774 -3.999854 0 
C -3.999854 1.060774 -3.578405 2.078244 -2.828324 2.828324 
C -2.078244 3.578405 -1.060774 3.999854 0 3.999854 
z
" id="md750c80c57" style="stroke:#000000;stroke-width:0.25;"/>
    </defs>
    <g clip-path="url(#pc060b7320f)">
     <use style="fill:#bfbf00;stroke:#000000;stroke-width:0.25;" x="177.896078" xlink:href="#md750c80c57" y="192.583473"/>
    </g>
   </g>
   <g id="line2d_55">
    <defs>
     <path d="M 0 2.843741 
C 0.754169 2.843741 1.477551 2.544107 2.010829 2.010829 
C 2.544107 1.477551 2.843741 0.754169 2.843741 0 
C 2.843741 -0.754169 2.544107 -1.477551 2.010829 -2.010829 
C 1.477551 -2.544107 0.754169 -2.843741 0 -2.843741 
C -0.754169 -2.843741 -1.477551 -2.544107 -2.010829 -2.010829 
C -2.544107 -1.477551 -2.843741 -0.754169 -2.843741 0 
C -2.843741 0.754169 -2.544107 1.477551 -2.010829 2.010829 
C -1.477551 2.544107 -0.754169 2.843741 0 2.843741 
z
" id="m60df01e638" style="stroke:#000000;stroke-width:0.25;"/>
    </defs>
    <g clip-path="url(#pc060b7320f)">
     <use style="fill:#bfbf00;stroke:#000000;stroke-width:0.25;" x="250.557391" xlink:href="#m60df01e638" y="182.412975"/>
    </g>
   </g>
   <g id="line2d_56">
    <g clip-path="url(#pc060b7320f)">
     <use style="fill:#bfbf00;stroke:#000000;stroke-width:0.25;" x="232.303802" xlink:href="#m60df01e638" y="184.434783"/>
    </g>
   </g>
   <g id="line2d_57">
    <g clip-path="url(#pc060b7320f)">
     <use style="fill:#bfbf00;stroke:#000000;stroke-width:0.25;" x="214.050214" xlink:href="#m60df01e638" y="186.456592"/>
    </g>
   </g>
   <g id="line2d_58">
    <defs>
     <path d="M 0 0.5 
C 0.132602 0.5 0.25979 0.447317 0.353553 0.353553 
C 0.447317 0.25979 0.5 0.132602 0.5 0 
C 0.5 -0.132602 0.447317 -0.25979 0.353553 -0.353553 
C 0.25979 -0.447317 0.132602 -0.5 0 -0.5 
C -0.132602 -0.5 -0.25979 -0.447317 -0.353553 -0.353553 
C -0.447317 -0.25979 -0.5 -0.132602 -0.5 0 
C -0.5 0.132602 -0.447317 0.25979 -0.353553 0.353553 
C -0.25979 0.447317 -0.132602 0.5 0 0.5 
z
" id="md351dabf40" style="stroke:#000000;stroke-width:0.01;"/>
    </defs>
    <g clip-path="url(#pc060b7320f)">
     <use style="fill:#bfbf00;stroke:#000000;stroke-width:0.01;" x="195.796625" xlink:href="#md351dabf40" y="188.4784"/>
    </g>
   </g>
   <g id="text_1">
    <text style="fill:#660000;font-family:DejaVu Sans;font-size:6px;font-stretch:normal;font-style:normal;font-weight:normal;" transform="translate(279.300163 121.296277)rotate(-307.83526)">a</text>
   </g>
   <g id="text_2">
    <text style="fill:#660000;font-family:DejaVu Sans;font-size:6px;font-stretch:normal;font-style:normal;font-weight:normal;" transform="translate(250.944173 96.580229)rotate(-328.014066)">b</text>
   </g>
   <g id="text_3">
    <text style="fill:#660000;font-family:DejaVu Sans;font-size:6px;font-stretch:normal;font-style:normal;font-weight:normal;" transform="translate(278.242041 102.517623)rotate(-315.402312)">c</text>
   </g>
   <g id="text_4">
    <text style="fill:#660000;font-family:DejaVu Sans;font-size:6px;font-stretch:normal;font-style:normal;font-weight:normal;" transform="translate(178.364563 82.730354)rotate(-8.342539)">d</text>
   </g>
   <g id="text_5">
    <text style="fill:#660000;font-family:DejaVu Sans;font-size:6px;font-stretch:normal;font-style:normal;font-weight:normal;" transform="translate(176.69053 70.910779)rotate(-8.342539)">e</text>
   </g>
   <g id="text_6">
    <text style="fill:#660000;font-family:DejaVu Sans;font-size:6px;font-stretch:normal;font-style:normal;font-weight:normal;" transform="translate(104.213961 132.83103)rotate(-58.15168)">f</text>
   </g>
   <g id="text_7">
    <text style="fill:#003300;font-family:DejaVu Sans;font-size:6px;font-stretch:normal;font-style:normal;font-weight:normal;" transform="translate(91.707248 162.945527)rotate(-75.199401)">g</text>
   </g>
   <g id="text_8">
    <text style="fill:#003300;font-family:DejaVu Sans;font-size:6px;font-stretch:normal;font-style:normal;font-weight:normal;" transform="translate(78.766738 166.31083)rotate(-78.359624)">h</text>
   </g>
   <g id="text_9">
    <text style="fill:#660000;font-family:DejaVu Sans;font-size:6px;font-stretch:normal;font-style:normal;font-weight:normal;" transform="translate(174.181499 293.437343)rotate(-167.917643)">i</text>
   </g>
   <g id="text_10">
    <text style="fill:#660000;font-family:DejaVu Sans;font-size:6px;font-stretch:normal;font-style:normal;font-weight:normal;" transform="translate(243.106583 284.631201)rotate(-205.752903)">j</text>
   </g>
   <g id="text_11">
    <text style="fill:#660000;font-family:DejaVu Sans;font-size:6px;font-stretch:normal;font-style:normal;font-weight:normal;" transform="translate(249.107257 294.990254)rotate(-205.752903)">k</text>
   </g>
   <g id="text_12">
    <text style="fill:#660000;font-family:DejaVu Sans;font-size:6px;font-stretch:normal;font-style:normal;font-weight:normal;" transform="translate(293.653495 232.154781)rotate(-245.501781)">l</text>
   </g>
   <g id="text_13">
    <text style="fill:#660000;font-family:DejaVu Sans;font-size:6px;font-stretch:normal;font-style:normal;font-weight:normal;" transform="translate(290.964107 260.140596)rotate(-231.614283)">m</text>
   </g>
   <g id="text_14">
    <text style="font-family:DejaVu Sans;font-size:14px;font-stretch:normal;font-style:normal;font-weight:normal;text-anchor:middle;" transform="rotate(-0, 195.796625, 49.4224)" x="195.796625" y="49.4224">Cladogram</text>
   </g>
   <g id="legend_1">
    <g id="patch_30">
     <path d="M 336.574865 62.381462 
L 348.574865 62.381462 
L 348.574865 58.181462 
L 336.574865 58.181462 
z
" style="fill:#f8756b;stroke:#000000;stroke-linejoin:miter;"/>
    </g>
    <g id="text_15">
     <text style="font-family:DejaVu Sans;font-size:6px;font-stretch:normal;font-style:normal;font-weight:normal;text-anchor:start;" transform="rotate(-0, 353.374865, 62.381462)" x="353.374865" y="62.381462">a: c__Actinobacteria</text>
    </g>
    <g id="patch_31">
     <path d="M 336.574865 71.355212 
L 348.574865 71.355212 
L 348.574865 67.155212 
L 336.574865 67.155212 
z
" style="fill:#f8756b;stroke:#000000;stroke-linejoin:miter;"/>
    </g>
    <g id="text_16">
     <text style="font-family:DejaVu Sans;font-size:6px;font-stretch:normal;font-style:normal;font-weight:normal;text-anchor:start;" transform="rotate(-0, 353.374865, 71.355212)" x="353.374865" y="71.355212">b: c__Coriobacteriia</text>
    </g>
    <g id="patch_32">
     <path d="M 336.574865 80.328962 
L 348.574865 80.328962 
L 348.574865 76.128962 
L 336.574865 76.128962 
z
" style="fill:#f8756b;stroke:#000000;stroke-linejoin:miter;"/>
    </g>
    <g id="text_17">
     <text style="font-family:DejaVu Sans;font-size:6px;font-stretch:normal;font-style:normal;font-weight:normal;text-anchor:start;" transform="rotate(-0, 353.374865, 80.328962)" x="353.374865" y="80.328962">c: p__Actinobacteriota</text>
    </g>
    <g id="patch_33">
     <path d="M 336.574865 89.302712 
L 348.574865 89.302712 
L 348.574865 85.102712 
L 336.574865 85.102712 
z
" style="fill:#f8756b;stroke:#000000;stroke-linejoin:miter;"/>
    </g>
    <g id="text_18">
     <text style="font-family:DejaVu Sans;font-size:6px;font-stretch:normal;font-style:normal;font-weight:normal;text-anchor:start;" transform="rotate(-0, 353.374865, 89.302712)" x="353.374865" y="89.302712">d: c__Campylobacteria</text>
    </g>
    <g id="patch_34">
     <path d="M 336.574865 98.276462 
L 348.574865 98.276462 
L 348.574865 94.076462 
L 336.574865 94.076462 
z
" style="fill:#f8756b;stroke:#000000;stroke-linejoin:miter;"/>
    </g>
    <g id="text_19">
     <text style="font-family:DejaVu Sans;font-size:6px;font-stretch:normal;font-style:normal;font-weight:normal;text-anchor:start;" transform="rotate(-0, 353.374865, 98.276462)" x="353.374865" y="98.276462">e: p__Campilobacterota</text>
    </g>
    <g id="patch_35">
     <path d="M 336.574865 107.250212 
L 348.574865 107.250212 
L 348.574865 103.050212 
L 336.574865 103.050212 
z
" style="fill:#f8756b;stroke:#000000;stroke-linejoin:miter;"/>
    </g>
    <g id="text_20">
     <text style="font-family:DejaVu Sans;font-size:6px;font-stretch:normal;font-style:normal;font-weight:normal;text-anchor:start;" transform="rotate(-0, 353.374865, 107.250212)" x="353.374865" y="107.250212">f: c__Bacilli</text>
    </g>
    <g id="patch_36">
     <path d="M 336.574865 116.223962 
L 348.574865 116.223962 
L 348.574865 112.023962 
L 336.574865 112.023962 
z
" style="fill:#00bec6;stroke:#000000;stroke-linejoin:miter;"/>
    </g>
    <g id="text_21">
     <text style="font-family:DejaVu Sans;font-size:6px;font-stretch:normal;font-style:normal;font-weight:normal;text-anchor:start;" transform="rotate(-0, 353.374865, 116.223962)" x="353.374865" y="116.223962">g: c__Clostridia</text>
    </g>
    <g id="patch_37">
     <path d="M 336.574865 125.197712 
L 348.574865 125.197712 
L 348.574865 120.997712 
L 336.574865 120.997712 
z
" style="fill:#00bec6;stroke:#000000;stroke-linejoin:miter;"/>
    </g>
    <g id="text_22">
     <text style="font-family:DejaVu Sans;font-size:6px;font-stretch:normal;font-style:normal;font-weight:normal;text-anchor:start;" transform="rotate(-0, 353.374865, 125.197712)" x="353.374865" y="125.197712">h: p__Firmicutes</text>
    </g>
    <g id="patch_38">
     <path d="M 336.574865 134.171462 
L 348.574865 134.171462 
L 348.574865 129.971462 
L 336.574865 129.971462 
z
" style="fill:#f8756b;stroke:#000000;stroke-linejoin:miter;"/>
    </g>
    <g id="text_23">
     <text style="font-family:DejaVu Sans;font-size:6px;font-stretch:normal;font-style:normal;font-weight:normal;text-anchor:start;" transform="rotate(-0, 353.374865, 134.171462)" x="353.374865" y="134.171462">i: c__Alphaproteobacteria</text>
    </g>
    <g id="patch_39">
     <path d="M 336.574865 143.145212 
L 348.574865 143.145212 
L 348.574865 138.945212 
L 336.574865 138.945212 
z
" style="fill:#f8756b;stroke:#000000;stroke-linejoin:miter;"/>
    </g>
    <g id="text_24">
     <text style="font-family:DejaVu Sans;font-size:6px;font-stretch:normal;font-style:normal;font-weight:normal;text-anchor:start;" transform="rotate(-0, 353.374865, 143.145212)" x="353.374865" y="143.145212">j: c__Synergistia</text>
    </g>
    <g id="patch_40">
     <path d="M 336.574865 152.118962 
L 348.574865 152.118962 
L 348.574865 147.918962 
L 336.574865 147.918962 
z
" style="fill:#f8756b;stroke:#000000;stroke-linejoin:miter;"/>
    </g>
    <g id="text_25">
     <text style="font-family:DejaVu Sans;font-size:6px;font-stretch:normal;font-style:normal;font-weight:normal;text-anchor:start;" transform="rotate(-0, 353.374865, 152.118962)" x="353.374865" y="152.118962">k: p__Synergistota</text>
    </g>
    <g id="patch_41">
     <path d="M 336.574865 161.092712 
L 348.574865 161.092712 
L 348.574865 156.892712 
L 336.574865 156.892712 
z
" style="fill:#f8756b;stroke:#000000;stroke-linejoin:miter;"/>
    </g>
    <g id="text_26">
     <text style="font-family:DejaVu Sans;font-size:6px;font-stretch:normal;font-style:normal;font-weight:normal;text-anchor:start;" transform="rotate(-0, 353.374865, 161.092712)" x="353.374865" y="161.092712">l: c__Verrucomicrobiae</text>
    </g>
    <g id="patch_42">
     <path d="M 336.574865 170.066462 
L 348.574865 170.066462 
L 348.574865 165.866462 
L 336.574865 165.866462 
z
" style="fill:#f8756b;stroke:#000000;stroke-linejoin:miter;"/>
    </g>
    <g id="text_27">
     <text style="font-family:DejaVu Sans;font-size:6px;font-stretch:normal;font-style:normal;font-weight:normal;text-anchor:start;" transform="rotate(-0, 353.374865, 170.066462)" x="353.374865" y="170.066462">m: p__Verrucomicrobiota</text>
    </g>
   </g>
   <g id="legend_2">
    <g id="patch_43">
     <path d="M 11.2 18.798437 
L 31.2 18.798437 
L 31.2 11.798437 
L 11.2 11.798437 
z
" style="fill:#f8756b;"/>
    </g>
    <g id="text_28">
     <text style="font-family:DejaVu Sans;font-size:10px;font-stretch:normal;font-style:normal;font-weight:normal;text-anchor:start;" transform="rotate(-0, 39.2, 18.798437)" x="39.2" y="18.798437">AD</text>
    </g>
    <g id="patch_44">
     <path d="M 11.2 33.476562 
L 31.2 33.476562 
L 31.2 26.476562 
L 11.2 26.476562 
z
" style="fill:#00bec6;"/>
    </g>
    <g id="text_29">
     <text style="font-family:DejaVu Sans;font-size:10px;font-stretch:normal;font-style:normal;font-weight:normal;text-anchor:start;" transform="rotate(-0, 39.2, 33.476562)" x="39.2" y="33.476562">C</text>
    </g>
   </g>
  </g>
 </g>
 <defs>
  <clipPath id="pc060b7320f">
   <path d="M 328.852625 188.4784 
C 328.852625 171.005646 325.410873 153.702793 318.72434 137.560073 
C 312.037807 121.417354 302.236528 106.748703 289.881425 94.3936 
C 277.526322 82.038497 262.857671 72.237218 246.714952 65.550685 
C 230.572232 58.864152 213.269379 55.4224 195.796625 55.4224 
C 178.323871 55.4224 161.021018 58.864152 144.878298 65.550685 
C 128.735579 72.237218 114.066928 82.038497 101.711825 94.3936 
C 89.356722 106.748703 79.555443 121.417354 72.86891 137.560073 
C 66.182377 153.702793 62.740625 171.005646 62.740625 188.4784 
C 62.740625 205.951154 66.182377 223.254007 72.86891 239.396727 
C 79.555443 255.539446 89.356722 270.208097 101.711825 282.5632 
C 114.066928 294.918303 128.735579 304.719582 144.878298 311.406115 
C 161.021018 318.092648 178.323871 321.5344 195.796625 321.5344 
C 213.269379 321.5344 230.572232 318.092648 246.714952 311.406115 
C 262.857671 304.719582 277.526322 294.918303 289.881425 282.5632 
C 302.236528 270.208097 312.037807 255.539446 318.72434 239.396727 
C 325.410873 223.254007 328.852625 205.951154 328.852625 188.4784 
M 195.796625 188.4784 
C 195.796625 188.4784 195.796625 188.4784 195.796625 188.4784 
C 195.796625 188.4784 195.796625 188.4784 195.796625 188.4784 
C 195.796625 188.4784 195.796625 188.4784 195.796625 188.4784 
C 195.796625 188.4784 195.796625 188.4784 195.796625 188.4784 
C 195.796625 188.4784 195.796625 188.4784 195.796625 188.4784 
C 195.796625 188.4784 195.796625 188.4784 195.796625 188.4784 
C 195.796625 188.4784 195.796625 188.4784 195.796625 188.4784 
C 195.796625 188.4784 195.796625 188.4784 195.796625 188.4784 
C 195.796625 188.4784 195.796625 188.4784 195.796625 188.4784 
C 195.796625 188.4784 195.796625 188.4784 195.796625 188.4784 
C 195.796625 188.4784 195.796625 188.4784 195.796625 188.4784 
C 195.796625 188.4784 195.796625 188.4784 195.796625 188.4784 
C 195.796625 188.4784 195.796625 188.4784 195.796625 188.4784 
C 195.796625 188.4784 195.796625 188.4784 195.796625 188.4784 
C 195.796625 188.4784 195.796625 188.4784 195.796625 188.4784 
C 195.796625 188.4784 195.796625 188.4784 195.796625 188.4784 
M 328.852625 188.4784 
z
"/>
  </clipPath>
 </defs>
</svg>
