<?xml version="1.0" encoding="utf-8" standalone="no"?>
<!DOCTYPE svg PUBLIC "-//W3C//DTD SVG 1.1//EN"
  "http://www.w3.org/Graphics/SVG/1.1/DTD/svg11.dtd">
<!-- Created with matplotlib (http://matplotlib.org/) -->
<svg height="288pt" version="1.1" viewBox="0 0 504 288" width="504pt" xmlns="http://www.w3.org/2000/svg" xmlns:xlink="http://www.w3.org/1999/xlink">
 <defs>
  <style type="text/css">
*{stroke-linecap:butt;stroke-linejoin:round;stroke-miterlimit:100000;}
  </style>
 </defs>
 <g id="figure_1">
  <g id="patch_1">
   <path d="M 0 288 
L 504 288 
L 504 0 
L 0 0 
z
" style="fill:#ffffff;"/>
  </g>
  <g id="axes_1">
   <g id="patch_2">
    <path d="M 63 244.8 
L 453.6 244.8 
L 453.6 28.8 
L 63 28.8 
z
" style="fill:#ffffff;"/>
   </g>
   <g id="patch_3">
    <path clip-path="url(#p9f8fe96c63)" d="M 63.660454 244.8 
L 65.469919 244.8 
L 65.469919 216.051484 
L 63.660454 216.051484 
z
" style="fill:#ff0000;stroke:#ff0000;stroke-linejoin:miter;stroke-width:0.1;"/>
   </g>
   <g id="patch_4">
    <path clip-path="url(#p9f8fe96c63)" d="M 65.922285 244.8 
L 67.731749 244.8 
L 67.731749 235.530006 
L 65.922285 235.530006 
z
" style="fill:#ff0000;stroke:#ff0000;stroke-linejoin:miter;stroke-width:0.1;"/>
   </g>
   <g id="patch_5">
    <path clip-path="url(#p9f8fe96c63)" d="M 68.184115 244.8 
L 69.993579 244.8 
L 69.993579 203.813934 
L 68.184115 203.813934 
z
" style="fill:#ff0000;stroke:#ff0000;stroke-linejoin:miter;stroke-width:0.1;"/>
   </g>
   <g id="patch_6">
    <path clip-path="url(#p9f8fe96c63)" d="M 70.445945 244.8 
L 72.25541 244.8 
L 72.25541 235.212569 
L 70.445945 235.212569 
z
" style="fill:#ff0000;stroke:#ff0000;stroke-linejoin:miter;stroke-width:0.1;"/>
   </g>
   <g id="patch_7">
    <path clip-path="url(#p9f8fe96c63)" d="M 72.707776 244.8 
L 74.51724 244.8 
L 74.51724 243.064793 
L 72.707776 243.064793 
z
" style="fill:#ff0000;stroke:#ff0000;stroke-linejoin:miter;stroke-width:0.1;"/>
   </g>
   <g id="patch_8">
    <path clip-path="url(#p9f8fe96c63)" d="M 74.969606 244.8 
L 76.77907 244.8 
L 76.77907 223.879709 
L 74.969606 223.879709 
z
" style="fill:#ff0000;stroke:#ff0000;stroke-linejoin:miter;stroke-width:0.1;"/>
   </g>
   <g id="patch_9">
    <path clip-path="url(#p9f8fe96c63)" d="M 77.231436 244.8 
L 79.040901 244.8 
L 79.040901 132.676251 
L 77.231436 132.676251 
z
" style="fill:#ff0000;stroke:#ff0000;stroke-linejoin:miter;stroke-width:0.1;"/>
   </g>
   <g id="patch_10">
    <path clip-path="url(#p9f8fe96c63)" d="M 79.493267 244.8 
L 81.302731 244.8 
L 81.302731 194.923333 
L 79.493267 194.923333 
z
" style="fill:#ff0000;stroke:#ff0000;stroke-linejoin:miter;stroke-width:0.1;"/>
   </g>
   <g id="patch_11">
    <path clip-path="url(#p9f8fe96c63)" d="M 81.755097 244.8 
L 83.564561 244.8 
L 83.564561 28.8 
L 81.755097 28.8 
z
" style="fill:#ff0000;stroke:#ff0000;stroke-linejoin:miter;stroke-width:0.1;"/>
   </g>
   <g id="patch_12">
    <path clip-path="url(#p9f8fe96c63)" d="M 84.016927 244.8 
L 85.826391 244.8 
L 85.826391 242.577474 
L 84.016927 242.577474 
z
" style="fill:#ff0000;stroke:#ff0000;stroke-linejoin:miter;stroke-width:0.1;"/>
   </g>
   <g id="patch_13">
    <path clip-path="url(#p9f8fe96c63)" d="M 86.278758 244.8 
L 88.088222 244.8 
L 88.088222 241.866337 
L 86.278758 241.866337 
z
" style="fill:#ff0000;stroke:#ff0000;stroke-linejoin:miter;stroke-width:0.1;"/>
   </g>
   <g id="patch_14">
    <path clip-path="url(#p9f8fe96c63)" d="M 88.540588 244.8 
L 90.350052 244.8 
L 90.350052 124.212123 
L 88.540588 124.212123 
z
" style="fill:#ff0000;stroke:#ff0000;stroke-linejoin:miter;stroke-width:0.1;"/>
   </g>
   <g id="patch_15">
    <path clip-path="url(#p9f8fe96c63)" d="M 90.802418 244.8 
L 92.611882 244.8 
L 92.611882 230.626313 
L 90.802418 230.626313 
z
" style="fill:#ff0000;stroke:#ff0000;stroke-linejoin:miter;stroke-width:0.1;"/>
   </g>
   <g id="patch_16">
    <path clip-path="url(#p9f8fe96c63)" d="M 93.064248 244.8 
L 94.873713 244.8 
L 94.873713 212.914997 
L 93.064248 212.914997 
z
" style="fill:#ff0000;stroke:#ff0000;stroke-linejoin:miter;stroke-width:0.1;"/>
   </g>
   <g id="patch_17">
    <path clip-path="url(#p9f8fe96c63)" d="M 95.326079 244.8 
L 97.135543 244.8 
L 97.135543 212.955809 
L 95.326079 212.955809 
z
" style="fill:#ff0000;stroke:#ff0000;stroke-linejoin:miter;stroke-width:0.1;"/>
   </g>
   <g id="patch_18">
    <path clip-path="url(#p9f8fe96c63)" d="M 97.587909 244.8 
L 99.397373 244.8 
L 99.397373 231.126401 
L 97.587909 231.126401 
z
" style="fill:#ff0000;stroke:#ff0000;stroke-linejoin:miter;stroke-width:0.1;"/>
   </g>
   <g id="patch_19">
    <path clip-path="url(#p9f8fe96c63)" d="M 99.849739 244.8 
L 101.659204 244.8 
L 101.659204 193.936109 
L 99.849739 193.936109 
z
" style="fill:#ff0000;stroke:#ff0000;stroke-linejoin:miter;stroke-width:0.1;"/>
   </g>
   <g id="patch_20">
    <path clip-path="url(#p9f8fe96c63)" d="M 102.11157 244.8 
L 103.921034 244.8 
L 103.921034 233.206231 
L 102.11157 233.206231 
z
" style="fill:#ff0000;stroke:#ff0000;stroke-linejoin:miter;stroke-width:0.1;"/>
   </g>
   <g id="patch_21">
    <path clip-path="url(#p9f8fe96c63)" d="M 104.3734 244.8 
L 106.182864 244.8 
L 106.182864 28.8 
L 104.3734 28.8 
z
" style="fill:#ff0000;stroke:#ff0000;stroke-linejoin:miter;stroke-width:0.1;"/>
   </g>
   <g id="patch_22">
    <path clip-path="url(#p9f8fe96c63)" d="M 106.63523 244.8 
L 108.444695 244.8 
L 108.444695 240.042201 
L 106.63523 240.042201 
z
" style="fill:#ff0000;stroke:#ff0000;stroke-linejoin:miter;stroke-width:0.1;"/>
   </g>
   <g id="patch_23">
    <path clip-path="url(#p9f8fe96c63)" d="M 108.897061 244.8 
L 110.706525 244.8 
L 110.706525 224.372643 
L 108.897061 224.372643 
z
" style="fill:#ff0000;stroke:#ff0000;stroke-linejoin:miter;stroke-width:0.1;"/>
   </g>
   <g id="patch_24">
    <path clip-path="url(#p9f8fe96c63)" d="M 111.158891 244.8 
L 112.968355 244.8 
L 112.968355 238.945149 
L 111.158891 238.945149 
z
" style="fill:#ff0000;stroke:#ff0000;stroke-linejoin:miter;stroke-width:0.1;"/>
   </g>
   <g id="patch_25">
    <path clip-path="url(#p9f8fe96c63)" d="M 113.420721 244.8 
L 115.230186 244.8 
L 115.230186 226.141628 
L 113.420721 226.141628 
z
" style="fill:#ff0000;stroke:#ff0000;stroke-linejoin:miter;stroke-width:0.1;"/>
   </g>
   <g id="patch_26">
    <path clip-path="url(#p9f8fe96c63)" d="M 115.682552 244.8 
L 117.492016 244.8 
L 117.492016 225.42597 
L 115.682552 225.42597 
z
" style="fill:#ff0000;stroke:#ff0000;stroke-linejoin:miter;stroke-width:0.1;"/>
   </g>
   <g id="patch_27">
    <path clip-path="url(#p9f8fe96c63)" d="M 117.944382 244.8 
L 119.753846 244.8 
L 119.753846 204.407143 
L 117.944382 204.407143 
z
" style="fill:#ff0000;stroke:#ff0000;stroke-linejoin:miter;stroke-width:0.1;"/>
   </g>
   <g id="patch_28">
    <path clip-path="url(#p9f8fe96c63)" d="M 120.206212 244.8 
L 122.015676 244.8 
L 122.015676 121.420571 
L 120.206212 121.420571 
z
" style="fill:#ff0000;stroke:#ff0000;stroke-linejoin:miter;stroke-width:0.1;"/>
   </g>
   <g id="patch_29">
    <path clip-path="url(#p9f8fe96c63)" d="M 122.468043 244.8 
L 124.277507 244.8 
L 124.277507 230.190287 
L 122.468043 230.190287 
z
" style="fill:#ff0000;stroke:#ff0000;stroke-linejoin:miter;stroke-width:0.1;"/>
   </g>
   <g id="patch_30">
    <path clip-path="url(#p9f8fe96c63)" d="M 124.729873 244.8 
L 126.539337 244.8 
L 126.539337 231.480898 
L 124.729873 231.480898 
z
" style="fill:#ff0000;stroke:#ff0000;stroke-linejoin:miter;stroke-width:0.1;"/>
   </g>
   <g id="patch_31">
    <path clip-path="url(#p9f8fe96c63)" d="M 126.991703 244.8 
L 128.801167 244.8 
L 128.801167 233.148722 
L 126.991703 233.148722 
z
" style="fill:#ff0000;stroke:#ff0000;stroke-linejoin:miter;stroke-width:0.1;"/>
   </g>
   <g id="patch_32">
    <path clip-path="url(#p9f8fe96c63)" d="M 129.253533 244.8 
L 131.062998 244.8 
L 131.062998 129.047169 
L 129.253533 129.047169 
z
" style="fill:#ff0000;stroke:#ff0000;stroke-linejoin:miter;stroke-width:0.1;"/>
   </g>
   <g id="patch_33">
    <path clip-path="url(#p9f8fe96c63)" d="M 131.515364 244.8 
L 133.324828 244.8 
L 133.324828 218.687292 
L 131.515364 218.687292 
z
" style="fill:#ff0000;stroke:#ff0000;stroke-linejoin:miter;stroke-width:0.1;"/>
   </g>
   <g id="patch_34">
    <path clip-path="url(#p9f8fe96c63)" d="M 133.777194 244.8 
L 135.586658 244.8 
L 135.586658 215.809064 
L 133.777194 215.809064 
z
" style="fill:#ff0000;stroke:#ff0000;stroke-linejoin:miter;stroke-width:0.1;"/>
   </g>
   <g id="patch_35">
    <path clip-path="url(#p9f8fe96c63)" d="M 136.039024 244.8 
L 137.848489 244.8 
L 137.848489 99.751948 
L 136.039024 99.751948 
z
" style="fill:#ff0000;stroke:#ff0000;stroke-linejoin:miter;stroke-width:0.1;"/>
   </g>
   <g id="patch_36">
    <path clip-path="url(#p9f8fe96c63)" d="M 138.300855 244.8 
L 140.110319 244.8 
L 140.110319 215.824343 
L 138.300855 215.824343 
z
" style="fill:#ff0000;stroke:#ff0000;stroke-linejoin:miter;stroke-width:0.1;"/>
   </g>
   <g id="patch_37">
    <path clip-path="url(#p9f8fe96c63)" d="M 140.562685 244.8 
L 142.372149 244.8 
L 142.372149 237.506647 
L 140.562685 237.506647 
z
" style="fill:#ff0000;stroke:#ff0000;stroke-linejoin:miter;stroke-width:0.1;"/>
   </g>
   <g id="patch_38">
    <path clip-path="url(#p9f8fe96c63)" d="M 142.824515 244.8 
L 144.63398 244.8 
L 144.63398 187.154652 
L 142.824515 187.154652 
z
" style="fill:#ff0000;stroke:#ff0000;stroke-linejoin:miter;stroke-width:0.1;"/>
   </g>
   <g id="patch_39">
    <path clip-path="url(#p9f8fe96c63)" d="M 145.086346 244.8 
L 146.89581 244.8 
L 146.89581 211.380066 
L 145.086346 211.380066 
z
" style="fill:#ff0000;stroke:#ff0000;stroke-linejoin:miter;stroke-width:0.1;"/>
   </g>
   <g id="patch_40">
    <path clip-path="url(#p9f8fe96c63)" d="M 147.348176 244.8 
L 149.15764 244.8 
L 149.15764 94.547951 
L 147.348176 94.547951 
z
" style="fill:#ff0000;stroke:#ff0000;stroke-linejoin:miter;stroke-width:0.1;"/>
   </g>
   <g id="patch_41">
    <path clip-path="url(#p9f8fe96c63)" d="M 149.610006 244.8 
L 151.419471 244.8 
L 151.419471 180.975985 
L 149.610006 180.975985 
z
" style="fill:#ff0000;stroke:#ff0000;stroke-linejoin:miter;stroke-width:0.1;"/>
   </g>
   <g id="patch_42">
    <path clip-path="url(#p9f8fe96c63)" d="M 151.871837 244.8 
L 153.681301 244.8 
L 153.681301 175.930428 
L 151.871837 175.930428 
z
" style="fill:#ff0000;stroke:#ff0000;stroke-linejoin:miter;stroke-width:0.1;"/>
   </g>
   <g id="patch_43">
    <path clip-path="url(#p9f8fe96c63)" d="M 154.133667 244.8 
L 155.943131 244.8 
L 155.943131 236.754828 
L 154.133667 236.754828 
z
" style="fill:#ff0000;stroke:#ff0000;stroke-linejoin:miter;stroke-width:0.1;"/>
   </g>
   <g id="patch_44">
    <path clip-path="url(#p9f8fe96c63)" d="M 156.395497 244.8 
L 158.204961 244.8 
L 158.204961 244.423692 
L 156.395497 244.423692 
z
" style="fill:#ff0000;stroke:#ff0000;stroke-linejoin:miter;stroke-width:0.1;"/>
   </g>
   <g id="patch_45">
    <path clip-path="url(#p9f8fe96c63)" d="M 158.657327 244.8 
L 160.466792 244.8 
L 160.466792 228.068765 
L 158.657327 228.068765 
z
" style="fill:#ff0000;stroke:#ff0000;stroke-linejoin:miter;stroke-width:0.1;"/>
   </g>
   <g id="patch_46">
    <path clip-path="url(#p9f8fe96c63)" d="M 160.919158 244.8 
L 162.728622 244.8 
L 162.728622 239.818198 
L 160.919158 239.818198 
z
" style="fill:#ff0000;stroke:#ff0000;stroke-linejoin:miter;stroke-width:0.1;"/>
   </g>
   <g id="patch_47">
    <path clip-path="url(#p9f8fe96c63)" d="M 163.180988 244.8 
L 164.990452 244.8 
L 164.990452 239.3116 
L 163.180988 239.3116 
z
" style="fill:#ff0000;stroke:#ff0000;stroke-linejoin:miter;stroke-width:0.1;"/>
   </g>
   <g id="patch_48">
    <path clip-path="url(#p9f8fe96c63)" d="M 165.442818 244.8 
L 167.252283 244.8 
L 167.252283 214.875057 
L 165.442818 214.875057 
z
" style="fill:#ff0000;stroke:#ff0000;stroke-linejoin:miter;stroke-width:0.1;"/>
   </g>
   <g id="patch_49">
    <path clip-path="url(#p9f8fe96c63)" d="M 167.704649 244.8 
L 169.514113 244.8 
L 169.514113 222.041469 
L 167.704649 222.041469 
z
" style="fill:#ff0000;stroke:#ff0000;stroke-linejoin:miter;stroke-width:0.1;"/>
   </g>
   <g id="patch_50">
    <path clip-path="url(#p9f8fe96c63)" d="M 169.966479 244.8 
L 171.775943 244.8 
L 171.775943 166.142588 
L 169.966479 166.142588 
z
" style="fill:#ff0000;stroke:#ff0000;stroke-linejoin:miter;stroke-width:0.1;"/>
   </g>
   <g id="patch_51">
    <path clip-path="url(#p9f8fe96c63)" d="M 172.228309 244.8 
L 174.037774 244.8 
L 174.037774 184.965366 
L 172.228309 184.965366 
z
" style="fill:#ff0000;stroke:#ff0000;stroke-linejoin:miter;stroke-width:0.1;"/>
   </g>
   <g id="patch_52">
    <path clip-path="url(#p9f8fe96c63)" d="M 174.49014 244.8 
L 176.299604 244.8 
L 176.299604 228.559695 
L 174.49014 228.559695 
z
" style="fill:#ff0000;stroke:#ff0000;stroke-linejoin:miter;stroke-width:0.1;"/>
   </g>
   <g id="patch_53">
    <path clip-path="url(#p9f8fe96c63)" d="M 176.75197 244.8 
L 178.561434 244.8 
L 178.561434 164.783154 
L 176.75197 164.783154 
z
" style="fill:#ff0000;stroke:#ff0000;stroke-linejoin:miter;stroke-width:0.1;"/>
   </g>
   <g id="patch_54">
    <path clip-path="url(#p9f8fe96c63)" d="M 179.0138 244.8 
L 180.823265 244.8 
L 180.823265 166.534914 
L 179.0138 166.534914 
z
" style="fill:#ff0000;stroke:#ff0000;stroke-linejoin:miter;stroke-width:0.1;"/>
   </g>
   <g id="patch_55">
    <path clip-path="url(#p9f8fe96c63)" d="M 181.275631 244.8 
L 183.085095 244.8 
L 183.085095 177.677813 
L 181.275631 177.677813 
z
" style="fill:#ff0000;stroke:#ff0000;stroke-linejoin:miter;stroke-width:0.1;"/>
   </g>
   <g id="patch_56">
    <path clip-path="url(#p9f8fe96c63)" d="M 183.537461 244.8 
L 185.346925 244.8 
L 185.346925 228.734489 
L 183.537461 228.734489 
z
" style="fill:#ff0000;stroke:#ff0000;stroke-linejoin:miter;stroke-width:0.1;"/>
   </g>
   <g id="patch_57">
    <path clip-path="url(#p9f8fe96c63)" d="M 185.799291 244.8 
L 187.608755 244.8 
L 187.608755 215.473147 
L 185.799291 215.473147 
z
" style="fill:#ff0000;stroke:#ff0000;stroke-linejoin:miter;stroke-width:0.1;"/>
   </g>
   <g id="patch_58">
    <path clip-path="url(#p9f8fe96c63)" d="M 188.061122 244.8 
L 189.870586 244.8 
L 189.870586 236.484394 
L 188.061122 236.484394 
z
" style="fill:#ff0000;stroke:#ff0000;stroke-linejoin:miter;stroke-width:0.1;"/>
   </g>
   <g id="patch_59">
    <path clip-path="url(#p9f8fe96c63)" d="M 190.322952 244.8 
L 192.132416 244.8 
L 192.132416 215.887113 
L 190.322952 215.887113 
z
" style="fill:#ff0000;stroke:#ff0000;stroke-linejoin:miter;stroke-width:0.1;"/>
   </g>
   <g id="patch_60">
    <path clip-path="url(#p9f8fe96c63)" d="M 192.584782 244.8 
L 194.394246 244.8 
L 194.394246 232.143983 
L 192.584782 232.143983 
z
" style="fill:#ff0000;stroke:#ff0000;stroke-linejoin:miter;stroke-width:0.1;"/>
   </g>
   <g id="patch_61">
    <path clip-path="url(#p9f8fe96c63)" d="M 194.846612 244.8 
L 196.656077 244.8 
L 196.656077 212.467281 
L 194.846612 212.467281 
z
" style="fill:#ff0000;stroke:#ff0000;stroke-linejoin:miter;stroke-width:0.1;"/>
   </g>
   <g id="patch_62">
    <path clip-path="url(#p9f8fe96c63)" d="M 197.108443 244.8 
L 198.917907 244.8 
L 198.917907 28.8 
L 197.108443 28.8 
z
" style="fill:#ff0000;stroke:#ff0000;stroke-linejoin:miter;stroke-width:0.1;"/>
   </g>
   <g id="patch_63">
    <path clip-path="url(#p9f8fe96c63)" d="M 199.370273 244.8 
L 201.179737 244.8 
L 201.179737 178.03563 
L 199.370273 178.03563 
z
" style="fill:#ff0000;stroke:#ff0000;stroke-linejoin:miter;stroke-width:0.1;"/>
   </g>
   <g id="patch_64">
    <path clip-path="url(#p9f8fe96c63)" d="M 201.632103 244.8 
L 203.441568 244.8 
L 203.441568 239.958989 
L 201.632103 239.958989 
z
" style="fill:#ff0000;stroke:#ff0000;stroke-linejoin:miter;stroke-width:0.1;"/>
   </g>
   <g id="patch_65">
    <path clip-path="url(#p9f8fe96c63)" d="M 203.893934 244.8 
L 205.703398 244.8 
L 205.703398 222.647143 
L 203.893934 222.647143 
z
" style="fill:#ff0000;stroke:#ff0000;stroke-linejoin:miter;stroke-width:0.1;"/>
   </g>
   <g id="patch_66">
    <path clip-path="url(#p9f8fe96c63)" d="M 206.155764 244.8 
L 207.965228 244.8 
L 207.965228 232.562909 
L 206.155764 232.562909 
z
" style="fill:#ff0000;stroke:#ff0000;stroke-linejoin:miter;stroke-width:0.1;"/>
   </g>
   <g id="patch_67">
    <path clip-path="url(#p9f8fe96c63)" d="M 208.417594 244.8 
L 210.227059 244.8 
L 210.227059 241.726708 
L 208.417594 241.726708 
z
" style="fill:#ff0000;stroke:#ff0000;stroke-linejoin:miter;stroke-width:0.1;"/>
   </g>
   <g id="patch_68">
    <path clip-path="url(#p9f8fe96c63)" d="M 210.679425 244.8 
L 212.488889 244.8 
L 212.488889 199.574319 
L 210.679425 199.574319 
z
" style="fill:#ff0000;stroke:#ff0000;stroke-linejoin:miter;stroke-width:0.1;"/>
   </g>
   <g id="patch_69">
    <path clip-path="url(#p9f8fe96c63)" d="M 212.941255 244.8 
L 214.750719 244.8 
L 214.750719 167.946368 
L 212.941255 167.946368 
z
" style="fill:#ff0000;stroke:#ff0000;stroke-linejoin:miter;stroke-width:0.1;"/>
   </g>
   <g id="patch_70">
    <path clip-path="url(#p9f8fe96c63)" d="M 215.203085 244.8 
L 217.01255 244.8 
L 217.01255 226.146162 
L 215.203085 226.146162 
z
" style="fill:#ff0000;stroke:#ff0000;stroke-linejoin:miter;stroke-width:0.1;"/>
   </g>
   <g id="patch_71">
    <path clip-path="url(#p9f8fe96c63)" d="M 217.464916 244.8 
L 219.27438 244.8 
L 219.27438 232.534618 
L 217.464916 232.534618 
z
" style="fill:#ff0000;stroke:#ff0000;stroke-linejoin:miter;stroke-width:0.1;"/>
   </g>
   <g id="patch_72">
    <path clip-path="url(#p9f8fe96c63)" d="M 219.726746 244.8 
L 221.53621 244.8 
L 221.53621 142.716121 
L 219.726746 142.716121 
z
" style="fill:#ff0000;stroke:#ff0000;stroke-linejoin:miter;stroke-width:0.1;"/>
   </g>
   <g id="patch_73">
    <path clip-path="url(#p9f8fe96c63)" d="M 221.988576 244.8 
L 223.79804 244.8 
L 223.79804 242.304451 
L 221.988576 242.304451 
z
" style="fill:#ff0000;stroke:#ff0000;stroke-linejoin:miter;stroke-width:0.1;"/>
   </g>
   <g id="patch_74">
    <path clip-path="url(#p9f8fe96c63)" d="M 224.250407 244.8 
L 226.059871 244.8 
L 226.059871 229.182849 
L 224.250407 229.182849 
z
" style="fill:#ff0000;stroke:#ff0000;stroke-linejoin:miter;stroke-width:0.1;"/>
   </g>
   <g id="patch_75">
    <path clip-path="url(#p9f8fe96c63)" d="M 226.512237 244.8 
L 228.321701 244.8 
L 228.321701 236.296237 
L 226.512237 236.296237 
z
" style="fill:#ff0000;stroke:#ff0000;stroke-linejoin:miter;stroke-width:0.1;"/>
   </g>
   <g id="patch_76">
    <path clip-path="url(#p9f8fe96c63)" d="M 228.774067 244.8 
L 230.583531 244.8 
L 230.583531 237.563847 
L 228.774067 237.563847 
z
" style="fill:#ff0000;stroke:#ff0000;stroke-linejoin:miter;stroke-width:0.1;"/>
   </g>
   <g id="patch_77">
    <path clip-path="url(#p9f8fe96c63)" d="M 231.035897 244.8 
L 232.845362 244.8 
L 232.845362 28.8 
L 231.035897 28.8 
z
" style="fill:#ff0000;stroke:#ff0000;stroke-linejoin:miter;stroke-width:0.1;"/>
   </g>
   <g id="patch_78">
    <path clip-path="url(#p9f8fe96c63)" d="M 233.297728 244.8 
L 235.107192 244.8 
L 235.107192 222.9058 
L 233.297728 222.9058 
z
" style="fill:#ff0000;stroke:#ff0000;stroke-linejoin:miter;stroke-width:0.1;"/>
   </g>
   <g id="patch_79">
    <path clip-path="url(#p9f8fe96c63)" d="M 235.559558 244.8 
L 237.369022 244.8 
L 237.369022 202.947112 
L 235.559558 202.947112 
z
" style="fill:#ff0000;stroke:#ff0000;stroke-linejoin:miter;stroke-width:0.1;"/>
   </g>
   <g id="patch_80">
    <path clip-path="url(#p9f8fe96c63)" d="M 237.821388 244.8 
L 239.630853 244.8 
L 239.630853 236.907783 
L 237.821388 236.907783 
z
" style="fill:#ff0000;stroke:#ff0000;stroke-linejoin:miter;stroke-width:0.1;"/>
   </g>
   <g id="patch_81">
    <path clip-path="url(#p9f8fe96c63)" d="M 240.083219 244.8 
L 241.892683 244.8 
L 241.892683 241.237872 
L 240.083219 241.237872 
z
" style="fill:#ff0000;stroke:#ff0000;stroke-linejoin:miter;stroke-width:0.1;"/>
   </g>
   <g id="patch_82">
    <path clip-path="url(#p9f8fe96c63)" d="M 242.345049 244.8 
L 244.154513 244.8 
L 244.154513 134.128844 
L 242.345049 134.128844 
z
" style="fill:#ff0000;stroke:#ff0000;stroke-linejoin:miter;stroke-width:0.1;"/>
   </g>
   <g id="patch_83">
    <path clip-path="url(#p9f8fe96c63)" d="M 244.606879 244.8 
L 246.416344 244.8 
L 246.416344 221.368117 
L 244.606879 221.368117 
z
" style="fill:#ff0000;stroke:#ff0000;stroke-linejoin:miter;stroke-width:0.1;"/>
   </g>
   <g id="patch_84">
    <path clip-path="url(#p9f8fe96c63)" d="M 246.86871 244.8 
L 248.678174 244.8 
L 248.678174 241.858127 
L 246.86871 241.858127 
z
" style="fill:#ff0000;stroke:#ff0000;stroke-linejoin:miter;stroke-width:0.1;"/>
   </g>
   <g id="patch_85">
    <path clip-path="url(#p9f8fe96c63)" d="M 249.13054 244.8 
L 250.940004 244.8 
L 250.940004 199.13073 
L 249.13054 199.13073 
z
" style="fill:#ff0000;stroke:#ff0000;stroke-linejoin:miter;stroke-width:0.1;"/>
   </g>
   <g id="patch_86">
    <path clip-path="url(#p9f8fe96c63)" d="M 251.39237 244.8 
L 253.201834 244.8 
L 253.201834 159.999853 
L 251.39237 159.999853 
z
" style="fill:#ff0000;stroke:#ff0000;stroke-linejoin:miter;stroke-width:0.1;"/>
   </g>
   <g id="patch_87">
    <path clip-path="url(#p9f8fe96c63)" d="M 253.654201 244.8 
L 255.463665 244.8 
L 255.463665 231.303239 
L 253.654201 231.303239 
z
" style="fill:#ff0000;stroke:#ff0000;stroke-linejoin:miter;stroke-width:0.1;"/>
   </g>
   <g id="patch_88">
    <path clip-path="url(#p9f8fe96c63)" d="M 255.916031 244.8 
L 257.725495 244.8 
L 257.725495 229.587206 
L 255.916031 229.587206 
z
" style="fill:#ff0000;stroke:#ff0000;stroke-linejoin:miter;stroke-width:0.1;"/>
   </g>
   <g id="patch_89">
    <path clip-path="url(#p9f8fe96c63)" d="M 258.177861 244.8 
L 259.987325 244.8 
L 259.987325 202.222357 
L 258.177861 202.222357 
z
" style="fill:#ff0000;stroke:#ff0000;stroke-linejoin:miter;stroke-width:0.1;"/>
   </g>
   <g id="patch_90">
    <path clip-path="url(#p9f8fe96c63)" d="M 260.439691 244.8 
L 262.249156 244.8 
L 262.249156 230.475849 
L 260.439691 230.475849 
z
" style="fill:#ff0000;stroke:#ff0000;stroke-linejoin:miter;stroke-width:0.1;"/>
   </g>
   <g id="patch_91">
    <path clip-path="url(#p9f8fe96c63)" d="M 262.701522 244.8 
L 264.510986 244.8 
L 264.510986 237.103302 
L 262.701522 237.103302 
z
" style="fill:#ff0000;stroke:#ff0000;stroke-linejoin:miter;stroke-width:0.1;"/>
   </g>
   <g id="patch_92">
    <path clip-path="url(#p9f8fe96c63)" d="M 264.963352 244.8 
L 266.772816 244.8 
L 266.772816 204.275801 
L 264.963352 204.275801 
z
" style="fill:#ff0000;stroke:#ff0000;stroke-linejoin:miter;stroke-width:0.1;"/>
   </g>
   <g id="patch_93">
    <path clip-path="url(#p9f8fe96c63)" d="M 267.225182 244.8 
L 269.034647 244.8 
L 269.034647 238.480396 
L 267.225182 238.480396 
z
" style="fill:#ff0000;stroke:#ff0000;stroke-linejoin:miter;stroke-width:0.1;"/>
   </g>
   <g id="patch_94">
    <path clip-path="url(#p9f8fe96c63)" d="M 269.487013 244.8 
L 271.296477 244.8 
L 271.296477 200.747963 
L 269.487013 200.747963 
z
" style="fill:#ff0000;stroke:#ff0000;stroke-linejoin:miter;stroke-width:0.1;"/>
   </g>
   <g id="patch_95">
    <path clip-path="url(#p9f8fe96c63)" d="M 271.748843 244.8 
L 273.558307 244.8 
L 273.558307 28.8 
L 271.748843 28.8 
z
" style="fill:#ff0000;stroke:#ff0000;stroke-linejoin:miter;stroke-width:0.1;"/>
   </g>
   <g id="patch_96">
    <path clip-path="url(#p9f8fe96c63)" d="M 274.010673 244.8 
L 275.820138 244.8 
L 275.820138 238.957204 
L 274.010673 238.957204 
z
" style="fill:#ff0000;stroke:#ff0000;stroke-linejoin:miter;stroke-width:0.1;"/>
   </g>
   <g id="patch_97">
    <path clip-path="url(#p9f8fe96c63)" d="M 276.272504 244.8 
L 278.081968 244.8 
L 278.081968 223.453081 
L 276.272504 223.453081 
z
" style="fill:#ff0000;stroke:#ff0000;stroke-linejoin:miter;stroke-width:0.1;"/>
   </g>
   <g id="patch_98">
    <path clip-path="url(#p9f8fe96c63)" d="M 278.534334 244.8 
L 280.343798 244.8 
L 280.343798 129.93902 
L 278.534334 129.93902 
z
" style="fill:#ff0000;stroke:#ff0000;stroke-linejoin:miter;stroke-width:0.1;"/>
   </g>
   <g id="patch_99">
    <path clip-path="url(#p9f8fe96c63)" d="M 280.796164 244.8 
L 282.605629 244.8 
L 282.605629 28.8 
L 280.796164 28.8 
z
" style="fill:#ff0000;stroke:#ff0000;stroke-linejoin:miter;stroke-width:0.1;"/>
   </g>
   <g id="patch_100">
    <path clip-path="url(#p9f8fe96c63)" d="M 283.057995 244.8 
L 284.867459 244.8 
L 284.867459 28.8 
L 283.057995 28.8 
z
" style="fill:#ff0000;stroke:#ff0000;stroke-linejoin:miter;stroke-width:0.1;"/>
   </g>
   <g id="patch_101">
    <path clip-path="url(#p9f8fe96c63)" d="M 285.319825 244.8 
L 287.129289 244.8 
L 287.129289 195.012696 
L 285.319825 195.012696 
z
" style="fill:#ff0000;stroke:#ff0000;stroke-linejoin:miter;stroke-width:0.1;"/>
   </g>
   <g id="patch_102">
    <path clip-path="url(#p9f8fe96c63)" d="M 287.581655 244.8 
L 289.391119 244.8 
L 289.391119 204.471884 
L 287.581655 204.471884 
z
" style="fill:#ff0000;stroke:#ff0000;stroke-linejoin:miter;stroke-width:0.1;"/>
   </g>
   <g id="patch_103">
    <path clip-path="url(#p9f8fe96c63)" d="M 292.105316 244.8 
L 293.91478 244.8 
L 293.91478 119.499817 
L 292.105316 119.499817 
z
" style="fill:#ff0000;stroke:#ff0000;stroke-linejoin:miter;stroke-width:0.1;"/>
   </g>
   <g id="patch_104">
    <path clip-path="url(#p9f8fe96c63)" d="M 294.367146 244.8 
L 296.17661 244.8 
L 296.17661 243.011849 
L 294.367146 243.011849 
z
" style="fill:#ff0000;stroke:#ff0000;stroke-linejoin:miter;stroke-width:0.1;"/>
   </g>
   <g id="patch_105">
    <path clip-path="url(#p9f8fe96c63)" d="M 296.628976 244.8 
L 298.438441 244.8 
L 298.438441 238.412644 
L 296.628976 238.412644 
z
" style="fill:#ff0000;stroke:#ff0000;stroke-linejoin:miter;stroke-width:0.1;"/>
   </g>
   <g id="patch_106">
    <path clip-path="url(#p9f8fe96c63)" d="M 298.890807 244.8 
L 300.700271 244.8 
L 300.700271 232.510204 
L 298.890807 232.510204 
z
" style="fill:#ff0000;stroke:#ff0000;stroke-linejoin:miter;stroke-width:0.1;"/>
   </g>
   <g id="patch_107">
    <path clip-path="url(#p9f8fe96c63)" d="M 301.152637 244.8 
L 302.962101 244.8 
L 302.962101 240.849009 
L 301.152637 240.849009 
z
" style="fill:#ff0000;stroke:#ff0000;stroke-linejoin:miter;stroke-width:0.1;"/>
   </g>
   <g id="patch_108">
    <path clip-path="url(#p9f8fe96c63)" d="M 303.414467 244.8 
L 305.223932 244.8 
L 305.223932 241.705496 
L 303.414467 241.705496 
z
" style="fill:#ff0000;stroke:#ff0000;stroke-linejoin:miter;stroke-width:0.1;"/>
   </g>
   <g id="patch_109">
    <path clip-path="url(#p9f8fe96c63)" d="M 305.676298 244.8 
L 307.485762 244.8 
L 307.485762 242.660263 
L 305.676298 242.660263 
z
" style="fill:#ff0000;stroke:#ff0000;stroke-linejoin:miter;stroke-width:0.1;"/>
   </g>
   <g id="patch_110">
    <path clip-path="url(#p9f8fe96c63)" d="M 307.938128 244.8 
L 309.747592 244.8 
L 309.747592 224.103833 
L 307.938128 224.103833 
z
" style="fill:#ff0000;stroke:#ff0000;stroke-linejoin:miter;stroke-width:0.1;"/>
   </g>
   <g id="patch_111">
    <path clip-path="url(#p9f8fe96c63)" d="M 310.199958 244.8 
L 312.009423 244.8 
L 312.009423 58.743606 
L 310.199958 58.743606 
z
" style="fill:#ff0000;stroke:#ff0000;stroke-linejoin:miter;stroke-width:0.1;"/>
   </g>
   <g id="patch_112">
    <path clip-path="url(#p9f8fe96c63)" d="M 312.461789 244.8 
L 314.271253 244.8 
L 314.271253 240.2025 
L 312.461789 240.2025 
z
" style="fill:#ff0000;stroke:#ff0000;stroke-linejoin:miter;stroke-width:0.1;"/>
   </g>
   <g id="patch_113">
    <path clip-path="url(#p9f8fe96c63)" d="M 314.723619 244.8 
L 316.533083 244.8 
L 316.533083 235.107714 
L 314.723619 235.107714 
z
" style="fill:#ff0000;stroke:#ff0000;stroke-linejoin:miter;stroke-width:0.1;"/>
   </g>
   <g id="patch_114">
    <path clip-path="url(#p9f8fe96c63)" d="M 316.985449 244.8 
L 318.794913 244.8 
L 318.794913 242.379206 
L 316.985449 242.379206 
z
" style="fill:#ff0000;stroke:#ff0000;stroke-linejoin:miter;stroke-width:0.1;"/>
   </g>
   <g id="patch_115">
    <path clip-path="url(#p9f8fe96c63)" d="M 319.24728 244.8 
L 321.056744 244.8 
L 321.056744 243.174636 
L 319.24728 243.174636 
z
" style="fill:#ff0000;stroke:#ff0000;stroke-linejoin:miter;stroke-width:0.1;"/>
   </g>
   <g id="patch_116">
    <path clip-path="url(#p9f8fe96c63)" d="M 321.50911 244.8 
L 323.318574 244.8 
L 323.318574 243.233685 
L 321.50911 243.233685 
z
" style="fill:#ff0000;stroke:#ff0000;stroke-linejoin:miter;stroke-width:0.1;"/>
   </g>
   <g id="patch_117">
    <path clip-path="url(#p9f8fe96c63)" d="M 323.77094 244.8 
L 325.580404 244.8 
L 325.580404 87.414733 
L 323.77094 87.414733 
z
" style="fill:#ff0000;stroke:#ff0000;stroke-linejoin:miter;stroke-width:0.1;"/>
   </g>
   <g id="patch_118">
    <path clip-path="url(#p9f8fe96c63)" d="M 326.03277 244.8 
L 327.842235 244.8 
L 327.842235 190.313457 
L 326.03277 190.313457 
z
" style="fill:#ff0000;stroke:#ff0000;stroke-linejoin:miter;stroke-width:0.1;"/>
   </g>
   <g id="patch_119">
    <path clip-path="url(#p9f8fe96c63)" d="M 328.294601 244.8 
L 330.104065 244.8 
L 330.104065 239.376094 
L 328.294601 239.376094 
z
" style="fill:#ff0000;stroke:#ff0000;stroke-linejoin:miter;stroke-width:0.1;"/>
   </g>
   <g id="patch_120">
    <path clip-path="url(#p9f8fe96c63)" d="M 330.556431 244.8 
L 332.365895 244.8 
L 332.365895 241.154595 
L 330.556431 241.154595 
z
" style="fill:#ff0000;stroke:#ff0000;stroke-linejoin:miter;stroke-width:0.1;"/>
   </g>
   <g id="patch_121">
    <path clip-path="url(#p9f8fe96c63)" d="M 332.818261 244.8 
L 334.627726 244.8 
L 334.627726 242.654119 
L 332.818261 242.654119 
z
" style="fill:#ff0000;stroke:#ff0000;stroke-linejoin:miter;stroke-width:0.1;"/>
   </g>
   <g id="patch_122">
    <path clip-path="url(#p9f8fe96c63)" d="M 335.080092 244.8 
L 336.889556 244.8 
L 336.889556 239.011455 
L 335.080092 239.011455 
z
" style="fill:#ff0000;stroke:#ff0000;stroke-linejoin:miter;stroke-width:0.1;"/>
   </g>
   <g id="patch_123">
    <path clip-path="url(#p9f8fe96c63)" d="M 337.341922 244.8 
L 339.151386 244.8 
L 339.151386 230.778024 
L 337.341922 230.778024 
z
" style="fill:#ff0000;stroke:#ff0000;stroke-linejoin:miter;stroke-width:0.1;"/>
   </g>
   <g id="patch_124">
    <path clip-path="url(#p9f8fe96c63)" d="M 339.603752 244.8 
L 341.413217 244.8 
L 341.413217 236.815549 
L 339.603752 236.815549 
z
" style="fill:#ff0000;stroke:#ff0000;stroke-linejoin:miter;stroke-width:0.1;"/>
   </g>
   <g id="patch_125">
    <path clip-path="url(#p9f8fe96c63)" d="M 341.865583 244.8 
L 343.675047 244.8 
L 343.675047 235.254398 
L 341.865583 235.254398 
z
" style="fill:#ff0000;stroke:#ff0000;stroke-linejoin:miter;stroke-width:0.1;"/>
   </g>
   <g id="patch_126">
    <path clip-path="url(#p9f8fe96c63)" d="M 344.127413 244.8 
L 345.936877 244.8 
L 345.936877 243.099773 
L 344.127413 243.099773 
z
" style="fill:#ff0000;stroke:#ff0000;stroke-linejoin:miter;stroke-width:0.1;"/>
   </g>
   <g id="patch_127">
    <path clip-path="url(#p9f8fe96c63)" d="M 346.389243 244.8 
L 348.198708 244.8 
L 348.198708 241.490669 
L 346.389243 241.490669 
z
" style="fill:#ff0000;stroke:#ff0000;stroke-linejoin:miter;stroke-width:0.1;"/>
   </g>
   <g id="patch_128">
    <path clip-path="url(#p9f8fe96c63)" d="M 348.651074 244.8 
L 350.460538 244.8 
L 350.460538 183.009419 
L 348.651074 183.009419 
z
" style="fill:#ff0000;stroke:#ff0000;stroke-linejoin:miter;stroke-width:0.1;"/>
   </g>
   <g id="patch_129">
    <path clip-path="url(#p9f8fe96c63)" d="M 350.912904 244.8 
L 352.722368 244.8 
L 352.722368 227.541916 
L 350.912904 227.541916 
z
" style="fill:#ff0000;stroke:#ff0000;stroke-linejoin:miter;stroke-width:0.1;"/>
   </g>
   <g id="patch_130">
    <path clip-path="url(#p9f8fe96c63)" d="M 353.174734 244.8 
L 354.984198 244.8 
L 354.984198 226.2883 
L 353.174734 226.2883 
z
" style="fill:#ff0000;stroke:#ff0000;stroke-linejoin:miter;stroke-width:0.1;"/>
   </g>
   <g id="patch_131">
    <path clip-path="url(#p9f8fe96c63)" d="M 355.436565 244.8 
L 357.246029 244.8 
L 357.246029 36.774304 
L 355.436565 36.774304 
z
" style="fill:#ff0000;stroke:#ff0000;stroke-linejoin:miter;stroke-width:0.1;"/>
   </g>
   <g id="patch_132">
    <path clip-path="url(#p9f8fe96c63)" d="M 357.698395 244.8 
L 359.507859 244.8 
L 359.507859 242.007252 
L 357.698395 242.007252 
z
" style="fill:#ff0000;stroke:#ff0000;stroke-linejoin:miter;stroke-width:0.1;"/>
   </g>
   <g id="patch_133">
    <path clip-path="url(#p9f8fe96c63)" d="M 359.960225 244.8 
L 361.769689 244.8 
L 361.769689 240.058645 
L 359.960225 240.058645 
z
" style="fill:#ff0000;stroke:#ff0000;stroke-linejoin:miter;stroke-width:0.1;"/>
   </g>
   <g id="patch_134">
    <path clip-path="url(#p9f8fe96c63)" d="M 362.222055 244.8 
L 364.03152 244.8 
L 364.03152 225.139724 
L 362.222055 225.139724 
z
" style="fill:#ff0000;stroke:#ff0000;stroke-linejoin:miter;stroke-width:0.1;"/>
   </g>
   <g id="patch_135">
    <path clip-path="url(#p9f8fe96c63)" d="M 364.483886 244.8 
L 366.29335 244.8 
L 366.29335 242.179592 
L 364.483886 242.179592 
z
" style="fill:#ff0000;stroke:#ff0000;stroke-linejoin:miter;stroke-width:0.1;"/>
   </g>
   <g id="patch_136">
    <path clip-path="url(#p9f8fe96c63)" d="M 366.745716 244.8 
L 368.55518 244.8 
L 368.55518 235.084487 
L 366.745716 235.084487 
z
" style="fill:#ff0000;stroke:#ff0000;stroke-linejoin:miter;stroke-width:0.1;"/>
   </g>
   <g id="patch_137">
    <path clip-path="url(#p9f8fe96c63)" d="M 369.007546 244.8 
L 370.817011 244.8 
L 370.817011 241.549951 
L 369.007546 241.549951 
z
" style="fill:#ff0000;stroke:#ff0000;stroke-linejoin:miter;stroke-width:0.1;"/>
   </g>
   <g id="patch_138">
    <path clip-path="url(#p9f8fe96c63)" d="M 371.269377 244.8 
L 373.078841 244.8 
L 373.078841 242.58389 
L 371.269377 242.58389 
z
" style="fill:#ff0000;stroke:#ff0000;stroke-linejoin:miter;stroke-width:0.1;"/>
   </g>
   <g id="patch_139">
    <path clip-path="url(#p9f8fe96c63)" d="M 373.531207 244.8 
L 375.340671 244.8 
L 375.340671 239.103539 
L 373.531207 239.103539 
z
" style="fill:#ff0000;stroke:#ff0000;stroke-linejoin:miter;stroke-width:0.1;"/>
   </g>
   <g id="patch_140">
    <path clip-path="url(#p9f8fe96c63)" d="M 375.793037 244.8 
L 377.602502 244.8 
L 377.602502 240.197588 
L 375.793037 240.197588 
z
" style="fill:#ff0000;stroke:#ff0000;stroke-linejoin:miter;stroke-width:0.1;"/>
   </g>
   <g id="patch_141">
    <path clip-path="url(#p9f8fe96c63)" d="M 378.054868 244.8 
L 379.864332 244.8 
L 379.864332 242.280923 
L 378.054868 242.280923 
z
" style="fill:#ff0000;stroke:#ff0000;stroke-linejoin:miter;stroke-width:0.1;"/>
   </g>
   <g id="patch_142">
    <path clip-path="url(#p9f8fe96c63)" d="M 380.316698 244.8 
L 382.126162 244.8 
L 382.126162 115.438383 
L 380.316698 115.438383 
z
" style="fill:#ff0000;stroke:#ff0000;stroke-linejoin:miter;stroke-width:0.1;"/>
   </g>
   <g id="patch_143">
    <path clip-path="url(#p9f8fe96c63)" d="M 382.578528 244.8 
L 384.387992 244.8 
L 384.387992 199.854362 
L 382.578528 199.854362 
z
" style="fill:#ff0000;stroke:#ff0000;stroke-linejoin:miter;stroke-width:0.1;"/>
   </g>
   <g id="patch_144">
    <path clip-path="url(#p9f8fe96c63)" d="M 384.840359 244.8 
L 386.649823 244.8 
L 386.649823 239.318198 
L 384.840359 239.318198 
z
" style="fill:#ff0000;stroke:#ff0000;stroke-linejoin:miter;stroke-width:0.1;"/>
   </g>
   <g id="patch_145">
    <path clip-path="url(#p9f8fe96c63)" d="M 387.102189 244.8 
L 388.911653 244.8 
L 388.911653 234.593119 
L 387.102189 234.593119 
z
" style="fill:#ff0000;stroke:#ff0000;stroke-linejoin:miter;stroke-width:0.1;"/>
   </g>
   <g id="patch_146">
    <path clip-path="url(#p9f8fe96c63)" d="M 389.364019 244.8 
L 391.173483 244.8 
L 391.173483 239.020129 
L 389.364019 239.020129 
z
" style="fill:#ff0000;stroke:#ff0000;stroke-linejoin:miter;stroke-width:0.1;"/>
   </g>
   <g id="patch_147">
    <path clip-path="url(#p9f8fe96c63)" d="M 391.625849 244.8 
L 393.435314 244.8 
L 393.435314 233.857102 
L 391.625849 233.857102 
z
" style="fill:#ff0000;stroke:#ff0000;stroke-linejoin:miter;stroke-width:0.1;"/>
   </g>
   <g id="patch_148">
    <path clip-path="url(#p9f8fe96c63)" d="M 393.88768 244.8 
L 395.697144 244.8 
L 395.697144 238.674367 
L 393.88768 238.674367 
z
" style="fill:#ff0000;stroke:#ff0000;stroke-linejoin:miter;stroke-width:0.1;"/>
   </g>
   <g id="patch_149">
    <path clip-path="url(#p9f8fe96c63)" d="M 396.14951 244.8 
L 397.958974 244.8 
L 397.958974 230.48014 
L 396.14951 230.48014 
z
" style="fill:#ff0000;stroke:#ff0000;stroke-linejoin:miter;stroke-width:0.1;"/>
   </g>
   <g id="patch_150">
    <path clip-path="url(#p9f8fe96c63)" d="M 398.41134 244.8 
L 400.220805 244.8 
L 400.220805 235.985302 
L 398.41134 235.985302 
z
" style="fill:#ff0000;stroke:#ff0000;stroke-linejoin:miter;stroke-width:0.1;"/>
   </g>
   <g id="patch_151">
    <path clip-path="url(#p9f8fe96c63)" d="M 400.673171 244.8 
L 402.482635 244.8 
L 402.482635 231.631792 
L 400.673171 231.631792 
z
" style="fill:#ff0000;stroke:#ff0000;stroke-linejoin:miter;stroke-width:0.1;"/>
   </g>
   <g id="patch_152">
    <path clip-path="url(#p9f8fe96c63)" d="M 402.935001 244.8 
L 404.744465 244.8 
L 404.744465 244.003869 
L 402.935001 244.003869 
z
" style="fill:#ff0000;stroke:#ff0000;stroke-linejoin:miter;stroke-width:0.1;"/>
   </g>
   <g id="patch_153">
    <path clip-path="url(#p9f8fe96c63)" d="M 405.196831 244.8 
L 407.006296 244.8 
L 407.006296 238.106415 
L 405.196831 238.106415 
z
" style="fill:#ff0000;stroke:#ff0000;stroke-linejoin:miter;stroke-width:0.1;"/>
   </g>
   <g id="patch_154">
    <path clip-path="url(#p9f8fe96c63)" d="M 407.458662 244.8 
L 409.268126 244.8 
L 409.268126 240.404144 
L 407.458662 240.404144 
z
" style="fill:#ff0000;stroke:#ff0000;stroke-linejoin:miter;stroke-width:0.1;"/>
   </g>
   <g id="patch_155">
    <path clip-path="url(#p9f8fe96c63)" d="M 409.720492 244.8 
L 411.529956 244.8 
L 411.529956 243.706152 
L 409.720492 243.706152 
z
" style="fill:#ff0000;stroke:#ff0000;stroke-linejoin:miter;stroke-width:0.1;"/>
   </g>
   <g id="patch_156">
    <path clip-path="url(#p9f8fe96c63)" d="M 411.982322 244.8 
L 413.791787 244.8 
L 413.791787 163.613009 
L 411.982322 163.613009 
z
" style="fill:#ff0000;stroke:#ff0000;stroke-linejoin:miter;stroke-width:0.1;"/>
   </g>
   <g id="patch_157">
    <path clip-path="url(#p9f8fe96c63)" d="M 414.244153 244.8 
L 416.053617 244.8 
L 416.053617 154.947407 
L 414.244153 154.947407 
z
" style="fill:#ff0000;stroke:#ff0000;stroke-linejoin:miter;stroke-width:0.1;"/>
   </g>
   <g id="patch_158">
    <path clip-path="url(#p9f8fe96c63)" d="M 416.505983 244.8 
L 418.315447 244.8 
L 418.315447 95.614036 
L 416.505983 95.614036 
z
" style="fill:#ff0000;stroke:#ff0000;stroke-linejoin:miter;stroke-width:0.1;"/>
   </g>
   <g id="patch_159">
    <path clip-path="url(#p9f8fe96c63)" d="M 418.767813 244.8 
L 420.577277 244.8 
L 420.577277 235.898199 
L 418.767813 235.898199 
z
" style="fill:#ff0000;stroke:#ff0000;stroke-linejoin:miter;stroke-width:0.1;"/>
   </g>
   <g id="patch_160">
    <path clip-path="url(#p9f8fe96c63)" d="M 421.029644 244.8 
L 422.839108 244.8 
L 422.839108 237.291277 
L 421.029644 237.291277 
z
" style="fill:#ff0000;stroke:#ff0000;stroke-linejoin:miter;stroke-width:0.1;"/>
   </g>
   <g id="patch_161">
    <path clip-path="url(#p9f8fe96c63)" d="M 423.291474 244.8 
L 425.100938 244.8 
L 425.100938 240.753478 
L 423.291474 240.753478 
z
" style="fill:#ff0000;stroke:#ff0000;stroke-linejoin:miter;stroke-width:0.1;"/>
   </g>
   <g id="patch_162">
    <path clip-path="url(#p9f8fe96c63)" d="M 425.553304 244.8 
L 427.362768 244.8 
L 427.362768 224.17005 
L 425.553304 224.17005 
z
" style="fill:#ff0000;stroke:#ff0000;stroke-linejoin:miter;stroke-width:0.1;"/>
   </g>
   <g id="patch_163">
    <path clip-path="url(#p9f8fe96c63)" d="M 427.815134 244.8 
L 429.624599 244.8 
L 429.624599 223.68708 
L 427.815134 223.68708 
z
" style="fill:#ff0000;stroke:#ff0000;stroke-linejoin:miter;stroke-width:0.1;"/>
   </g>
   <g id="patch_164">
    <path clip-path="url(#p9f8fe96c63)" d="M 430.076965 244.8 
L 431.886429 244.8 
L 431.886429 197.006648 
L 430.076965 197.006648 
z
" style="fill:#ff0000;stroke:#ff0000;stroke-linejoin:miter;stroke-width:0.1;"/>
   </g>
   <g id="patch_165">
    <path clip-path="url(#p9f8fe96c63)" d="M 432.338795 244.8 
L 434.148259 244.8 
L 434.148259 215.031614 
L 432.338795 215.031614 
z
" style="fill:#ff0000;stroke:#ff0000;stroke-linejoin:miter;stroke-width:0.1;"/>
   </g>
   <g id="patch_166">
    <path clip-path="url(#p9f8fe96c63)" d="M 434.600625 244.8 
L 436.41009 244.8 
L 436.41009 234.724218 
L 434.600625 234.724218 
z
" style="fill:#ff0000;stroke:#ff0000;stroke-linejoin:miter;stroke-width:0.1;"/>
   </g>
   <g id="patch_167">
    <path clip-path="url(#p9f8fe96c63)" d="M 436.862456 244.8 
L 438.67192 244.8 
L 438.67192 222.575584 
L 436.862456 222.575584 
z
" style="fill:#ff0000;stroke:#ff0000;stroke-linejoin:miter;stroke-width:0.1;"/>
   </g>
   <g id="patch_168">
    <path clip-path="url(#p9f8fe96c63)" d="M 439.124286 244.8 
L 440.93375 244.8 
L 440.93375 28.8 
L 439.124286 28.8 
z
" style="fill:#ff0000;stroke:#ff0000;stroke-linejoin:miter;stroke-width:0.1;"/>
   </g>
   <g id="patch_169">
    <path clip-path="url(#p9f8fe96c63)" d="M 441.386116 244.8 
L 443.195581 244.8 
L 443.195581 244.022493 
L 441.386116 244.022493 
z
" style="fill:#ff0000;stroke:#ff0000;stroke-linejoin:miter;stroke-width:0.1;"/>
   </g>
   <g id="patch_170">
    <path clip-path="url(#p9f8fe96c63)" d="M 443.647947 244.8 
L 445.457411 244.8 
L 445.457411 235.615224 
L 443.647947 235.615224 
z
" style="fill:#ff0000;stroke:#ff0000;stroke-linejoin:miter;stroke-width:0.1;"/>
   </g>
   <g id="patch_171">
    <path clip-path="url(#p9f8fe96c63)" d="M 445.909777 244.8 
L 447.719241 244.8 
L 447.719241 175.93141 
L 445.909777 175.93141 
z
" style="fill:#ff0000;stroke:#ff0000;stroke-linejoin:miter;stroke-width:0.1;"/>
   </g>
   <g id="patch_172">
    <path clip-path="url(#p9f8fe96c63)" d="M 448.171607 244.8 
L 449.981072 244.8 
L 449.981072 236.580995 
L 448.171607 236.580995 
z
" style="fill:#ff0000;stroke:#ff0000;stroke-linejoin:miter;stroke-width:0.1;"/>
   </g>
   <g id="patch_173">
    <path clip-path="url(#p9f8fe96c63)" d="M 450.433438 244.8 
L 452.242902 244.8 
L 452.242902 227.927629 
L 450.433438 227.927629 
z
" style="fill:#ff0000;stroke:#ff0000;stroke-linejoin:miter;stroke-width:0.1;"/>
   </g>
   <g id="line2d_1">
    <path clip-path="url(#p9f8fe96c63)" d="M 64.565187 220.027705 
L 288.486387 220.027705 
" style="fill:none;stroke:#000000;stroke-dasharray:6.000000,6.000000;stroke-dashoffset:0.0;"/>
   </g>
   <g id="line2d_2">
    <path clip-path="url(#p9f8fe96c63)" d="M 64.565187 172.8 
L 288.486387 172.8 
" style="fill:none;stroke:#000000;stroke-linecap:square;"/>
   </g>
   <g id="line2d_3">
    <path clip-path="url(#p9f8fe96c63)" d="M 293.010048 235.985302 
L 451.33817 235.985302 
" style="fill:none;stroke:#000000;stroke-dasharray:6.000000,6.000000;stroke-dashoffset:0.0;"/>
   </g>
   <g id="line2d_4">
    <path clip-path="url(#p9f8fe96c63)" d="M 293.010048 206.889348 
L 451.33817 206.889348 
" style="fill:none;stroke:#000000;stroke-linecap:square;"/>
   </g>
   <g id="line2d_5">
    <path clip-path="url(#p9f8fe96c63)" d="M 290.748218 244.8 
L 290.748218 28.8 
" style="fill:none;stroke:#000000;stroke-linecap:square;stroke-width:5.0;"/>
   </g>
   <g id="patch_174">
    <path d="M 63 28.8 
L 453.6 28.8 
" style="fill:none;stroke:#000000;stroke-linecap:square;stroke-linejoin:miter;"/>
   </g>
   <g id="patch_175">
    <path d="M 453.6 244.8 
L 453.6 28.8 
" style="fill:none;stroke:#000000;stroke-linecap:square;stroke-linejoin:miter;"/>
   </g>
   <g id="patch_176">
    <path d="M 63 244.8 
L 453.6 244.8 
" style="fill:none;stroke:#000000;stroke-linecap:square;stroke-linejoin:miter;"/>
   </g>
   <g id="patch_177">
    <path d="M 63 244.8 
L 63 28.8 
" style="fill:none;stroke:#000000;stroke-linecap:square;stroke-linejoin:miter;"/>
   </g>
   <g id="matplotlib.axis_1">
    <g id="xtick_1">
     <g id="line2d_6">
      <defs>
       <path d="M 0 0 
L 0 -4 
" id="m495725b524" style="stroke:#000000;stroke-width:0.5;"/>
      </defs>
      <g>
       <use style="stroke:#000000;stroke-width:0.5;" x="177.656702105" xlink:href="#m495725b524" y="244.8"/>
      </g>
     </g>
     <g id="line2d_7">
      <defs>
       <path d="M 0 0 
L 0 4 
" id="m66531ff215" style="stroke:#000000;stroke-width:0.5;"/>
      </defs>
      <g>
       <use style="stroke:#000000;stroke-width:0.5;" x="177.656702105" xlink:href="#m66531ff215" y="28.8"/>
      </g>
     </g>
    </g>
    <g id="xtick_2">
     <g id="line2d_8">
      <g>
       <use style="stroke:#000000;stroke-width:0.5;" x="372.174108818" xlink:href="#m495725b524" y="244.8"/>
      </g>
     </g>
     <g id="line2d_9">
      <g>
       <use style="stroke:#000000;stroke-width:0.5;" x="372.174108818" xlink:href="#m66531ff215" y="28.8"/>
      </g>
     </g>
    </g>
   </g>
   <g id="matplotlib.axis_2">
    <g id="ytick_1">
     <g id="line2d_10">
      <path clip-path="url(#p9f8fe96c63)" d="M 63 244.8 
L 453.6 244.8 
" style="fill:none;stroke:#000000;stroke-dasharray:1.000000,3.000000;stroke-dashoffset:0.0;stroke-width:0.5;"/>
     </g>
     <g id="line2d_11">
      <defs>
       <path d="M 0 0 
L 4 0 
" id="mcd755bed10" style="stroke:#000000;stroke-width:0.5;"/>
      </defs>
      <g>
       <use style="stroke:#000000;stroke-width:0.5;" x="63.0" xlink:href="#mcd755bed10" y="244.8"/>
      </g>
     </g>
     <g id="line2d_12">
      <defs>
       <path d="M 0 0 
L -4 0 
" id="m653a4cebdf" style="stroke:#000000;stroke-width:0.5;"/>
      </defs>
      <g>
       <use style="stroke:#000000;stroke-width:0.5;" x="453.6" xlink:href="#m653a4cebdf" y="244.8"/>
      </g>
     </g>
     <g id="text_1">
      <!-- 0.00 -->
      <defs>
       <path d="M 31.78125 66.40625 
Q 24.171875 66.40625 20.328125 58.90625 
Q 16.5 51.421875 16.5 36.375 
Q 16.5 21.390625 20.328125 13.890625 
Q 24.171875 6.390625 31.78125 6.390625 
Q 39.453125 6.390625 43.28125 13.890625 
Q 47.125 21.390625 47.125 36.375 
Q 47.125 51.421875 43.28125 58.90625 
Q 39.453125 66.40625 31.78125 66.40625 
M 31.78125 74.21875 
Q 44.046875 74.21875 50.515625 64.515625 
Q 56.984375 54.828125 56.984375 36.375 
Q 56.984375 17.96875 50.515625 8.265625 
Q 44.046875 -1.421875 31.78125 -1.421875 
Q 19.53125 -1.421875 13.0625 8.265625 
Q 6.59375 17.96875 6.59375 36.375 
Q 6.59375 54.828125 13.0625 64.515625 
Q 19.53125 74.21875 31.78125 74.21875 
" id="BitstreamVeraSans-Roman-30"/>
       <path d="M 10.6875 12.40625 
L 21 12.40625 
L 21 0 
L 10.6875 0 
z
" id="BitstreamVeraSans-Roman-2e"/>
      </defs>
      <g transform="translate(41.1875 247.0075)scale(0.08 -0.08)">
       <use xlink:href="#BitstreamVeraSans-Roman-30"/>
       <use x="63.623046875" xlink:href="#BitstreamVeraSans-Roman-2e"/>
       <use x="95.41015625" xlink:href="#BitstreamVeraSans-Roman-30"/>
       <use x="159.033203125" xlink:href="#BitstreamVeraSans-Roman-30"/>
      </g>
     </g>
    </g>
    <g id="ytick_2">
     <g id="line2d_13">
      <path clip-path="url(#p9f8fe96c63)" d="M 63 220.421258 
L 453.6 220.421258 
" style="fill:none;stroke:#000000;stroke-dasharray:1.000000,3.000000;stroke-dashoffset:0.0;stroke-width:0.5;"/>
     </g>
     <g id="line2d_14">
      <g>
       <use style="stroke:#000000;stroke-width:0.5;" x="63.0" xlink:href="#mcd755bed10" y="220.421258296"/>
      </g>
     </g>
     <g id="line2d_15">
      <g>
       <use style="stroke:#000000;stroke-width:0.5;" x="453.6" xlink:href="#m653a4cebdf" y="220.421258296"/>
      </g>
     </g>
     <g id="text_2">
      <!-- 0.02 -->
      <defs>
       <path d="M 19.1875 8.296875 
L 53.609375 8.296875 
L 53.609375 0 
L 7.328125 0 
L 7.328125 8.296875 
Q 12.9375 14.109375 22.625 23.890625 
Q 32.328125 33.6875 34.8125 36.53125 
Q 39.546875 41.84375 41.421875 45.53125 
Q 43.3125 49.21875 43.3125 52.78125 
Q 43.3125 58.59375 39.234375 62.25 
Q 35.15625 65.921875 28.609375 65.921875 
Q 23.96875 65.921875 18.8125 64.3125 
Q 13.671875 62.703125 7.8125 59.421875 
L 7.8125 69.390625 
Q 13.765625 71.78125 18.9375 73 
Q 24.125 74.21875 28.421875 74.21875 
Q 39.75 74.21875 46.484375 68.546875 
Q 53.21875 62.890625 53.21875 53.421875 
Q 53.21875 48.921875 51.53125 44.890625 
Q 49.859375 40.875 45.40625 35.40625 
Q 44.1875 33.984375 37.640625 27.21875 
Q 31.109375 20.453125 19.1875 8.296875 
" id="BitstreamVeraSans-Roman-32"/>
      </defs>
      <g transform="translate(41.1875 222.628758296)scale(0.08 -0.08)">
       <use xlink:href="#BitstreamVeraSans-Roman-30"/>
       <use x="63.623046875" xlink:href="#BitstreamVeraSans-Roman-2e"/>
       <use x="95.41015625" xlink:href="#BitstreamVeraSans-Roman-30"/>
       <use x="159.033203125" xlink:href="#BitstreamVeraSans-Roman-32"/>
      </g>
     </g>
    </g>
    <g id="ytick_3">
     <g id="line2d_16">
      <path clip-path="url(#p9f8fe96c63)" d="M 63 196.042517 
L 453.6 196.042517 
" style="fill:none;stroke:#000000;stroke-dasharray:1.000000,3.000000;stroke-dashoffset:0.0;stroke-width:0.5;"/>
     </g>
     <g id="line2d_17">
      <g>
       <use style="stroke:#000000;stroke-width:0.5;" x="63.0" xlink:href="#mcd755bed10" y="196.042516591"/>
      </g>
     </g>
     <g id="line2d_18">
      <g>
       <use style="stroke:#000000;stroke-width:0.5;" x="453.6" xlink:href="#m653a4cebdf" y="196.042516591"/>
      </g>
     </g>
     <g id="text_3">
      <!-- 0.04 -->
      <defs>
       <path d="M 37.796875 64.3125 
L 12.890625 25.390625 
L 37.796875 25.390625 
z
M 35.203125 72.90625 
L 47.609375 72.90625 
L 47.609375 25.390625 
L 58.015625 25.390625 
L 58.015625 17.1875 
L 47.609375 17.1875 
L 47.609375 0 
L 37.796875 0 
L 37.796875 17.1875 
L 4.890625 17.1875 
L 4.890625 26.703125 
z
" id="BitstreamVeraSans-Roman-34"/>
      </defs>
      <g transform="translate(41.1875 198.250016591)scale(0.08 -0.08)">
       <use xlink:href="#BitstreamVeraSans-Roman-30"/>
       <use x="63.623046875" xlink:href="#BitstreamVeraSans-Roman-2e"/>
       <use x="95.41015625" xlink:href="#BitstreamVeraSans-Roman-30"/>
       <use x="159.033203125" xlink:href="#BitstreamVeraSans-Roman-34"/>
      </g>
     </g>
    </g>
    <g id="ytick_4">
     <g id="line2d_19">
      <path clip-path="url(#p9f8fe96c63)" d="M 63 171.663775 
L 453.6 171.663775 
" style="fill:none;stroke:#000000;stroke-dasharray:1.000000,3.000000;stroke-dashoffset:0.0;stroke-width:0.5;"/>
     </g>
     <g id="line2d_20">
      <g>
       <use style="stroke:#000000;stroke-width:0.5;" x="63.0" xlink:href="#mcd755bed10" y="171.663774887"/>
      </g>
     </g>
     <g id="line2d_21">
      <g>
       <use style="stroke:#000000;stroke-width:0.5;" x="453.6" xlink:href="#m653a4cebdf" y="171.663774887"/>
      </g>
     </g>
     <g id="text_4">
      <!-- 0.06 -->
      <defs>
       <path d="M 33.015625 40.375 
Q 26.375 40.375 22.484375 35.828125 
Q 18.609375 31.296875 18.609375 23.390625 
Q 18.609375 15.53125 22.484375 10.953125 
Q 26.375 6.390625 33.015625 6.390625 
Q 39.65625 6.390625 43.53125 10.953125 
Q 47.40625 15.53125 47.40625 23.390625 
Q 47.40625 31.296875 43.53125 35.828125 
Q 39.65625 40.375 33.015625 40.375 
M 52.59375 71.296875 
L 52.59375 62.3125 
Q 48.875 64.0625 45.09375 64.984375 
Q 41.3125 65.921875 37.59375 65.921875 
Q 27.828125 65.921875 22.671875 59.328125 
Q 17.53125 52.734375 16.796875 39.40625 
Q 19.671875 43.65625 24.015625 45.921875 
Q 28.375 48.1875 33.59375 48.1875 
Q 44.578125 48.1875 50.953125 41.515625 
Q 57.328125 34.859375 57.328125 23.390625 
Q 57.328125 12.15625 50.6875 5.359375 
Q 44.046875 -1.421875 33.015625 -1.421875 
Q 20.359375 -1.421875 13.671875 8.265625 
Q 6.984375 17.96875 6.984375 36.375 
Q 6.984375 53.65625 15.1875 63.9375 
Q 23.390625 74.21875 37.203125 74.21875 
Q 40.921875 74.21875 44.703125 73.484375 
Q 48.484375 72.75 52.59375 71.296875 
" id="BitstreamVeraSans-Roman-36"/>
      </defs>
      <g transform="translate(41.1875 173.871274887)scale(0.08 -0.08)">
       <use xlink:href="#BitstreamVeraSans-Roman-30"/>
       <use x="63.623046875" xlink:href="#BitstreamVeraSans-Roman-2e"/>
       <use x="95.41015625" xlink:href="#BitstreamVeraSans-Roman-30"/>
       <use x="159.033203125" xlink:href="#BitstreamVeraSans-Roman-36"/>
      </g>
     </g>
    </g>
    <g id="ytick_5">
     <g id="line2d_22">
      <path clip-path="url(#p9f8fe96c63)" d="M 63 147.285033 
L 453.6 147.285033 
" style="fill:none;stroke:#000000;stroke-dasharray:1.000000,3.000000;stroke-dashoffset:0.0;stroke-width:0.5;"/>
     </g>
     <g id="line2d_23">
      <g>
       <use style="stroke:#000000;stroke-width:0.5;" x="63.0" xlink:href="#mcd755bed10" y="147.285033182"/>
      </g>
     </g>
     <g id="line2d_24">
      <g>
       <use style="stroke:#000000;stroke-width:0.5;" x="453.6" xlink:href="#m653a4cebdf" y="147.285033182"/>
      </g>
     </g>
     <g id="text_5">
      <!-- 0.08 -->
      <defs>
       <path d="M 31.78125 34.625 
Q 24.75 34.625 20.71875 30.859375 
Q 16.703125 27.09375 16.703125 20.515625 
Q 16.703125 13.921875 20.71875 10.15625 
Q 24.75 6.390625 31.78125 6.390625 
Q 38.8125 6.390625 42.859375 10.171875 
Q 46.921875 13.96875 46.921875 20.515625 
Q 46.921875 27.09375 42.890625 30.859375 
Q 38.875 34.625 31.78125 34.625 
M 21.921875 38.8125 
Q 15.578125 40.375 12.03125 44.71875 
Q 8.5 49.078125 8.5 55.328125 
Q 8.5 64.0625 14.71875 69.140625 
Q 20.953125 74.21875 31.78125 74.21875 
Q 42.671875 74.21875 48.875 69.140625 
Q 55.078125 64.0625 55.078125 55.328125 
Q 55.078125 49.078125 51.53125 44.71875 
Q 48 40.375 41.703125 38.8125 
Q 48.828125 37.15625 52.796875 32.3125 
Q 56.78125 27.484375 56.78125 20.515625 
Q 56.78125 9.90625 50.3125 4.234375 
Q 43.84375 -1.421875 31.78125 -1.421875 
Q 19.734375 -1.421875 13.25 4.234375 
Q 6.78125 9.90625 6.78125 20.515625 
Q 6.78125 27.484375 10.78125 32.3125 
Q 14.796875 37.15625 21.921875 38.8125 
M 18.3125 54.390625 
Q 18.3125 48.734375 21.84375 45.5625 
Q 25.390625 42.390625 31.78125 42.390625 
Q 38.140625 42.390625 41.71875 45.5625 
Q 45.3125 48.734375 45.3125 54.390625 
Q 45.3125 60.0625 41.71875 63.234375 
Q 38.140625 66.40625 31.78125 66.40625 
Q 25.390625 66.40625 21.84375 63.234375 
Q 18.3125 60.0625 18.3125 54.390625 
" id="BitstreamVeraSans-Roman-38"/>
      </defs>
      <g transform="translate(41.1875 149.492533182)scale(0.08 -0.08)">
       <use xlink:href="#BitstreamVeraSans-Roman-30"/>
       <use x="63.623046875" xlink:href="#BitstreamVeraSans-Roman-2e"/>
       <use x="95.41015625" xlink:href="#BitstreamVeraSans-Roman-30"/>
       <use x="159.033203125" xlink:href="#BitstreamVeraSans-Roman-38"/>
      </g>
     </g>
    </g>
    <g id="ytick_6">
     <g id="line2d_25">
      <path clip-path="url(#p9f8fe96c63)" d="M 63 122.906291 
L 453.6 122.906291 
" style="fill:none;stroke:#000000;stroke-dasharray:1.000000,3.000000;stroke-dashoffset:0.0;stroke-width:0.5;"/>
     </g>
     <g id="line2d_26">
      <g>
       <use style="stroke:#000000;stroke-width:0.5;" x="63.0" xlink:href="#mcd755bed10" y="122.906291478"/>
      </g>
     </g>
     <g id="line2d_27">
      <g>
       <use style="stroke:#000000;stroke-width:0.5;" x="453.6" xlink:href="#m653a4cebdf" y="122.906291478"/>
      </g>
     </g>
     <g id="text_6">
      <!-- 0.10 -->
      <defs>
       <path d="M 12.40625 8.296875 
L 28.515625 8.296875 
L 28.515625 63.921875 
L 10.984375 60.40625 
L 10.984375 69.390625 
L 28.421875 72.90625 
L 38.28125 72.90625 
L 38.28125 8.296875 
L 54.390625 8.296875 
L 54.390625 0 
L 12.40625 0 
z
" id="BitstreamVeraSans-Roman-31"/>
      </defs>
      <g transform="translate(41.1875 125.113791478)scale(0.08 -0.08)">
       <use xlink:href="#BitstreamVeraSans-Roman-30"/>
       <use x="63.623046875" xlink:href="#BitstreamVeraSans-Roman-2e"/>
       <use x="95.41015625" xlink:href="#BitstreamVeraSans-Roman-31"/>
       <use x="159.033203125" xlink:href="#BitstreamVeraSans-Roman-30"/>
      </g>
     </g>
    </g>
    <g id="ytick_7">
     <g id="line2d_28">
      <path clip-path="url(#p9f8fe96c63)" d="M 63 98.52755 
L 453.6 98.52755 
" style="fill:none;stroke:#000000;stroke-dasharray:1.000000,3.000000;stroke-dashoffset:0.0;stroke-width:0.5;"/>
     </g>
     <g id="line2d_29">
      <g>
       <use style="stroke:#000000;stroke-width:0.5;" x="63.0" xlink:href="#mcd755bed10" y="98.5275497732"/>
      </g>
     </g>
     <g id="line2d_30">
      <g>
       <use style="stroke:#000000;stroke-width:0.5;" x="453.6" xlink:href="#m653a4cebdf" y="98.5275497732"/>
      </g>
     </g>
     <g id="text_7">
      <!-- 0.12 -->
      <g transform="translate(41.1875 100.735049773)scale(0.08 -0.08)">
       <use xlink:href="#BitstreamVeraSans-Roman-30"/>
       <use x="63.623046875" xlink:href="#BitstreamVeraSans-Roman-2e"/>
       <use x="95.41015625" xlink:href="#BitstreamVeraSans-Roman-31"/>
       <use x="159.033203125" xlink:href="#BitstreamVeraSans-Roman-32"/>
      </g>
     </g>
    </g>
    <g id="ytick_8">
     <g id="line2d_31">
      <path clip-path="url(#p9f8fe96c63)" d="M 63 74.148808 
L 453.6 74.148808 
" style="fill:none;stroke:#000000;stroke-dasharray:1.000000,3.000000;stroke-dashoffset:0.0;stroke-width:0.5;"/>
     </g>
     <g id="line2d_32">
      <g>
       <use style="stroke:#000000;stroke-width:0.5;" x="63.0" xlink:href="#mcd755bed10" y="74.1488080687"/>
      </g>
     </g>
     <g id="line2d_33">
      <g>
       <use style="stroke:#000000;stroke-width:0.5;" x="453.6" xlink:href="#m653a4cebdf" y="74.1488080687"/>
      </g>
     </g>
     <g id="text_8">
      <!-- 0.14 -->
      <g transform="translate(41.1875 76.3563080687)scale(0.08 -0.08)">
       <use xlink:href="#BitstreamVeraSans-Roman-30"/>
       <use x="63.623046875" xlink:href="#BitstreamVeraSans-Roman-2e"/>
       <use x="95.41015625" xlink:href="#BitstreamVeraSans-Roman-31"/>
       <use x="159.033203125" xlink:href="#BitstreamVeraSans-Roman-34"/>
      </g>
     </g>
    </g>
    <g id="ytick_9">
     <g id="line2d_34">
      <path clip-path="url(#p9f8fe96c63)" d="M 63 49.770066 
L 453.6 49.770066 
" style="fill:none;stroke:#000000;stroke-dasharray:1.000000,3.000000;stroke-dashoffset:0.0;stroke-width:0.5;"/>
     </g>
     <g id="line2d_35">
      <g>
       <use style="stroke:#000000;stroke-width:0.5;" x="63.0" xlink:href="#mcd755bed10" y="49.7700663642"/>
      </g>
     </g>
     <g id="line2d_36">
      <g>
       <use style="stroke:#000000;stroke-width:0.5;" x="453.6" xlink:href="#m653a4cebdf" y="49.7700663642"/>
      </g>
     </g>
     <g id="text_9">
      <!-- 0.16 -->
      <g transform="translate(41.1875 51.9775663642)scale(0.08 -0.08)">
       <use xlink:href="#BitstreamVeraSans-Roman-30"/>
       <use x="63.623046875" xlink:href="#BitstreamVeraSans-Roman-2e"/>
       <use x="95.41015625" xlink:href="#BitstreamVeraSans-Roman-31"/>
       <use x="159.033203125" xlink:href="#BitstreamVeraSans-Roman-36"/>
      </g>
     </g>
    </g>
    <g id="text_10">
     <!-- Relative abundance -->
     <defs>
      <path id="BitstreamVeraSans-Roman-20"/>
      <path d="M 54.890625 33.015625 
L 54.890625 0 
L 45.90625 0 
L 45.90625 32.71875 
Q 45.90625 40.484375 42.875 44.328125 
Q 39.84375 48.1875 33.796875 48.1875 
Q 26.515625 48.1875 22.3125 43.546875 
Q 18.109375 38.921875 18.109375 30.90625 
L 18.109375 0 
L 9.078125 0 
L 9.078125 54.6875 
L 18.109375 54.6875 
L 18.109375 46.1875 
Q 21.34375 51.125 25.703125 53.5625 
Q 30.078125 56 35.796875 56 
Q 45.21875 56 50.046875 50.171875 
Q 54.890625 44.34375 54.890625 33.015625 
" id="BitstreamVeraSans-Roman-6e"/>
      <path d="M 9.421875 75.984375 
L 18.40625 75.984375 
L 18.40625 0 
L 9.421875 0 
z
" id="BitstreamVeraSans-Roman-6c"/>
      <path d="M 2.984375 54.6875 
L 12.5 54.6875 
L 29.59375 8.796875 
L 46.6875 54.6875 
L 56.203125 54.6875 
L 35.6875 0 
L 23.484375 0 
z
" id="BitstreamVeraSans-Roman-76"/>
      <path d="M 44.390625 34.1875 
Q 47.5625 33.109375 50.5625 29.59375 
Q 53.5625 26.078125 56.59375 19.921875 
L 66.609375 0 
L 56 0 
L 46.6875 18.703125 
Q 43.0625 26.03125 39.671875 28.421875 
Q 36.28125 30.8125 30.421875 30.8125 
L 19.671875 30.8125 
L 19.671875 0 
L 9.8125 0 
L 9.8125 72.90625 
L 32.078125 72.90625 
Q 44.578125 72.90625 50.734375 67.671875 
Q 56.890625 62.453125 56.890625 51.90625 
Q 56.890625 45.015625 53.6875 40.46875 
Q 50.484375 35.9375 44.390625 34.1875 
M 19.671875 64.796875 
L 19.671875 38.921875 
L 32.078125 38.921875 
Q 39.203125 38.921875 42.84375 42.21875 
Q 46.484375 45.515625 46.484375 51.90625 
Q 46.484375 58.296875 42.84375 61.546875 
Q 39.203125 64.796875 32.078125 64.796875 
z
" id="BitstreamVeraSans-Roman-52"/>
      <path d="M 9.421875 54.6875 
L 18.40625 54.6875 
L 18.40625 0 
L 9.421875 0 
z
M 9.421875 75.984375 
L 18.40625 75.984375 
L 18.40625 64.59375 
L 9.421875 64.59375 
z
" id="BitstreamVeraSans-Roman-69"/>
      <path d="M 56.203125 29.59375 
L 56.203125 25.203125 
L 14.890625 25.203125 
Q 15.484375 15.921875 20.484375 11.0625 
Q 25.484375 6.203125 34.421875 6.203125 
Q 39.59375 6.203125 44.453125 7.46875 
Q 49.3125 8.734375 54.109375 11.28125 
L 54.109375 2.78125 
Q 49.265625 0.734375 44.1875 -0.34375 
Q 39.109375 -1.421875 33.890625 -1.421875 
Q 20.796875 -1.421875 13.15625 6.1875 
Q 5.515625 13.8125 5.515625 26.8125 
Q 5.515625 40.234375 12.765625 48.109375 
Q 20.015625 56 32.328125 56 
Q 43.359375 56 49.78125 48.890625 
Q 56.203125 41.796875 56.203125 29.59375 
M 47.21875 32.234375 
Q 47.125 39.59375 43.09375 43.984375 
Q 39.0625 48.390625 32.421875 48.390625 
Q 24.90625 48.390625 20.390625 44.140625 
Q 15.875 39.890625 15.1875 32.171875 
z
" id="BitstreamVeraSans-Roman-65"/>
      <path d="M 45.40625 46.390625 
L 45.40625 75.984375 
L 54.390625 75.984375 
L 54.390625 0 
L 45.40625 0 
L 45.40625 8.203125 
Q 42.578125 3.328125 38.25 0.953125 
Q 33.9375 -1.421875 27.875 -1.421875 
Q 17.96875 -1.421875 11.734375 6.484375 
Q 5.515625 14.40625 5.515625 27.296875 
Q 5.515625 40.1875 11.734375 48.09375 
Q 17.96875 56 27.875 56 
Q 33.9375 56 38.25 53.625 
Q 42.578125 51.265625 45.40625 46.390625 
M 14.796875 27.296875 
Q 14.796875 17.390625 18.875 11.75 
Q 22.953125 6.109375 30.078125 6.109375 
Q 37.203125 6.109375 41.296875 11.75 
Q 45.40625 17.390625 45.40625 27.296875 
Q 45.40625 37.203125 41.296875 42.84375 
Q 37.203125 48.484375 30.078125 48.484375 
Q 22.953125 48.484375 18.875 42.84375 
Q 14.796875 37.203125 14.796875 27.296875 
" id="BitstreamVeraSans-Roman-64"/>
      <path d="M 18.3125 70.21875 
L 18.3125 54.6875 
L 36.8125 54.6875 
L 36.8125 47.703125 
L 18.3125 47.703125 
L 18.3125 18.015625 
Q 18.3125 11.328125 20.140625 9.421875 
Q 21.96875 7.515625 27.59375 7.515625 
L 36.8125 7.515625 
L 36.8125 0 
L 27.59375 0 
Q 17.1875 0 13.234375 3.875 
Q 9.28125 7.765625 9.28125 18.015625 
L 9.28125 47.703125 
L 2.6875 47.703125 
L 2.6875 54.6875 
L 9.28125 54.6875 
L 9.28125 70.21875 
z
" id="BitstreamVeraSans-Roman-74"/>
      <path d="M 8.5 21.578125 
L 8.5 54.6875 
L 17.484375 54.6875 
L 17.484375 21.921875 
Q 17.484375 14.15625 20.5 10.265625 
Q 23.53125 6.390625 29.59375 6.390625 
Q 36.859375 6.390625 41.078125 11.03125 
Q 45.3125 15.671875 45.3125 23.6875 
L 45.3125 54.6875 
L 54.296875 54.6875 
L 54.296875 0 
L 45.3125 0 
L 45.3125 8.40625 
Q 42.046875 3.421875 37.71875 1 
Q 33.40625 -1.421875 27.6875 -1.421875 
Q 18.265625 -1.421875 13.375 4.4375 
Q 8.5 10.296875 8.5 21.578125 
" id="BitstreamVeraSans-Roman-75"/>
      <path d="M 34.28125 27.484375 
Q 23.390625 27.484375 19.1875 25 
Q 14.984375 22.515625 14.984375 16.5 
Q 14.984375 11.71875 18.140625 8.90625 
Q 21.296875 6.109375 26.703125 6.109375 
Q 34.1875 6.109375 38.703125 11.40625 
Q 43.21875 16.703125 43.21875 25.484375 
L 43.21875 27.484375 
z
M 52.203125 31.203125 
L 52.203125 0 
L 43.21875 0 
L 43.21875 8.296875 
Q 40.140625 3.328125 35.546875 0.953125 
Q 30.953125 -1.421875 24.3125 -1.421875 
Q 15.921875 -1.421875 10.953125 3.296875 
Q 6 8.015625 6 15.921875 
Q 6 25.140625 12.171875 29.828125 
Q 18.359375 34.515625 30.609375 34.515625 
L 43.21875 34.515625 
L 43.21875 35.40625 
Q 43.21875 41.609375 39.140625 45 
Q 35.0625 48.390625 27.6875 48.390625 
Q 23 48.390625 18.546875 47.265625 
Q 14.109375 46.140625 10.015625 43.890625 
L 10.015625 52.203125 
Q 14.9375 54.109375 19.578125 55.046875 
Q 24.21875 56 28.609375 56 
Q 40.484375 56 46.34375 49.84375 
Q 52.203125 43.703125 52.203125 31.203125 
" id="BitstreamVeraSans-Roman-61"/>
      <path d="M 48.78125 52.59375 
L 48.78125 44.1875 
Q 44.96875 46.296875 41.140625 47.34375 
Q 37.3125 48.390625 33.40625 48.390625 
Q 24.65625 48.390625 19.8125 42.84375 
Q 14.984375 37.3125 14.984375 27.296875 
Q 14.984375 17.28125 19.8125 11.734375 
Q 24.65625 6.203125 33.40625 6.203125 
Q 37.3125 6.203125 41.140625 7.25 
Q 44.96875 8.296875 48.78125 10.40625 
L 48.78125 2.09375 
Q 45.015625 0.34375 40.984375 -0.53125 
Q 36.96875 -1.421875 32.421875 -1.421875 
Q 20.0625 -1.421875 12.78125 6.34375 
Q 5.515625 14.109375 5.515625 27.296875 
Q 5.515625 40.671875 12.859375 48.328125 
Q 20.21875 56 33.015625 56 
Q 37.15625 56 41.109375 55.140625 
Q 45.0625 54.296875 48.78125 52.59375 
" id="BitstreamVeraSans-Roman-63"/>
      <path d="M 48.6875 27.296875 
Q 48.6875 37.203125 44.609375 42.84375 
Q 40.53125 48.484375 33.40625 48.484375 
Q 26.265625 48.484375 22.1875 42.84375 
Q 18.109375 37.203125 18.109375 27.296875 
Q 18.109375 17.390625 22.1875 11.75 
Q 26.265625 6.109375 33.40625 6.109375 
Q 40.53125 6.109375 44.609375 11.75 
Q 48.6875 17.390625 48.6875 27.296875 
M 18.109375 46.390625 
Q 20.953125 51.265625 25.265625 53.625 
Q 29.59375 56 35.59375 56 
Q 45.5625 56 51.78125 48.09375 
Q 58.015625 40.1875 58.015625 27.296875 
Q 58.015625 14.40625 51.78125 6.484375 
Q 45.5625 -1.421875 35.59375 -1.421875 
Q 29.59375 -1.421875 25.265625 0.953125 
Q 20.953125 3.328125 18.109375 8.203125 
L 18.109375 0 
L 9.078125 0 
L 9.078125 75.984375 
L 18.109375 75.984375 
z
" id="BitstreamVeraSans-Roman-62"/>
     </defs>
     <g transform="translate(33.691875 196.5403125)rotate(-90.0)scale(0.12 -0.12)">
      <use xlink:href="#BitstreamVeraSans-Roman-52"/>
      <use x="69.419921875" xlink:href="#BitstreamVeraSans-Roman-65"/>
      <use x="130.943359375" xlink:href="#BitstreamVeraSans-Roman-6c"/>
      <use x="158.7265625" xlink:href="#BitstreamVeraSans-Roman-61"/>
      <use x="220.005859375" xlink:href="#BitstreamVeraSans-Roman-74"/>
      <use x="259.21484375" xlink:href="#BitstreamVeraSans-Roman-69"/>
      <use x="286.998046875" xlink:href="#BitstreamVeraSans-Roman-76"/>
      <use x="346.177734375" xlink:href="#BitstreamVeraSans-Roman-65"/>
      <use x="407.701171875" xlink:href="#BitstreamVeraSans-Roman-20"/>
      <use x="439.48828125" xlink:href="#BitstreamVeraSans-Roman-61"/>
      <use x="500.767578125" xlink:href="#BitstreamVeraSans-Roman-62"/>
      <use x="564.244140625" xlink:href="#BitstreamVeraSans-Roman-75"/>
      <use x="627.623046875" xlink:href="#BitstreamVeraSans-Roman-6e"/>
      <use x="691.001953125" xlink:href="#BitstreamVeraSans-Roman-64"/>
      <use x="754.478515625" xlink:href="#BitstreamVeraSans-Roman-61"/>
      <use x="815.7578125" xlink:href="#BitstreamVeraSans-Roman-6e"/>
      <use x="879.13671875" xlink:href="#BitstreamVeraSans-Roman-63"/>
      <use x="934.1171875" xlink:href="#BitstreamVeraSans-Roman-65"/>
     </g>
    </g>
   </g>
   <g id="text_11">
    <g id="patch_178">
     <path d="M 150.11014 50.49375 
L 205.203265 50.49375 
Q 208.803265 50.49375 208.803265 46.89375 
L 208.803265 35.28 
Q 208.803265 31.68 205.203265 31.68 
L 150.11014 31.68 
Q 146.51014 31.68 146.51014 35.28 
L 146.51014 46.89375 
Q 146.51014 50.49375 150.11014 50.49375 
z
" style="fill:#bfbf00;stroke:#000000;stroke-linejoin:miter;"/>
    </g>
    <!-- class: AD -->
    <defs>
     <path d="M 19.671875 64.796875 
L 19.671875 8.109375 
L 31.59375 8.109375 
Q 46.6875 8.109375 53.6875 14.9375 
Q 60.6875 21.78125 60.6875 36.53125 
Q 60.6875 51.171875 53.6875 57.984375 
Q 46.6875 64.796875 31.59375 64.796875 
z
M 9.8125 72.90625 
L 30.078125 72.90625 
Q 51.265625 72.90625 61.171875 64.09375 
Q 71.09375 55.28125 71.09375 36.53125 
Q 71.09375 17.671875 61.125 8.828125 
Q 51.171875 0 30.078125 0 
L 9.8125 0 
z
" id="BitstreamVeraSans-Roman-44"/>
     <path d="M 11.71875 12.40625 
L 22.015625 12.40625 
L 22.015625 0 
L 11.71875 0 
z
M 11.71875 51.703125 
L 22.015625 51.703125 
L 22.015625 39.3125 
L 11.71875 39.3125 
z
" id="BitstreamVeraSans-Roman-3a"/>
     <path d="M 44.28125 53.078125 
L 44.28125 44.578125 
Q 40.484375 46.53125 36.375 47.5 
Q 32.28125 48.484375 27.875 48.484375 
Q 21.1875 48.484375 17.84375 46.4375 
Q 14.5 44.390625 14.5 40.28125 
Q 14.5 37.15625 16.890625 35.375 
Q 19.28125 33.59375 26.515625 31.984375 
L 29.59375 31.296875 
Q 39.15625 29.25 43.1875 25.515625 
Q 47.21875 21.78125 47.21875 15.09375 
Q 47.21875 7.46875 41.1875 3.015625 
Q 35.15625 -1.421875 24.609375 -1.421875 
Q 20.21875 -1.421875 15.453125 -0.5625 
Q 10.6875 0.296875 5.421875 2 
L 5.421875 11.28125 
Q 10.40625 8.6875 15.234375 7.390625 
Q 20.0625 6.109375 24.8125 6.109375 
Q 31.15625 6.109375 34.5625 8.28125 
Q 37.984375 10.453125 37.984375 14.40625 
Q 37.984375 18.0625 35.515625 20.015625 
Q 33.0625 21.96875 24.703125 23.78125 
L 21.578125 24.515625 
Q 13.234375 26.265625 9.515625 29.90625 
Q 5.8125 33.546875 5.8125 39.890625 
Q 5.8125 47.609375 11.28125 51.796875 
Q 16.75 56 26.8125 56 
Q 31.78125 56 36.171875 55.265625 
Q 40.578125 54.546875 44.28125 53.078125 
" id="BitstreamVeraSans-Roman-73"/>
     <path d="M 34.1875 63.1875 
L 20.796875 26.90625 
L 47.609375 26.90625 
z
M 28.609375 72.90625 
L 39.796875 72.90625 
L 67.578125 0 
L 57.328125 0 
L 50.6875 18.703125 
L 17.828125 18.703125 
L 11.1875 0 
L 0.78125 0 
z
" id="BitstreamVeraSans-Roman-41"/>
    </defs>
    <g transform="translate(150.110139605 44.398125)scale(0.12 -0.12)">
     <use xlink:href="#BitstreamVeraSans-Roman-63"/>
     <use x="54.98046875" xlink:href="#BitstreamVeraSans-Roman-6c"/>
     <use x="82.763671875" xlink:href="#BitstreamVeraSans-Roman-61"/>
     <use x="144.04296875" xlink:href="#BitstreamVeraSans-Roman-73"/>
     <use x="196.142578125" xlink:href="#BitstreamVeraSans-Roman-73"/>
     <use x="248.2421875" xlink:href="#BitstreamVeraSans-Roman-3a"/>
     <use x="281.93359375" xlink:href="#BitstreamVeraSans-Roman-20"/>
     <use x="313.720703125" xlink:href="#BitstreamVeraSans-Roman-41"/>
     <use x="382.12890625" xlink:href="#BitstreamVeraSans-Roman-44"/>
    </g>
   </g>
   <g id="text_12">
    <g id="patch_179">
     <path d="M 350.293149 50.49375 
L 396.316899 50.49375 
Q 399.916899 50.49375 399.916899 46.89375 
L 399.916899 35.28 
Q 399.916899 31.68 396.316899 31.68 
L 350.293149 31.68 
Q 346.693149 31.68 346.693149 35.28 
L 346.693149 46.89375 
Q 346.693149 50.49375 350.293149 50.49375 
z
" style="fill:#bfbf00;stroke:#000000;stroke-linejoin:miter;"/>
    </g>
    <!-- class: C -->
    <defs>
     <path d="M 64.40625 67.28125 
L 64.40625 56.890625 
Q 59.421875 61.53125 53.78125 63.8125 
Q 48.140625 66.109375 41.796875 66.109375 
Q 29.296875 66.109375 22.65625 58.46875 
Q 16.015625 50.828125 16.015625 36.375 
Q 16.015625 21.96875 22.65625 14.328125 
Q 29.296875 6.6875 41.796875 6.6875 
Q 48.140625 6.6875 53.78125 8.984375 
Q 59.421875 11.28125 64.40625 15.921875 
L 64.40625 5.609375 
Q 59.234375 2.09375 53.4375 0.328125 
Q 47.65625 -1.421875 41.21875 -1.421875 
Q 24.65625 -1.421875 15.125 8.703125 
Q 5.609375 18.84375 5.609375 36.375 
Q 5.609375 53.953125 15.125 64.078125 
Q 24.65625 74.21875 41.21875 74.21875 
Q 47.75 74.21875 53.53125 72.484375 
Q 59.328125 70.75 64.40625 67.28125 
" id="BitstreamVeraSans-Roman-43"/>
    </defs>
    <g transform="translate(350.293148973 44.398125)scale(0.12 -0.12)">
     <use xlink:href="#BitstreamVeraSans-Roman-63"/>
     <use x="54.98046875" xlink:href="#BitstreamVeraSans-Roman-6c"/>
     <use x="82.763671875" xlink:href="#BitstreamVeraSans-Roman-61"/>
     <use x="144.04296875" xlink:href="#BitstreamVeraSans-Roman-73"/>
     <use x="196.142578125" xlink:href="#BitstreamVeraSans-Roman-73"/>
     <use x="248.2421875" xlink:href="#BitstreamVeraSans-Roman-3a"/>
     <use x="281.93359375" xlink:href="#BitstreamVeraSans-Roman-20"/>
     <use x="313.720703125" xlink:href="#BitstreamVeraSans-Roman-43"/>
    </g>
   </g>
   <g id="text_13">
    <!-- d__Bacteria.p__Firmicutes.c__Bacilli -->
    <defs>
     <path d="M 50.984375 -16.609375 
L 50.984375 -23.578125 
L -0.984375 -23.578125 
L -0.984375 -16.609375 
z
" id="BitstreamVeraSans-Roman-5f"/>
     <path d="M 52 44.1875 
Q 55.375 50.25 60.0625 53.125 
Q 64.75 56 71.09375 56 
Q 79.640625 56 84.28125 50.015625 
Q 88.921875 44.046875 88.921875 33.015625 
L 88.921875 0 
L 79.890625 0 
L 79.890625 32.71875 
Q 79.890625 40.578125 77.09375 44.375 
Q 74.3125 48.1875 68.609375 48.1875 
Q 61.625 48.1875 57.5625 43.546875 
Q 53.515625 38.921875 53.515625 30.90625 
L 53.515625 0 
L 44.484375 0 
L 44.484375 32.71875 
Q 44.484375 40.625 41.703125 44.40625 
Q 38.921875 48.1875 33.109375 48.1875 
Q 26.21875 48.1875 22.15625 43.53125 
Q 18.109375 38.875 18.109375 30.90625 
L 18.109375 0 
L 9.078125 0 
L 9.078125 54.6875 
L 18.109375 54.6875 
L 18.109375 46.1875 
Q 21.1875 51.21875 25.484375 53.609375 
Q 29.78125 56 35.6875 56 
Q 41.65625 56 45.828125 52.96875 
Q 50 49.953125 52 44.1875 
" id="BitstreamVeraSans-Roman-6d"/>
     <path d="M 9.8125 72.90625 
L 51.703125 72.90625 
L 51.703125 64.59375 
L 19.671875 64.59375 
L 19.671875 43.109375 
L 48.578125 43.109375 
L 48.578125 34.8125 
L 19.671875 34.8125 
L 19.671875 0 
L 9.8125 0 
z
" id="BitstreamVeraSans-Roman-46"/>
     <path d="M 19.671875 34.8125 
L 19.671875 8.109375 
L 35.5 8.109375 
Q 43.453125 8.109375 47.28125 11.40625 
Q 51.125 14.703125 51.125 21.484375 
Q 51.125 28.328125 47.28125 31.5625 
Q 43.453125 34.8125 35.5 34.8125 
z
M 19.671875 64.796875 
L 19.671875 42.828125 
L 34.28125 42.828125 
Q 41.5 42.828125 45.03125 45.53125 
Q 48.578125 48.25 48.578125 53.8125 
Q 48.578125 59.328125 45.03125 62.0625 
Q 41.5 64.796875 34.28125 64.796875 
z
M 9.8125 72.90625 
L 35.015625 72.90625 
Q 46.296875 72.90625 52.390625 68.21875 
Q 58.5 63.53125 58.5 54.890625 
Q 58.5 48.1875 55.375 44.234375 
Q 52.25 40.28125 46.1875 39.3125 
Q 53.46875 37.75 57.5 32.78125 
Q 61.53125 27.828125 61.53125 20.40625 
Q 61.53125 10.640625 54.890625 5.3125 
Q 48.25 0 35.984375 0 
L 9.8125 0 
z
" id="BitstreamVeraSans-Roman-42"/>
     <path d="M 41.109375 46.296875 
Q 39.59375 47.171875 37.8125 47.578125 
Q 36.03125 48 33.890625 48 
Q 26.265625 48 22.1875 43.046875 
Q 18.109375 38.09375 18.109375 28.8125 
L 18.109375 0 
L 9.078125 0 
L 9.078125 54.6875 
L 18.109375 54.6875 
L 18.109375 46.1875 
Q 20.953125 51.171875 25.484375 53.578125 
Q 30.03125 56 36.53125 56 
Q 37.453125 56 38.578125 55.875 
Q 39.703125 55.765625 41.0625 55.515625 
z
" id="BitstreamVeraSans-Roman-72"/>
     <path d="M 18.109375 8.203125 
L 18.109375 -20.796875 
L 9.078125 -20.796875 
L 9.078125 54.6875 
L 18.109375 54.6875 
L 18.109375 46.390625 
Q 20.953125 51.265625 25.265625 53.625 
Q 29.59375 56 35.59375 56 
Q 45.5625 56 51.78125 48.09375 
Q 58.015625 40.1875 58.015625 27.296875 
Q 58.015625 14.40625 51.78125 6.484375 
Q 45.5625 -1.421875 35.59375 -1.421875 
Q 29.59375 -1.421875 25.265625 0.953125 
Q 20.953125 3.328125 18.109375 8.203125 
M 48.6875 27.296875 
Q 48.6875 37.203125 44.609375 42.84375 
Q 40.53125 48.484375 33.40625 48.484375 
Q 26.265625 48.484375 22.1875 42.84375 
Q 18.109375 37.203125 18.109375 27.296875 
Q 18.109375 17.390625 22.1875 11.75 
Q 26.265625 6.109375 33.40625 6.109375 
Q 40.53125 6.109375 44.609375 11.75 
Q 48.6875 17.390625 48.6875 27.296875 
" id="BitstreamVeraSans-Roman-70"/>
    </defs>
    <g transform="translate(133.70328125 23.8)scale(0.14 -0.14)">
     <use xlink:href="#BitstreamVeraSans-Roman-64"/>
     <use x="63.4765625" xlink:href="#BitstreamVeraSans-Roman-5f"/>
     <use x="113.4765625" xlink:href="#BitstreamVeraSans-Roman-5f"/>
     <use x="163.4765625" xlink:href="#BitstreamVeraSans-Roman-42"/>
     <use x="232.080078125" xlink:href="#BitstreamVeraSans-Roman-61"/>
     <use x="293.359375" xlink:href="#BitstreamVeraSans-Roman-63"/>
     <use x="348.33984375" xlink:href="#BitstreamVeraSans-Roman-74"/>
     <use x="387.548828125" xlink:href="#BitstreamVeraSans-Roman-65"/>
     <use x="449.072265625" xlink:href="#BitstreamVeraSans-Roman-72"/>
     <use x="490.185546875" xlink:href="#BitstreamVeraSans-Roman-69"/>
     <use x="517.96875" xlink:href="#BitstreamVeraSans-Roman-61"/>
     <use x="579.248046875" xlink:href="#BitstreamVeraSans-Roman-2e"/>
     <use x="611.03515625" xlink:href="#BitstreamVeraSans-Roman-70"/>
     <use x="674.51171875" xlink:href="#BitstreamVeraSans-Roman-5f"/>
     <use x="724.51171875" xlink:href="#BitstreamVeraSans-Roman-5f"/>
     <use x="774.51171875" xlink:href="#BitstreamVeraSans-Roman-46"/>
     <use x="831.921875" xlink:href="#BitstreamVeraSans-Roman-69"/>
     <use x="859.705078125" xlink:href="#BitstreamVeraSans-Roman-72"/>
     <use x="900.802734375" xlink:href="#BitstreamVeraSans-Roman-6d"/>
     <use x="998.21484375" xlink:href="#BitstreamVeraSans-Roman-69"/>
     <use x="1025.99804688" xlink:href="#BitstreamVeraSans-Roman-63"/>
     <use x="1080.97851562" xlink:href="#BitstreamVeraSans-Roman-75"/>
     <use x="1144.35742188" xlink:href="#BitstreamVeraSans-Roman-74"/>
     <use x="1183.56640625" xlink:href="#BitstreamVeraSans-Roman-65"/>
     <use x="1245.08984375" xlink:href="#BitstreamVeraSans-Roman-73"/>
     <use x="1297.18945312" xlink:href="#BitstreamVeraSans-Roman-2e"/>
     <use x="1328.9765625" xlink:href="#BitstreamVeraSans-Roman-63"/>
     <use x="1383.95703125" xlink:href="#BitstreamVeraSans-Roman-5f"/>
     <use x="1433.95703125" xlink:href="#BitstreamVeraSans-Roman-5f"/>
     <use x="1483.95703125" xlink:href="#BitstreamVeraSans-Roman-42"/>
     <use x="1552.56054688" xlink:href="#BitstreamVeraSans-Roman-61"/>
     <use x="1613.83984375" xlink:href="#BitstreamVeraSans-Roman-63"/>
     <use x="1668.8203125" xlink:href="#BitstreamVeraSans-Roman-69"/>
     <use x="1696.60351562" xlink:href="#BitstreamVeraSans-Roman-6c"/>
     <use x="1724.38671875" xlink:href="#BitstreamVeraSans-Roman-6c"/>
     <use x="1752.16992188" xlink:href="#BitstreamVeraSans-Roman-69"/>
    </g>
   </g>
  </g>
 </g>
 <defs>
  <clipPath id="p9f8fe96c63">
   <rect height="216.0" width="390.6" x="63.0" y="28.8"/>
  </clipPath>
 </defs>
</svg>
